<svg width="68" height="68" viewBox="0 0 68 68" fill="none" xmlns="http://www.w3.org/2000/svg">
<g filter="url(#filter0_d)">
<circle cx="34" cy="34" r="25" fill="white"/>
</g>
<path d="M34.2314 40.9602C34.1349 40.9603 34.0394 40.9453 33.9502 40.9159C33.8611 40.8865 33.7802 40.8434 33.7121 40.789L25.2152 34.0197C25.147 33.9654 25.0929 33.9009 25.0559 33.83C25.019 33.759 25 33.683 25 33.6061C25 33.5293 25.019 33.4533 25.0559 33.3823C25.0929 33.3113 25.147 33.2469 25.2152 33.1926L34.0314 26.1713C34.1691 26.0616 34.3559 26 34.5507 26C34.7455 26 34.9323 26.0616 35.07 26.1713C35.2077 26.281 35.2851 26.4298 35.2851 26.5849C35.2851 26.74 35.2077 26.8888 35.07 26.9985L26.7731 33.6061L34.7507 39.9619C34.8534 40.0437 34.9234 40.1479 34.9517 40.2613C34.9801 40.3748 34.9656 40.4924 34.91 40.5992C34.8544 40.7061 34.7602 40.7975 34.6394 40.8617C34.5186 40.9259 34.3766 40.9602 34.2314 40.9602Z" fill="#212327" fill-opacity="0.6"/>
<path d="M41.9462 40.9602C41.8498 40.9603 41.7542 40.9453 41.6651 40.9159C41.576 40.8865 41.495 40.8434 41.4269 40.789L32.93 34.0197C32.8618 33.9654 32.8077 33.9009 32.7708 33.83C32.7338 33.759 32.7148 33.683 32.7148 33.6061C32.7148 33.5293 32.7338 33.4533 32.7708 33.3823C32.8077 33.3113 32.8618 33.2469 32.93 33.1926L41.7462 26.1713C41.8144 26.117 41.8954 26.0739 41.9845 26.0445C42.0736 26.0151 42.1691 26 42.2656 26C42.362 26 42.4575 26.0151 42.5466 26.0445C42.6357 26.0739 42.7167 26.117 42.7849 26.1713C42.8531 26.2256 42.9071 26.2901 42.9441 26.3611C42.981 26.432 43 26.5081 43 26.5849C43 26.6617 42.981 26.7377 42.9441 26.8087C42.9071 26.8797 42.8531 26.9441 42.7849 26.9985L34.4879 33.6061L42.4655 39.9619C42.5683 40.0437 42.6382 40.1479 42.6666 40.2613C42.6949 40.3748 42.6804 40.4924 42.6248 40.5992C42.5692 40.7061 42.4751 40.7975 42.3543 40.8617C42.2335 40.9259 42.0915 40.9602 41.9462 40.9602Z" fill="#212327" fill-opacity="0.6"/>
<defs>
<filter id="filter0_d" x="0" y="0" width="68" height="68" filterUnits="userSpaceOnUse" color-interpolation-filters="sRGB">
<feFlood flood-opacity="0" result="BackgroundImageFix"/>
<feColorMatrix in="SourceAlpha" type="matrix" values="0 0 0 0 0 0 0 0 0 0 0 0 0 0 0 0 0 0 127 0" result="hardAlpha"/>
<feMorphology radius="1" operator="dilate" in="SourceAlpha" result="effect1_dropShadow"/>
<feOffset/>
<feGaussianBlur stdDeviation="4"/>
<feComposite in2="hardAlpha" operator="out"/>
<feColorMatrix type="matrix" values="0 0 0 0 0 0 0 0 0 0 0 0 0 0 0 0 0 0 0.08 0"/>
<feBlend mode="normal" in2="BackgroundImageFix" result="effect1_dropShadow"/>
<feBlend mode="normal" in="SourceGraphic" in2="effect1_dropShadow" result="shape"/>
</filter>
</defs>
</svg>
