<svg width="30" height="30" viewBox="0 0 30 30" fill="none" xmlns="http://www.w3.org/2000/svg">
<circle cx="15" cy="15" r="15" fill="#4B36D7"/>
<path d="M24.8348 8.61785L11.9942 14.3061C11.0138 14.7404 10.6353 15.9351 11.1867 16.8547C11.7405 17.7783 12.98 18.0044 13.8242 17.3359L24.8348 8.61785Z" fill="white"/>
<rect x="4.06055" y="22.2427" width="1.5" height="3" rx="0.75" transform="rotate(-135 4.06055 22.2427)" fill="white"/>
<rect x="1.5918" y="15.4016" width="1.5" height="3" rx="0.75" transform="rotate(-90 1.5918 15.4016)" fill="white"/>
<rect x="3" y="8.12134" width="1.5" height="3" rx="0.75" transform="rotate(-45 3 8.12134)" fill="white"/>
<rect x="7.70703" y="3.20337" width="1.5" height="3" rx="0.75" transform="rotate(-29 7.70703 3.20337)" fill="white"/>
<rect x="15.8418" y="4.15161" width="1.5" height="3" rx="0.75" transform="rotate(-180 15.8418 4.15161)" fill="white"/>
<rect x="21.0195" y="5.82715" width="1.5" height="3" rx="0.75" transform="rotate(-151 21.0195 5.82715)" fill="white"/>
<rect x="25.5918" y="15.4016" width="1.5" height="3" rx="0.75" transform="rotate(-90 25.5918 15.4016)" fill="white"/>
<rect x="24" y="20.1213" width="1.5" height="3" rx="0.75" transform="rotate(-45 24 20.1213)" fill="white"/>
</svg>
