<svg width="104" height="37" viewBox="0 0 104 37" fill="none" xmlns="http://www.w3.org/2000/svg">
<g opacity="0.5">
<rect x="29.1152" y="10.6768" width="4.6425" height="4.6425" fill="#C4C4C4"/>
<rect x="19.1406" y="17.8513" width="4.6425" height="4.6425" transform="rotate(42.057 19.1406 17.8513)" fill="#C4C4C4"/>
<circle cx="31.2255" cy="20.8055" r="2.11023" fill="#C4C4C4"/>
<path d="M40.8256 22.7126L38.0552 27.4437L35.3431 22.6789L40.8256 22.7126Z" fill="#C4C4C4"/>
<path d="M24.8952 22.4941L26.3572 25.0264H23.4332L24.8952 22.4941Z" fill="#C4C4C4"/>
<path d="M30.8034 32.6228L32.2654 35.1551H29.3414L30.8034 32.6228Z" fill="#C4C4C4"/>
<circle cx="24.8952" cy="17.0075" r="1.68818" fill="#C4C4C4"/>
<circle cx="30.8034" cy="27.1364" r="1.68818" fill="#C4C4C4"/>
<rect x="12.7051" y="0.994385" width="4.36941" height="4.36941" fill="#C4C4C4"/>
<rect x="3.31836" y="7.74707" width="4.36941" height="4.36941" transform="rotate(42.057 3.31836 7.74707)" fill="#C4C4C4"/>
<circle cx="14.6912" cy="10.5276" r="1.9861" fill="#C4C4C4"/>
<path d="M23.7256 12.3225L21.1182 16.7753L18.5657 12.2908L23.7256 12.3225Z" fill="#C4C4C4"/>
<path d="M8.73341 12.1167L10.1094 14.5H7.3574L8.73341 12.1167Z" fill="#C4C4C4"/>
<path d="M14.294 21.6499L15.67 24.0332H12.9179L14.294 21.6499Z" fill="#C4C4C4"/>
<circle cx="8.73341" cy="6.95265" r="1.58888" fill="#C4C4C4"/>
<circle cx="14.294" cy="16.4858" r="1.58888" fill="#C4C4C4"/>
</g>
<g opacity="0.5">
<rect x="63.1152" y="11.6768" width="4.6425" height="4.6425" fill="#22CCC2" fill-opacity="0.3"/>
<rect x="53.1406" y="18.8513" width="4.6425" height="4.6425" transform="rotate(42.057 53.1406 18.8513)" fill="#22CCC2" fill-opacity="0.3"/>
<circle cx="65.2255" cy="21.8055" r="2.11023" fill="#22CCC2" fill-opacity="0.3"/>
<path d="M74.8256 23.7126L72.0552 28.4437L69.3431 23.6789L74.8256 23.7126Z" fill="#22CCC2" fill-opacity="0.3"/>
<path d="M58.8952 23.4941L60.3572 26.0264H57.4332L58.8952 23.4941Z" fill="#22CCC2" fill-opacity="0.3"/>
<path d="M64.8034 33.6228L66.2654 36.1551H63.3414L64.8034 33.6228Z" fill="#22CCC2" fill-opacity="0.3"/>
<circle cx="58.8952" cy="18.0075" r="1.68818" fill="#22CCC2" fill-opacity="0.3"/>
<circle cx="64.8034" cy="28.1364" r="1.68818" fill="#22CCC2" fill-opacity="0.3"/>
<rect x="46.7051" y="1.99438" width="4.36941" height="4.36941" fill="#22CCC2" fill-opacity="0.3"/>
<rect x="37.3184" y="8.74707" width="4.36941" height="4.36941" transform="rotate(42.057 37.3184 8.74707)" fill="#22CCC2" fill-opacity="0.3"/>
<circle cx="48.6912" cy="11.5276" r="1.9861" fill="#22CCC2" fill-opacity="0.3"/>
<path d="M57.7256 13.3225L55.1182 17.7753L52.5657 13.2908L57.7256 13.3225Z" fill="#22CCC2" fill-opacity="0.3"/>
<path d="M42.7334 13.1167L44.1094 15.5H41.3574L42.7334 13.1167Z" fill="#22CCC2" fill-opacity="0.3"/>
<path d="M48.294 22.6499L49.67 25.0332H46.9179L48.294 22.6499Z" fill="#22CCC2" fill-opacity="0.3"/>
<circle cx="42.7334" cy="7.95265" r="1.58888" fill="#22CCC2" fill-opacity="0.3"/>
<circle cx="48.294" cy="17.4858" r="1.58888" fill="#22CCC2" fill-opacity="0.3"/>
</g>
<g opacity="0.5">
<rect x="90.1152" y="11.6768" width="4.6425" height="4.6425" fill="#EBA05B"/>
<rect x="80.1406" y="18.8513" width="4.6425" height="4.6425" transform="rotate(42.057 80.1406 18.8513)" fill="#EBA05B"/>
<circle cx="92.2255" cy="21.8055" r="2.11023" fill="#EBA05B"/>
<path d="M101.826 23.7126L99.0552 28.4437L96.3431 23.6789L101.826 23.7126Z" fill="#EBA05B"/>
<path d="M85.8952 23.4941L87.3572 26.0264H84.4332L85.8952 23.4941Z" fill="#EBA05B"/>
<path d="M91.8034 33.6228L93.2654 36.1551H90.3414L91.8034 33.6228Z" fill="#EBA05B"/>
<circle cx="85.8952" cy="18.0075" r="1.68818" fill="#EBA05B"/>
<circle cx="91.8034" cy="28.1364" r="1.68818" fill="#EBA05B"/>
<rect x="73.7051" y="1.99438" width="4.36941" height="4.36941" fill="#EBA05B"/>
<rect x="64.3184" y="8.74707" width="4.36941" height="4.36941" transform="rotate(42.057 64.3184 8.74707)" fill="#EBA05B"/>
<circle cx="75.6912" cy="11.5276" r="1.9861" fill="#EBA05B"/>
<path d="M84.7256 13.3225L82.1182 17.7753L79.5657 13.2908L84.7256 13.3225Z" fill="#EBA05B"/>
<path d="M69.7334 13.1167L71.1094 15.5H68.3574L69.7334 13.1167Z" fill="#EBA05B"/>
<path d="M75.294 22.6499L76.67 25.0332H73.9179L75.294 22.6499Z" fill="#EBA05B"/>
<circle cx="69.7334" cy="7.95265" r="1.58888" fill="#EBA05B"/>
<circle cx="75.294" cy="17.4858" r="1.58888" fill="#EBA05B"/>
</g>
</svg>
