<svg width="30" height="30" viewBox="0 0 30 30" fill="none" xmlns="http://www.w3.org/2000/svg">
<path fill-rule="evenodd" clip-rule="evenodd" d="M21.1532 24.5454V22.2727C21.1532 21.645 20.6286 21.1363 19.9813 21.1363C19.334 21.1363 18.8094 21.645 18.8094 22.2727V24.5454C18.8094 25.7985 17.7579 26.8181 16.4655 26.8181H4.6877C3.39538 26.8181 2.34385 25.7985 2.34385 24.5454V4.54545C2.34385 3.29234 3.39538 2.27272 4.6877 2.27272H16.4655C17.7579 2.27272 18.8094 3.29234 18.8094 4.54545V6.81817C18.8094 7.44583 19.334 7.95453 19.9813 7.95453C20.6286 7.95453 21.1532 7.44583 21.1532 6.81817V4.54545C21.1532 2.03901 19.0504 0 16.4655 0H4.6877C2.10283 0 0 2.03901 0 4.54545V24.5454C0 27.0518 2.10283 29.0909 4.6877 29.0909H16.4655C19.0504 29.0909 21.1532 27.0518 21.1532 24.5454ZM26.519 10.0488L29.1432 12.5935C30.2856 13.7012 30.2856 15.5034 29.1432 16.6111L26.519 19.1557C26.2901 19.3777 25.9903 19.4886 25.6902 19.4886C25.3903 19.4886 25.0905 19.3777 24.8616 19.1557C24.4038 18.712 24.4038 17.9925 24.8616 17.5488L26.7282 15.7386H12.6569C12.0096 15.7386 11.4849 15.2299 11.4849 14.6023C11.4849 13.9746 12.0096 13.4659 12.6569 13.4659H26.7282L24.8616 11.6557C24.4038 11.2121 24.4038 10.4925 24.8616 10.0488C25.3191 9.60495 26.0612 9.60495 26.519 10.0488Z" fill="#8C87AF"/>
</svg>
