<svg width="30" height="31" viewBox="0 0 30 31" fill="none" xmlns="http://www.w3.org/2000/svg">
<ellipse cx="15" cy="16.3658" rx="15" ry="14.6341" fill="#6F7E90"/>
<path d="M5.45312 7.05274C7.10755 5.43867 9.16355 4.27179 11.4195 3.66655C13.6755 3.0613 16.054 3.03846 18.3217 3.60026C20.5894 4.16207 22.6686 5.28924 24.3553 6.87123C26.0419 8.45322 27.2782 10.4357 27.9429 12.6243C28.6075 14.8129 28.6778 17.1325 28.1467 19.3555C27.6156 21.5786 26.5014 23.6288 24.9133 25.3052C23.3253 26.9815 21.318 28.2265 19.0882 28.9179C16.8584 29.6093 14.4827 29.7234 12.194 29.2491M5.45312 7.05274L5.99907 1M5.45312 7.05274L12.194 7.58537" stroke="#E2E2EC"/>
<path d="M15.606 29.5233C12.1339 29.6754 8.73551 28.5152 6.11816 26.2843C3.50081 24.0533 1.86623 20.9235 1.55469 17.5464" stroke="#E2E2EC" stroke-width="0.5" stroke-dasharray="1 1"/>
<path d="M19.6406 19.5327C19.6406 20.2263 19.5078 20.8436 19.2422 21.3848C18.9844 21.926 18.6211 22.3871 18.1523 22.7682C17.6914 23.1417 17.1445 23.4237 16.5117 23.6142C15.8867 23.8048 15.2109 23.9 14.4844 23.9C13.9766 23.9 13.5039 23.8581 13.0664 23.7743C12.6367 23.6904 12.25 23.5875 11.9062 23.4656C11.5703 23.3436 11.2852 23.2179 11.0508 23.0883C10.8242 22.9587 10.6641 22.8482 10.5703 22.7568C10.4844 22.6653 10.418 22.551 10.3711 22.4138C10.332 22.2689 10.3125 22.0784 10.3125 21.8421C10.3125 21.6744 10.3203 21.5372 10.3359 21.4305C10.3516 21.3162 10.375 21.2247 10.4062 21.1561C10.4375 21.0875 10.4766 21.0418 10.5234 21.0189C10.5703 20.9885 10.625 20.9732 10.6875 20.9732C10.7969 20.9732 10.9492 21.038 11.1445 21.1676C11.3477 21.2971 11.6055 21.4382 11.918 21.5906C12.2305 21.743 12.6055 21.8879 13.043 22.025C13.4883 22.1546 14 22.2194 14.5781 22.2194C15.0156 22.2194 15.4141 22.1622 15.7734 22.0479C16.1406 21.9336 16.4531 21.7735 16.7109 21.5677C16.9766 21.3543 17.1797 21.0952 17.3203 20.7903C17.4609 20.4854 17.5312 20.1386 17.5312 19.7499C17.5312 19.3307 17.4336 18.9725 17.2383 18.6752C17.043 18.3779 16.7852 18.1188 16.4648 17.8978C16.1445 17.6691 15.7773 17.4633 15.3633 17.2804C14.957 17.0898 14.5391 16.8993 14.1094 16.7087C13.6797 16.5106 13.2617 16.2933 12.8555 16.0571C12.4492 15.8208 12.0859 15.5426 11.7656 15.2225C11.4453 14.9023 11.1836 14.5289 10.9805 14.102C10.7852 13.6676 10.6875 13.1493 10.6875 12.5471C10.6875 11.9298 10.8008 11.381 11.0273 10.9008C11.2617 10.413 11.582 10.0052 11.9883 9.67748C12.4023 9.34974 12.8906 9.10203 13.4531 8.93434C14.0234 8.75904 14.6367 8.67139 15.293 8.67139C15.6289 8.67139 15.9648 8.70187 16.3008 8.76285C16.6445 8.8162 16.9648 8.89242 17.2617 8.99151C17.5664 9.08297 17.8359 9.18968 18.0703 9.31163C18.3047 9.42596 18.457 9.52123 18.5273 9.59745C18.6055 9.66605 18.6562 9.72322 18.6797 9.76895C18.7031 9.80706 18.7227 9.86041 18.7383 9.92901C18.7539 9.98998 18.7656 10.0662 18.7734 10.1577C18.7812 10.2491 18.7852 10.3673 18.7852 10.5121C18.7852 10.6493 18.7773 10.7712 18.7617 10.8779C18.7539 10.9846 18.7383 11.0761 18.7148 11.1523C18.6914 11.2209 18.6562 11.2743 18.6094 11.3124C18.5703 11.3429 18.5234 11.3581 18.4688 11.3581C18.3828 11.3581 18.2461 11.3048 18.0586 11.1981C17.8789 11.0914 17.6562 10.9732 17.3906 10.8436C17.125 10.7064 16.8086 10.5845 16.4414 10.4778C16.082 10.3635 15.6758 10.3063 15.2227 10.3063C14.8008 10.3063 14.4336 10.3635 14.1211 10.4778C13.8086 10.5845 13.5508 10.7293 13.3477 10.9122C13.1445 11.0952 12.9922 11.3124 12.8906 11.5639C12.7891 11.8154 12.7383 12.0822 12.7383 12.3642C12.7383 12.7758 12.8359 13.1302 13.0312 13.4275C13.2266 13.7247 13.4844 13.9877 13.8047 14.2164C14.1328 14.445 14.5039 14.6546 14.918 14.8452C15.332 15.0357 15.7539 15.2301 16.1836 15.4282C16.6133 15.6188 17.0352 15.8322 17.4492 16.0685C17.8633 16.2971 18.2305 16.5715 18.5508 16.8917C18.8789 17.2042 19.1406 17.5776 19.3359 18.0121C19.5391 18.4389 19.6406 18.9458 19.6406 19.5327Z" fill="#E2E2EC"/>
<path d="M14.25 9.04888V6.85376H15.75V9.04888H14.25Z" fill="#E2E2EC"/>
<path d="M14.25 25.1464V22.9513H15.75V25.1464H14.25Z" fill="#E2E2EC"/>
</svg>
