<svg width="30" height="30" viewBox="0 0 30 30" fill="none" xmlns="http://www.w3.org/2000/svg">
<path fill-rule="evenodd" clip-rule="evenodd" d="M25.4035 10.7733C25.5294 10.9444 25.7309 11.0498 25.9463 11.0506H26.157C28.2794 11.0506 30 12.7548 30 14.857C30 16.9591 28.2794 18.6633 26.157 18.6633L26.0509 18.6633C25.7791 18.6644 25.534 18.8252 25.4269 19.0726L25.4211 19.0858C25.3086 19.3384 25.3626 19.6334 25.5469 19.8202L25.6207 19.8933C26.3423 20.6072 26.7478 21.576 26.7478 22.5863C26.7478 23.5965 26.3423 24.5653 25.6218 25.2782C24.901 25.9929 23.9229 26.3945 22.9029 26.3945C21.8829 26.3945 20.9048 25.9929 20.1845 25.2787L20.1208 25.2155C19.9216 25.0225 19.6238 24.969 19.3554 25.0862C19.1056 25.1923 18.9432 25.4351 18.9421 25.6989V25.9076C18.9421 28.0098 17.2216 29.7139 15.0992 29.7139C12.9768 29.7139 11.2562 28.0098 11.2562 25.9076L11.2566 25.8287C11.25 25.5515 11.073 25.3064 10.7304 25.1787C10.4754 25.0672 10.1776 25.1207 9.98903 25.3033L9.91519 25.3764C9.19437 26.0912 8.21624 26.4928 7.19628 26.4928C6.17632 26.4928 5.1982 26.0912 4.47845 25.3775C3.75683 24.6635 3.35136 23.6947 3.35136 22.6845C3.35136 21.6743 3.75683 20.7055 4.47791 19.9921L4.54172 19.929C4.73662 19.7316 4.79062 19.4366 4.67225 19.1708C4.56519 18.9234 4.32003 18.7626 4.05372 18.7615H3.84298C1.72056 18.7615 0 17.0574 0 14.9552C0 12.853 1.72056 11.1489 3.84298 11.1489L3.92266 11.1492C4.20255 11.1427 4.44999 10.9675 4.57891 10.6281C4.69145 10.3755 4.63745 10.0805 4.45312 9.89378L4.37928 9.82064C3.65765 9.10669 3.25218 8.13789 3.25218 7.12766C3.25218 6.11742 3.65765 5.14863 4.3782 4.43574C5.09902 3.721 6.07715 3.3194 7.09711 3.3194C8.11707 3.3194 9.09519 3.721 9.81548 4.43521L9.87916 4.49841C10.0784 4.69145 10.3762 4.74494 10.6312 4.63347C10.7106 4.59878 10.7929 4.57176 10.877 4.55265C11.0498 4.42801 11.1562 4.22839 11.157 4.01506V3.80633C11.157 1.70415 12.8776 0 15 0C17.1224 0 18.843 1.70415 18.843 3.80633L18.843 3.91145C18.844 4.18061 19.0064 4.42343 19.2696 4.53524C19.5246 4.64671 19.8224 4.59322 20.011 4.41066L20.0848 4.33752C20.8056 3.62277 21.7838 3.22117 22.8037 3.22117C23.8237 3.22117 24.8018 3.62277 25.5216 4.33645C26.2432 5.0504 26.6486 6.0192 26.6486 7.02943C26.6486 8.03967 26.2432 9.00846 25.5221 9.72188L25.4583 9.78496C25.2634 9.98231 25.2094 10.2773 25.3219 10.5299C25.357 10.6085 25.3842 10.69 25.4035 10.7733ZM26.0454 15.9619H26.157C26.7732 15.9619 27.2727 15.4672 27.2727 14.8569C27.2727 14.2466 26.7732 13.7518 26.157 13.7518L25.9408 13.7518C24.5821 13.7464 23.3563 12.9424 22.821 11.7054C22.7733 11.5952 22.7408 11.4796 22.724 11.3614C22.3039 10.1602 22.6008 8.81525 23.5192 7.88537L23.5941 7.81117C23.8036 7.6039 23.9214 7.32263 23.9214 7.02934C23.9214 6.73604 23.8036 6.45478 23.5931 6.24644C23.3838 6.03894 23.0998 5.92234 22.8037 5.92234C22.5076 5.92234 22.2236 6.03894 22.0138 6.24697L21.9287 6.33112C20.9325 7.29634 19.4434 7.56377 18.1818 7.01221C16.9329 6.48205 16.1211 5.26794 16.1157 3.91674V3.80624C16.1157 3.19593 15.6162 2.70117 15 2.70117C14.3838 2.70117 13.8843 3.19593 13.8843 3.80624L13.8843 4.02036C13.8788 5.36617 13.0671 6.58028 11.8181 7.11044C11.7069 7.15765 11.5902 7.18988 11.4709 7.20649C10.2581 7.62257 8.90019 7.32857 7.96136 6.41887L7.88644 6.34467C7.67717 6.13717 7.3932 6.02057 7.09708 6.02057C6.80097 6.02057 6.51699 6.13717 6.30665 6.34573C6.09715 6.55301 5.97943 6.83427 5.97943 7.12757C5.97943 7.42086 6.09715 7.70212 6.30719 7.90993L6.39214 7.99419C7.36666 8.98095 7.63666 10.4558 7.10625 11.6395C6.62305 12.9408 5.38585 13.8172 3.95452 13.85H3.84295C3.22677 13.85 2.72725 14.3448 2.72725 14.9551C2.72725 15.5654 3.22677 16.0602 3.84295 16.0602L4.05913 16.0602C5.4179 16.0655 6.6437 16.8696 7.17314 18.0933C7.73584 19.3561 7.46583 20.831 6.48074 21.8284L6.40583 21.9026C6.19632 22.1098 6.0786 22.3911 6.0786 22.6844C6.0786 22.9777 6.19632 23.259 6.4069 23.4673C6.61617 23.6748 6.90014 23.7914 7.19626 23.7914C7.49238 23.7914 7.77635 23.6748 7.98615 23.4668L8.07123 23.3826C9.06748 22.4174 10.5566 22.15 11.7517 22.6753C13.0655 23.1539 13.9503 24.3793 13.9834 25.797V25.9075C13.9834 26.5178 14.483 27.0126 15.0992 27.0126C15.7153 27.0126 16.2149 26.5178 16.2149 25.9075L16.2149 25.6934C16.2203 24.3476 17.0321 23.1335 18.2676 22.6091C19.5425 22.0517 21.0316 22.3192 22.0386 23.2949L22.1135 23.3691C22.3228 23.5766 22.6068 23.6932 22.9029 23.6932C23.199 23.6932 23.483 23.5766 23.6933 23.368C23.9028 23.1607 24.0205 22.8795 24.0205 22.5862C24.0205 22.2929 23.9028 22.0116 23.6928 21.8038L23.6078 21.7196C22.635 20.7345 22.3642 19.2631 22.923 18.0017C23.4598 16.7685 24.6837 15.9673 26.0454 15.9619ZM12.2811 14.857C12.2811 13.3839 13.4894 12.1734 15.0001 12.1734C16.5108 12.1734 17.7191 13.3839 17.7191 14.857C17.7191 16.33 16.5108 17.5405 15.0001 17.5405C13.4894 17.5405 12.2811 16.33 12.2811 14.857ZM15.0001 10.1734C12.4029 10.1734 10.2811 12.2613 10.2811 14.857C10.2811 17.4526 12.4029 19.5405 15.0001 19.5405C17.5972 19.5405 19.7191 17.4526 19.7191 14.857C19.7191 12.2613 17.5972 10.1734 15.0001 10.1734Z" fill="#565656"/>
</svg>
