<svg width="167" height="157" viewBox="0 0 167 157" fill="none" xmlns="http://www.w3.org/2000/svg">
<g opacity="0.5">
<rect x="92.6489" y="60.6365" width="11.0532" height="11.0532" transform="rotate(38.5328 92.6489 60.6365)" fill="#C4C4C4"/>
<rect x="63.4326" y="59.2065" width="11.0532" height="11.0532" transform="rotate(80.5898 63.4326 59.2065)" fill="#C4C4C4"/>
<circle cx="81.5557" cy="82.6306" r="5.02418" transform="rotate(38.5328 81.5557 82.6306)" fill="#C4C4C4"/>
<path d="M96.6095 100.423L84.4327 105.125L86.4487 92.2284L96.6095 100.423Z" fill="#C4C4C4"/>
<path d="M67.2628 76.3874L66.2298 83.2721L60.784 78.9352L67.2628 76.3874Z" fill="#C4C4C4"/>
<path d="M63.2423 104.013L62.2093 110.898L56.7635 106.561L63.2423 104.013Z" fill="#C4C4C4"/>
<circle cx="75.401" cy="66.1688" r="4.01934" transform="rotate(38.5328 75.401 66.1688)" fill="#C4C4C4"/>
<circle cx="71.38" cy="93.7955" r="4.01934" transform="rotate(38.5328 71.38 93.7955)" fill="#C4C4C4"/>
<rect x="76.4463" y="18.2642" width="10.403" height="10.403" transform="rotate(38.5328 76.4463 18.2642)" fill="#C4C4C4"/>
<rect x="48.9478" y="16.9177" width="10.403" height="10.403" transform="rotate(80.5898 48.9478 16.9177)" fill="#C4C4C4"/>
<circle cx="66.0061" cy="38.9651" r="4.72864" transform="rotate(38.5328 66.0061 38.9651)" fill="#C4C4C4"/>
<path d="M80.1716 55.7095L68.7111 60.1352L70.6085 47.9973L80.1716 55.7095Z" fill="#C4C4C4"/>
<path d="M52.5529 33.0881L51.5808 39.5677L46.4553 35.486L52.5529 33.0881Z" fill="#C4C4C4"/>
<path d="M48.7697 59.0905L47.7976 65.5702L42.6721 61.4884L48.7697 59.0905Z" fill="#C4C4C4"/>
<circle cx="60.2124" cy="23.4703" r="3.78291" transform="rotate(38.5328 60.2124 23.4703)" fill="#C4C4C4"/>
<circle cx="56.4287" cy="49.473" r="3.78291" transform="rotate(38.5328 56.4287 49.473)" fill="#C4C4C4"/>
</g>
<g opacity="0.5">
<rect x="126.823" y="89.5352" width="11.0532" height="11.0532" transform="rotate(38.5328 126.823 89.5352)" fill="#22CCC2" fill-opacity="0.3"/>
<rect x="97.6064" y="88.105" width="11.0532" height="11.0532" transform="rotate(80.5898 97.6064 88.105)" fill="#22CCC2" fill-opacity="0.3"/>
<circle cx="115.729" cy="111.529" r="5.0242" transform="rotate(38.5328 115.729 111.529)" fill="#22CCC2" fill-opacity="0.3"/>
<path d="M130.783 129.321L118.606 134.024L120.623 121.127L130.783 129.321Z" fill="#22CCC2" fill-opacity="0.3"/>
<path d="M101.437 105.286L100.404 112.171L94.9579 107.834L101.437 105.286Z" fill="#22CCC2" fill-opacity="0.3"/>
<path d="M97.4161 132.912L96.3832 139.797L90.9373 135.46L97.4161 132.912Z" fill="#22CCC2" fill-opacity="0.3"/>
<circle cx="109.575" cy="95.0675" r="4.01936" transform="rotate(38.5328 109.575 95.0675)" fill="#22CCC2" fill-opacity="0.3"/>
<circle cx="105.554" cy="122.694" r="4.01936" transform="rotate(38.5328 105.554 122.694)" fill="#22CCC2" fill-opacity="0.3"/>
<rect x="110.621" y="47.1624" width="10.403" height="10.403" transform="rotate(38.5328 110.621 47.1624)" fill="#22CCC2" fill-opacity="0.3"/>
<rect x="83.1226" y="45.8159" width="10.403" height="10.403" transform="rotate(80.5898 83.1226 45.8159)" fill="#22CCC2" fill-opacity="0.3"/>
<circle cx="100.181" cy="67.8635" r="4.72866" transform="rotate(38.5328 100.181 67.8635)" fill="#22CCC2" fill-opacity="0.3"/>
<path d="M114.346 84.608L102.886 89.0337L104.783 76.8957L114.346 84.608Z" fill="#22CCC2" fill-opacity="0.3"/>
<path d="M86.7278 61.9863L85.7556 68.466L80.6301 64.3842L86.7278 61.9863Z" fill="#22CCC2" fill-opacity="0.3"/>
<path d="M82.9446 87.9889L81.9724 94.4686L76.8469 90.3869L82.9446 87.9889Z" fill="#22CCC2" fill-opacity="0.3"/>
<circle cx="94.3872" cy="52.3686" r="3.78293" transform="rotate(38.5328 94.3872 52.3686)" fill="#22CCC2" fill-opacity="0.3"/>
<circle cx="90.6036" cy="78.3715" r="3.78293" transform="rotate(38.5328 90.6036 78.3715)" fill="#22CCC2" fill-opacity="0.3"/>
</g>
</svg>
