<svg width="26" height="26" viewBox="0 0 26 26" fill="none" xmlns="http://www.w3.org/2000/svg">
<path d="M11.7 6.58125H14.2188V11.7812H19.4187V14.3H14.2188V19.5H11.7V14.3H6.5V11.7812H11.7V6.58125ZM13 2.03125C6.90625 2.03125 2.03125 6.90625 2.03125 13C2.03125 19.0938 6.9875 23.9688 13 23.9688C19.0938 23.9688 23.9688 19.0125 23.9688 13C23.9688 6.90625 19.0938 2.03125 13 2.03125ZM13 0C20.15 0 26 5.85 26 13C26 20.15 20.15 26 13 26C5.84999 26 0 20.15 0 13C0 5.85 5.84999 0 13 0Z" fill="#364F6B"/>
</svg>
