<svg width="95" height="16" viewBox="0 0 95 16" fill="none" xmlns="http://www.w3.org/2000/svg">
<ellipse cx="4.83959" cy="4.12793" rx="4.40698" ry="4" fill="#FC6681"/>
<ellipse cx="15.8572" cy="4.12793" rx="4.40698" ry="4" fill="#FC6681"/>
<ellipse cx="26.8743" cy="4.12793" rx="4.40698" ry="4" fill="#FC6681"/>
<ellipse cx="37.8923" cy="4.12793" rx="4.40698" ry="4" fill="#FC6681"/>
<ellipse cx="48.9099" cy="4.12793" rx="4.40698" ry="4" fill="#FC6681"/>
<ellipse cx="59.9265" cy="4.12793" rx="4.40698" ry="4" fill="#FC6681"/>
<ellipse cx="70.9446" cy="4.12793" rx="4.40698" ry="4" fill="#FC6681"/>
<ellipse cx="81.9617" cy="4.12793" rx="4.40698" ry="4" fill="#FC6681"/>
<ellipse cx="14.2046" cy="12.6279" rx="2.75436" ry="2.5" fill="#FC6681"/>
<ellipse cx="25.2216" cy="12.6279" rx="2.75436" ry="2.5" fill="#FC6681"/>
<ellipse cx="36.2397" cy="12.6279" rx="2.75436" ry="2.5" fill="#FC6681"/>
<ellipse cx="47.2573" cy="12.6279" rx="2.75436" ry="2.5" fill="#FC6681"/>
<ellipse cx="58.2739" cy="12.6279" rx="2.75436" ry="2.5" fill="#FC6681"/>
<ellipse cx="69.292" cy="12.6279" rx="2.75436" ry="2.5" fill="#FC6681"/>
<ellipse cx="80.3091" cy="12.6279" rx="2.75436" ry="2.5" fill="#FC6681"/>
<ellipse cx="91.3266" cy="12.6279" rx="2.75436" ry="2.5" fill="#FC6681"/>
</svg>
