<svg width="84" height="77" viewBox="0 0 84 77" fill="none" xmlns="http://www.w3.org/2000/svg">
<path opacity="0.3" fill-rule="evenodd" clip-rule="evenodd" d="M0 48.8193L19.7882 28.5471C20.5631 27.7533 21.6255 27.3057 22.7348 27.3057H61.2652C62.3745 27.3057 63.4369 27.7533 64.2118 28.5471L84 48.8193V69.5368C84 73.1753 81.0503 76.125 77.4118 76.125H6.58823C2.94965 76.125 0 73.1753 0 69.5368V48.8193ZM6.17647 47.1644L22.2353 30.6155H61.7647L77.8235 47.1644H57.2353V50.5094C57.2353 54.6028 53.9169 57.9212 49.8235 57.9212H34.1765C30.0831 57.9212 26.7647 54.6028 26.7647 50.5094V47.1644H6.17647ZM3.28125 50.5312H23.625C23.625 56.2578 28.2672 60.9 33.9938 60.9H50.0062C55.7327 60.9 60.375 56.2578 60.375 50.5312H80.7188V68.9062C80.7188 71.0809 78.9559 72.8438 76.7812 72.8438H7.21875C5.04413 72.8438 3.28125 71.0809 3.28125 68.9062V50.5312ZM43.6471 19.0312C43.6471 19.9452 42.9096 20.6861 42 20.6861C41.0904 20.6861 40.3529 19.9452 40.3529 19.0312V1.65489C40.3529 0.740921 41.0904 0 42 0C42.9096 0 43.6471 0.740921 43.6471 1.65489V19.0312ZM54.2972 20.5228C54.0618 21.4056 53.1587 21.9295 52.28 21.693C51.4014 21.4564 50.8799 20.549 51.1154 19.6662L55.5914 2.88188C55.8268 1.99905 56.73 1.47514 57.6086 1.71169C58.4873 1.94824 59.0087 2.85568 58.7733 3.73851L54.2972 20.5228ZM33.2439 19.6662C33.4793 20.549 32.9579 21.4564 32.0792 21.693C31.2006 21.9295 30.2974 21.4056 30.062 20.5228L25.5859 3.73851C25.3505 2.85568 25.8719 1.94824 26.7506 1.71169C27.6292 1.47514 28.5324 1.99905 28.7678 2.88188L33.2439 19.6662Z" fill="#212327"/>
</svg>
