<svg width="30" height="30" viewBox="0 0 30 30" fill="none" xmlns="http://www.w3.org/2000/svg">
<circle cx="15" cy="15" r="15" fill="#6F7E90"/>
<path d="M24.8338 8.61788L11.9932 14.3061C11.0128 14.7404 10.6343 15.9352 11.1857 16.8548C11.7395 17.7783 12.979 18.0044 13.8233 17.336L24.8338 8.61788Z" fill="#E2E2EC"/>
<rect x="4.06055" y="22.2426" width="1.5" height="3" rx="0.75" transform="rotate(-135 4.06055 22.2426)" fill="#E2E2EC"/>
<rect x="1.59082" y="15.4017" width="1.5" height="3" rx="0.75" transform="rotate(-90 1.59082 15.4017)" fill="#E2E2EC"/>
<rect x="3" y="8.12134" width="1.5" height="3" rx="0.75" transform="rotate(-45 3 8.12134)" fill="#E2E2EC"/>
<rect x="7.70801" y="3.20331" width="1.5" height="3" rx="0.75" transform="rotate(-29 7.70801 3.20331)" fill="#E2E2EC"/>
<rect x="15.8408" y="4.15167" width="1.5" height="3" rx="0.75" transform="rotate(-180 15.8408 4.15167)" fill="#E2E2EC"/>
<rect x="21.0195" y="5.82721" width="1.5" height="3" rx="0.75" transform="rotate(-151 21.0195 5.82721)" fill="#E2E2EC"/>
<rect x="25.5908" y="15.4017" width="1.5" height="3" rx="0.75" transform="rotate(-90 25.5908 15.4017)" fill="#E2E2EC"/>
<rect x="24" y="20.1213" width="1.5" height="3" rx="0.75" transform="rotate(-45 24 20.1213)" fill="#E2E2EC"/>
</svg>
