<svg width="15" height="15" viewBox="0 0 15 15" fill="none" xmlns="http://www.w3.org/2000/svg">
<g opacity="0.6">
<path d="M5.23642 0.937504C2.86594 0.937504 0.9375 2.86501 0.9375 5.23409C0.9375 7.60314 2.86594 9.53065 5.23642 9.53065C7.60689 9.53065 9.53488 7.60314 9.53488 5.23409C9.53488 2.86501 7.60689 0.937504 5.23642 0.937504ZM5.23642 0C8.12348 0 10.4724 2.34797 10.4724 5.23409C10.4724 6.45167 10.0543 7.57346 9.35417 8.46359L9.34809 8.47114L15 14.3508L14.3245 15.0005L8.70332 9.15277L8.66106 9.19027C7.74232 9.98607 6.54462 10.4682 5.23642 10.4682C2.34936 10.4682 7.57907e-08 8.12019 0 5.23409C7.57907e-08 2.34797 2.34936 0 5.23642 0Z" fill="black"/>
</g>
</svg>
