<svg width="108" height="84" viewBox="0 0 108 84" fill="none" xmlns="http://www.w3.org/2000/svg">
<g opacity="0.5">
<rect x="76.2197" y="23.0525" width="11.0532" height="11.0532" fill="#EBA05B"/>
<rect x="52.4746" y="40.134" width="11.0532" height="11.0532" transform="rotate(42.057 52.4746 40.134)" fill="#EBA05B"/>
<circle cx="81.2439" cy="47.168" r="5.02418" fill="#EBA05B"/>
<path d="M104.102 51.7081L97.5066 62.9722L91.0495 51.6279L104.102 51.7081Z" fill="#EBA05B"/>
<path d="M66.1732 51.1885L69.654 57.2175H62.6923L66.1732 51.1885Z" fill="#EBA05B"/>
<path d="M80.2391 75.3032L83.7199 81.3322H76.7582L80.2391 75.3032Z" fill="#EBA05B"/>
<circle cx="66.1731" cy="38.1253" r="4.01934" fill="#EBA05B"/>
<circle cx="80.2391" cy="62.241" r="4.01934" fill="#EBA05B"/>
<rect x="29.3213" width="10.403" height="10.403" fill="#EBA05B"/>
<rect x="6.97119" y="16.0774" width="10.403" height="10.403" transform="rotate(42.057 6.97119 16.0774)" fill="#EBA05B"/>
<circle cx="34.0499" cy="22.6974" r="4.72864" fill="#EBA05B"/>
<path d="M55.5619 26.9707L49.354 37.5723L43.2768 26.8953L55.5619 26.9707Z" fill="#EBA05B"/>
<path d="M19.8645 26.4807L23.1406 32.1551H16.5884L19.8645 26.4807Z" fill="#EBA05B"/>
<path d="M33.1042 49.1782L36.3803 54.8526H29.8281L33.1042 49.1782Z" fill="#EBA05B"/>
<circle cx="19.8645" cy="14.1857" r="3.78291" fill="#EBA05B"/>
<circle cx="33.1042" cy="36.8833" r="3.78291" fill="#EBA05B"/>
</g>
</svg>
