<svg width="30" height="21" viewBox="0 0 30 21" fill="none" xmlns="http://www.w3.org/2000/svg">
<path d="M5.70735 10.1027C7.13923 10.1027 8.67641 8.2003 8.67641 6.24596C8.67641 4.29128 7.34748 3.02505 5.70735 3.02505C4.06789 3.02505 2.73828 4.29128 2.73828 6.24596C2.73862 8.2003 4.22885 10.1027 5.70735 10.1027Z" fill="#8C87AF"/>
<path d="M24.2933 10.1027C25.7252 10.1027 27.2624 8.2003 27.2624 6.24596C27.2624 4.29128 25.9331 3.02505 24.2933 3.02505C22.6535 3.02505 21.3242 4.29128 21.3242 6.24596C21.3242 8.2003 22.8148 10.1027 24.2933 10.1027Z" fill="#8C87AF"/>
<path d="M15.0509 10.8538C17.2463 10.8538 19.6038 7.93606 19.6038 4.93917C19.6038 1.94193 17.5656 0 15.0509 0C12.5366 0 10.498 1.94193 10.498 4.93917C10.498 7.93606 12.7837 10.8538 15.0509 10.8538Z" fill="#8C87AF"/>
<path d="M23.1941 15.9566C22.6438 14.8658 22.2428 14.3162 21.4956 13.5395C20.8498 12.8682 18.9223 11.9222 17.6782 12.3384C16.6859 12.5557 16.639 13.1271 15.0495 13.1271C13.46 13.1271 13.4127 12.5557 12.4201 12.3384C11.176 11.9222 9.24882 12.8682 8.60263 13.5395C7.85517 14.3162 7.45444 14.8661 6.90449 15.9566C6.62851 16.5036 6.05341 18.0988 6.4102 18.7852C6.86157 19.6537 7.96046 20.0132 10.9808 20.3824C12.79 20.6037 15.0495 20.6037 15.0495 20.6037C15.0495 20.6037 17.3083 20.6037 19.1178 20.3824C22.1381 20.0132 23.2364 19.6537 23.6884 18.7852C24.0455 18.0988 23.4701 16.5036 23.1941 15.9566Z" fill="#8C87AF"/>
<path d="M29.6026 13.4302C29.2445 12.7186 28.9826 12.3608 28.4954 11.8538C28.0742 11.4158 26.8173 10.7991 26.0062 11.0704C25.3583 11.2123 25.3285 11.5848 24.2919 11.5848C23.2554 11.5848 23.2249 11.2123 22.5777 11.0704C21.9255 10.8525 20.9865 11.2082 20.4238 11.5835C21.1978 11.9024 21.8856 12.345 22.295 12.7706C23.1454 13.6545 23.6045 14.3074 24.185 15.4576C24.2973 15.6806 24.4489 16.0411 24.5847 16.4579C25.0723 16.4502 26.085 16.4217 26.9444 16.3164C28.9142 16.0757 29.6308 15.8413 29.9252 15.2749C30.158 14.8272 29.7831 13.7866 29.6026 13.4302Z" fill="#8C87AF"/>
<path d="M5.91499 15.4573C6.49512 14.3068 6.9542 13.6542 7.80461 12.7702C8.20299 12.3564 8.86494 11.9262 9.61341 11.6096C9.05608 11.225 8.08864 10.8478 7.42132 11.0708C6.77412 11.2126 6.7436 11.5852 5.70742 11.5852C4.67056 11.5852 4.64004 11.2126 3.99318 11.0708C3.18166 10.7995 1.92516 11.4162 1.50364 11.8541C1.0164 12.3608 0.755173 12.7189 0.396028 13.4305C0.216288 13.787 -0.158618 14.8275 0.0737698 15.2749C0.368195 15.8416 1.08447 16.0757 3.0539 16.3164C3.97541 16.4291 5.07229 16.4539 5.51024 16.4593C5.69501 15.9016 5.8952 15.4969 5.91499 15.4573Z" fill="#8C87AF"/>
</svg>
