<svg width="40" height="31" viewBox="0 0 40 31" fill="none" xmlns="http://www.w3.org/2000/svg">
<path d="M27.9858 0.12793C30.2868 0.127929 32.366 1.05131 33.826 2.53044C35.6481 2.18943 37.3616 1.55652 38.907 0.683648C38.3098 2.46168 37.0411 3.95202 35.3885 4.89365C37.007 4.70984 38.5499 4.30145 39.9844 3.69521C38.9119 5.22205 37.5554 6.56226 35.9917 7.63438C36.0076 7.96137 36.0149 8.28976 36.0149 8.61957C36.0149 18.6745 27.9663 30.2703 13.2499 30.2703C8.73075 30.2703 4.52606 29.0101 0.984375 26.8504C1.61081 26.9205 2.24822 26.957 2.89294 26.957C6.64181 26.957 10.0921 25.7403 12.8294 23.6998C9.32916 23.6381 6.37369 21.4377 5.35603 18.4149C5.84475 18.5047 6.34566 18.5524 6.86119 18.5524C7.59122 18.5524 8.29809 18.4584 8.96841 18.2844C5.30851 17.5855 2.55047 14.5108 2.55047 10.8242C2.55047 10.7919 2.55047 10.7597 2.55169 10.7288C3.63028 11.2985 4.86487 11.6395 6.17625 11.6803C4.02881 10.3148 2.61629 7.98663 2.61629 5.34556C2.61629 3.95202 3.01116 2.64412 3.69976 1.52144C7.64607 6.1244 13.5411 9.1528 20.1919 9.47139C20.0554 8.91426 19.9847 8.33327 19.9847 7.73683C19.9847 3.53524 23.5666 0.127929 27.9858 0.12793Z" fill="#225BCC"/>
</svg>
