<svg width="167" height="138" viewBox="0 0 167 138" fill="none" xmlns="http://www.w3.org/2000/svg">
<path fill-rule="evenodd" clip-rule="evenodd" d="M108.111 30.0592C118.24 38.1471 120.413 52.5098 113.512 63.164L139.005 83.5202L140.41 81.7611C141.271 80.6822 142.844 80.5059 143.923 81.3675C145.002 82.229 145.179 83.802 144.317 84.881L142.912 86.64L148.773 91.3199C150.931 93.0425 151.283 96.1896 149.561 98.3469L140.182 110.092C139.321 111.171 137.748 111.347 136.669 110.486C135.59 109.624 135.414 108.051 136.275 106.972L145.654 95.2271L139.793 90.5472L130.278 102.464C129.416 103.542 127.843 103.719 126.764 102.857C125.685 101.996 125.509 100.423 126.37 99.3437L135.885 87.4274L110.392 67.0712C101.529 76.1597 87.0419 77.2193 76.9128 69.1315C66.1244 60.5171 64.3616 44.7845 72.9759 33.9961C81.5903 23.2077 97.3229 21.4449 108.111 30.0592ZM104.991 33.9665C112.96 40.3295 114.774 51.548 109.58 60.0246L105.786 56.9953C104.707 56.1337 103.134 56.31 102.273 57.389C101.411 58.4679 101.587 60.041 102.666 60.9025L106.46 63.9318C99.3432 70.8727 88.0016 71.5873 80.0327 65.2243C71.4021 58.333 69.9919 45.7465 76.8832 37.116C83.7745 28.4855 96.361 27.0752 104.991 33.9665ZM84.6976 43.3557C81.2506 47.6726 81.9554 53.9628 86.2724 57.4098C87.3513 58.2713 87.5276 59.8444 86.666 60.9234C85.8045 62.0023 84.2315 62.1786 83.1525 61.317C76.6777 56.147 75.6204 46.7106 80.7904 40.2358C81.6519 39.1569 83.225 38.9806 84.3039 39.8421C85.3829 40.7037 85.5591 42.2767 84.6976 43.3557Z" fill="white"/>
<path fill-rule="evenodd" clip-rule="evenodd" d="M98.1822 49.9587C95.0697 62.0988 83.0337 70.2018 70.6019 68.9681L62.7682 99.5234L64.9295 99.9525C66.2553 100.216 67.0614 101.477 66.7298 102.77C66.3983 104.064 65.0547 104.899 63.7289 104.635L61.5676 104.206L59.7667 111.231C59.1038 113.816 56.4158 115.487 53.7648 114.96L39.3321 112.095C38.0062 111.832 37.2002 110.57 37.5317 109.277C37.8632 107.984 39.2068 107.149 40.5327 107.412L54.9654 110.277L56.7663 103.253L42.123 100.346C40.7972 100.083 39.9911 98.8215 40.3226 97.5284C40.6542 96.2352 41.9977 95.4003 43.3236 95.6635L57.9668 98.5703L65.8006 68.0148C53.9723 64.4314 47.0568 52.567 50.1691 40.4276C53.484 27.4976 66.9214 19.1472 80.1785 21.7789C93.4356 24.4106 101.497 37.0287 98.1822 49.9587ZM93.3794 49.0061C90.9308 58.5569 81.5779 64.9846 71.8098 64.2567L72.9755 59.7099C73.307 58.4168 72.5009 57.1551 71.1751 56.892C69.8492 56.6288 68.5057 57.4637 68.1741 58.7568L67.0085 63.3036C57.8312 60.2707 52.5203 50.9321 54.9689 41.3813C57.6208 31.0375 68.3711 24.357 78.9765 26.4623C89.5819 28.5676 96.0313 38.6624 93.3794 49.0061ZM76.5747 35.8274C71.2699 34.7743 65.8974 38.113 64.5709 43.2868C64.2394 44.58 62.8958 45.4149 61.57 45.1517C60.2441 44.8885 59.4381 43.6269 59.7696 42.3337C61.7592 34.5736 69.8188 29.5651 77.7753 31.1445C79.1011 31.4077 79.9072 32.6694 79.5757 33.9625C79.2441 35.2556 77.9006 36.0905 76.5747 35.8274Z" fill="white"/>
</svg>
