<svg width="150" height="150" viewBox="0 0 150 150" fill="none" xmlns="http://www.w3.org/2000/svg">
<path d="M75 0C60.1664 0 45.6659 4.39868 33.3323 12.6398C20.9986 20.8809 11.3856 32.5943 5.70908 46.2988C0.0325069 60.0032 -1.45276 75.0832 1.44113 89.6318C4.33503 104.18 11.4781 117.544 21.967 128.033C32.456 138.522 45.8197 145.665 60.3682 148.559C74.9168 151.453 89.9968 149.968 103.701 144.291C117.406 138.614 129.119 129.001 137.36 116.668C145.601 104.334 150 89.8336 150 75C149.942 55.1266 142.021 36.0839 127.969 22.0313C113.916 7.97864 94.8734 0.0581715 75 0ZM59.6034 114.988L21.1659 76.5505L31.9472 65.7692L59.6395 93.4615L118.089 35.0121L128.87 45.7933L94.2368 80.3906L59.6034 114.988Z" fill="white"/>
</svg>
