<svg width="40" height="40" viewBox="0 0 40 40" fill="none" xmlns="http://www.w3.org/2000/svg">
<circle cx="20" cy="20" r="20" fill="#225BCC" fill-opacity="0.1"/>
<path d="M14.2045 19.535C15.159 19.535 16.1838 18.2668 16.1838 16.9639C16.1838 15.6608 15.2979 14.8167 14.2045 14.8167C13.1115 14.8167 12.2251 15.6608 12.2251 16.9639C12.2253 18.2668 13.2188 19.535 14.2045 19.535Z" fill="#225BCC"/>
<path d="M26.5941 19.535C27.5487 19.535 28.5735 18.2668 28.5735 16.9639C28.5735 15.6608 27.6873 14.8167 26.5941 14.8167C25.5009 14.8167 24.6147 15.6608 24.6147 16.9639C24.6147 18.2668 25.6085 19.535 26.5941 19.535Z" fill="#225BCC"/>
<path d="M20.4327 20.0356C21.8963 20.0356 23.4679 18.0905 23.4679 16.0926C23.4679 14.0944 22.1091 12.7998 20.4327 12.7998C18.7565 12.7998 17.3975 14.0944 17.3975 16.0926C17.3975 18.0905 18.9212 20.0356 20.4327 20.0356Z" fill="#225BCC"/>
<path d="M25.8629 23.4376C25.4961 22.7103 25.2287 22.3439 24.7306 21.8262C24.3 21.3786 23.015 20.748 22.1856 21.0254C21.5241 21.1703 21.4928 21.5512 20.4332 21.5512C19.3735 21.5512 19.342 21.1703 18.6803 21.0254C17.8509 20.748 16.5661 21.3786 16.1353 21.8262C15.637 22.3439 15.3699 22.7106 15.0032 23.4376C14.8192 23.8022 14.4358 24.8656 14.6737 25.3233C14.9746 25.9023 15.7072 26.1419 17.7208 26.3881C18.9269 26.5356 20.4332 26.5356 20.4332 26.5356C20.4332 26.5356 21.9391 26.5356 23.1454 26.3881C25.1589 26.1419 25.8911 25.9023 26.1924 25.3233C26.4305 24.8656 26.0469 23.8022 25.8629 23.4376Z" fill="#225BCC"/>
<path d="M30.1353 21.7533C29.8965 21.2789 29.7219 21.0404 29.3971 20.7024C29.1163 20.4104 28.2784 19.9993 27.7377 20.1801C27.3057 20.2747 27.2858 20.5231 26.5948 20.5231C25.9038 20.5231 25.8835 20.2747 25.452 20.1801C25.0172 20.0348 24.3912 20.272 24.0161 20.5222C24.5321 20.7348 24.9906 21.0299 25.2636 21.3136C25.8305 21.9029 26.1365 22.3381 26.5235 23.1049C26.5984 23.2536 26.6995 23.4939 26.79 23.7718C27.115 23.7667 27.7902 23.7477 28.3632 23.6775C29.6763 23.5169 30.1541 23.3607 30.3504 22.9831C30.5055 22.6846 30.2556 21.991 30.1353 21.7533Z" fill="#225BCC"/>
<path d="M14.3427 23.1045C14.7295 22.3375 15.0355 21.9024 15.6025 21.3131C15.868 21.0373 16.3093 20.7504 16.8083 20.5394C16.4368 20.283 15.7918 20.0315 15.3469 20.1801C14.9155 20.2747 14.8951 20.5231 14.2043 20.5231C13.5131 20.5231 13.4928 20.2747 13.0615 20.1801C12.5205 19.9993 11.6828 20.4104 11.4018 20.7024C11.077 21.0402 10.9029 21.2789 10.6634 21.7533C10.5436 21.991 10.2937 22.6846 10.4486 22.9829C10.6449 23.3607 11.1224 23.5167 12.4353 23.6772C13.0497 23.7524 13.7809 23.7689 14.0729 23.7725C14.1961 23.4007 14.3295 23.1309 14.3427 23.1045Z" fill="#225BCC"/>
</svg>
