<svg width="188" height="228" viewBox="0 0 188 228" fill="none" xmlns="http://www.w3.org/2000/svg">
<path d="M170.891 154.954L69.2607 182.332C68.7616 182.466 68.2298 182.396 67.782 182.138C67.3341 181.881 67.0068 181.456 66.8718 180.957L60.0802 155.747C59.9465 155.248 60.0161 154.716 60.2738 154.268C60.5316 153.82 60.9564 153.493 61.4552 153.358L163.085 125.979C163.584 125.846 164.116 125.915 164.564 126.173C165.012 126.431 165.339 126.856 165.474 127.354L172.265 152.564C172.399 153.064 172.33 153.595 172.072 154.043C171.814 154.491 171.389 154.819 170.891 154.954ZM61.6576 154.109C61.3587 154.19 61.1042 154.387 60.9498 154.655C60.7953 154.923 60.7534 155.242 60.8333 155.541L67.6248 180.751C67.706 181.05 67.9022 181.305 68.1706 181.459C68.439 181.614 68.7577 181.655 69.0569 181.576L170.687 154.197C170.986 154.116 171.24 153.92 171.395 153.651C171.549 153.383 171.591 153.064 171.511 152.765L164.72 127.557C164.639 127.258 164.443 127.004 164.174 126.849C163.906 126.695 163.587 126.653 163.288 126.733L61.6576 154.109Z" fill="white"/>
<path d="M67.8647 215.344C72.0987 214.203 74.6063 209.846 73.4657 205.612C72.3251 201.378 67.9682 198.87 63.7342 200.011C59.5002 201.152 56.9925 205.508 58.1331 209.742C59.2737 213.976 63.6307 216.484 67.8647 215.344Z" fill="#E6E6E6"/>
<path d="M82.2 198.062C81.8612 198.153 81.5724 198.375 81.3974 198.679C81.2223 198.983 81.1753 199.345 81.2666 199.683C81.3578 200.022 81.58 200.311 81.8841 200.486C82.1883 200.661 82.5495 200.708 82.8884 200.617L143.124 184.39C143.292 184.345 143.45 184.267 143.588 184.162C143.726 184.056 143.841 183.924 143.928 183.774C144.015 183.623 144.072 183.457 144.095 183.285C144.117 183.113 144.106 182.938 144.061 182.77C144.016 182.602 143.939 182.444 143.833 182.307C143.727 182.169 143.596 182.053 143.445 181.966C143.295 181.879 143.129 181.822 142.956 181.8C142.784 181.777 142.609 181.788 142.441 181.833L82.2 198.062Z" fill="#E6E6E6"/>
<path d="M84.2651 205.728C83.926 205.818 83.6369 206.04 83.4612 206.344C83.2855 206.648 83.2378 207.009 83.3284 207.348C83.419 207.687 83.6406 207.976 83.9444 208.152C84.2482 208.327 84.6093 208.375 84.9484 208.285L110.873 201.301C111.212 201.209 111.501 200.987 111.676 200.683C111.851 200.379 111.898 200.018 111.807 199.679C111.715 199.34 111.493 199.051 111.189 198.876C110.885 198.701 110.524 198.654 110.185 198.745L84.2651 205.728Z" fill="#E6E6E6"/>
<path d="M83.1811 171.135C87.4151 169.994 89.9227 165.637 88.7821 161.403C87.6415 157.169 83.2846 154.661 79.0506 155.802C74.8166 156.943 72.3089 161.3 73.4495 165.533C74.5901 169.767 78.9471 172.275 83.1811 171.135Z" fill="#E6E6E6"/>
<path d="M97.5164 153.852C97.1776 153.943 96.8888 154.166 96.7138 154.47C96.5387 154.774 96.4917 155.135 96.583 155.474C96.6742 155.813 96.8964 156.102 97.2005 156.277C97.5047 156.452 97.8659 156.499 98.2048 156.407L158.441 140.18C158.78 140.089 159.068 139.867 159.244 139.563C159.419 139.258 159.466 138.897 159.374 138.558C159.283 138.22 159.061 137.931 158.757 137.756C158.453 137.581 158.091 137.534 157.753 137.625L97.5164 153.852Z" fill="#E6E6E6"/>
<path d="M99.5818 161.519C99.243 161.61 98.9543 161.833 98.7792 162.137C98.6041 162.441 98.5571 162.802 98.6484 163.141C98.7397 163.48 98.9618 163.769 99.266 163.944C99.5701 164.119 99.9314 164.166 100.27 164.074L126.19 157.092C126.529 157 126.818 156.778 126.993 156.474C127.168 156.17 127.215 155.809 127.124 155.47C127.032 155.131 126.81 154.842 126.506 154.667C126.202 154.492 125.841 154.445 125.502 154.536L99.5818 161.519Z" fill="#E6E6E6"/>
<path d="M134.337 97.87L32.7071 125.248C32.208 125.382 31.6763 125.313 31.2284 125.055C30.7806 124.797 30.4533 124.372 30.3182 123.873L6.90591 36.9659C6.77215 36.4668 6.84178 35.9351 7.09953 35.4872C7.35728 35.0394 7.78212 34.7121 8.28087 34.577L109.911 7.19861C110.41 7.06486 110.942 7.13448 111.389 7.39223C111.837 7.64999 112.165 8.07482 112.3 8.57356L135.712 95.4808C135.846 95.9799 135.776 96.5117 135.518 96.9595C135.261 97.4074 134.836 97.7347 134.337 97.8697L134.337 97.87ZM8.48326 35.3283C8.18443 35.4095 7.92991 35.6058 7.77544 35.8742C7.62096 36.1426 7.5791 36.4612 7.659 36.7604L31.0719 123.67C31.1531 123.969 31.3493 124.223 31.6177 124.378C31.8861 124.532 32.2048 124.574 32.504 124.494L134.134 97.1159C134.433 97.0348 134.687 96.8385 134.842 96.5701C134.996 96.3017 135.038 95.983 134.958 95.6838L111.546 8.77662C111.465 8.47778 111.268 8.22329 111 8.06881C110.732 7.91434 110.413 7.87247 110.114 7.95237L8.48326 35.3283Z" fill="white"/>
<path d="M30.2538 53.2717C34.4878 52.1311 36.9955 47.7742 35.8549 43.5402C34.7143 39.3062 30.3573 36.7985 26.1233 37.9391C21.8893 39.0798 19.3817 43.4367 20.5223 47.6707C21.6629 51.9047 26.0198 54.4124 30.2538 53.2717Z" fill="#4B36D7"/>
<path d="M44.5179 35.7247C44.179 35.8159 43.8903 36.0381 43.7152 36.3423C43.5402 36.6464 43.4931 37.0076 43.5844 37.3465C43.6757 37.6854 43.8979 37.9741 44.202 38.1491C44.5062 38.3242 44.8674 38.3713 45.2063 38.28L105.442 22.0528C105.781 21.9615 106.07 21.7393 106.245 21.4352C106.42 21.131 106.467 20.7698 106.376 20.4309C106.285 20.0921 106.062 19.8034 105.758 19.6283C105.454 19.4532 105.093 19.4062 104.754 19.4975L44.5179 35.7247Z" fill="#CCCCCC"/>
<path d="M46.5833 43.3912C46.2445 43.4824 45.9557 43.7046 45.7807 44.0088C45.6056 44.3129 45.5586 44.6742 45.6499 45.013C45.7411 45.3519 45.9633 45.6406 46.2674 45.8156C46.5716 45.9907 46.9328 46.0378 47.2717 45.9465L73.1915 38.9639C73.5304 38.8726 73.8191 38.6504 73.9942 38.3463C74.1692 38.0421 74.2163 37.6809 74.125 37.342C74.0337 37.0031 73.8115 36.7144 73.5074 36.5394C73.2032 36.3643 72.842 36.3173 72.5031 36.4085L46.5833 43.3912Z" fill="#CCCCCC"/>
<path d="M155.446 80.0909L53.8153 107.469C53.3162 107.603 52.7844 107.534 52.3365 107.276C51.8887 107.018 51.5614 106.593 51.4264 106.094L39.4113 61.4938C39.2774 60.9947 39.347 60.4628 39.6048 60.015C39.8626 59.5671 40.2874 59.2398 40.7862 59.1048L142.416 31.7263C142.916 31.5925 143.447 31.6621 143.895 31.9198C144.343 32.1776 144.67 32.6025 144.805 33.1013L156.821 77.7019C156.954 78.201 156.885 78.7329 156.627 79.1807C156.369 79.6286 155.944 79.9559 155.446 80.0909Z" fill="#4B36D7"/>
<path d="M65.6712 69.0748C65.3323 69.166 65.0436 69.3882 64.8686 69.6924C64.6935 69.9965 64.6465 70.3578 64.7377 70.6966C64.829 71.0355 65.0512 71.3242 65.3553 71.4992C65.6595 71.6743 66.0207 71.7214 66.3596 71.6301L126.596 55.4028C126.935 55.3115 127.224 55.0894 127.399 54.7852C127.574 54.481 127.621 54.1198 127.529 53.7809C127.438 53.4421 127.216 53.1534 126.912 52.9783C126.608 52.8033 126.246 52.7562 125.908 52.8475L65.6712 69.0748Z" fill="white"/>
<path d="M67.6658 76.4786C67.327 76.5699 67.0383 76.792 66.8632 77.0962C66.6881 77.4003 66.6411 77.7616 66.7324 78.1004C66.8237 78.4393 67.0458 78.728 67.35 78.9031C67.6541 79.0781 68.0154 79.1252 68.3542 79.0339L128.591 62.8066C128.93 62.7153 129.218 62.4932 129.393 62.189C129.568 61.8849 129.615 61.5236 129.524 61.1848C129.433 60.8459 129.211 60.5572 128.907 60.3821C128.602 60.2071 128.241 60.16 127.902 60.2513L67.6658 76.4786Z" fill="white"/>
<path d="M69.636 83.7925C69.2972 83.8838 69.0085 84.106 68.8334 84.4101C68.6584 84.7143 68.6113 85.0755 68.7026 85.4144C68.7939 85.7532 69.016 86.042 69.3202 86.217C69.6243 86.3921 69.9856 86.4391 70.3244 86.3479L96.2443 79.3652C96.5831 79.2739 96.8718 79.0518 97.0469 78.7476C97.2219 78.4435 97.269 78.0822 97.1777 77.7434C97.0864 77.4045 96.8643 77.1158 96.5601 76.9407C96.256 76.7657 95.8947 76.7186 95.5559 76.8099L69.636 83.7925Z" fill="white"/>
<path d="M155.574 199.163L53.9443 226.541C53.4452 226.675 52.9134 226.605 52.4656 226.347C52.0177 226.09 51.6904 225.665 51.5553 225.166L44.7638 199.956C44.63 199.457 44.6995 198.925 44.9573 198.477C45.2151 198.029 45.64 197.702 46.1388 197.567L147.769 170.188C148.268 170.055 148.8 170.124 149.247 170.382C149.695 170.64 150.023 171.065 150.158 171.563L156.949 196.773C157.083 197.273 157.013 197.804 156.755 198.252C156.498 198.7 156.073 199.027 155.574 199.162L155.574 199.163ZM46.3412 198.318C46.0423 198.399 45.7878 198.596 45.6333 198.864C45.4789 199.132 45.437 199.451 45.5169 199.75L52.3083 224.96C52.3895 225.259 52.5858 225.514 52.8542 225.668C53.1226 225.823 53.4413 225.864 53.7404 225.785L155.37 198.406C155.669 198.325 155.924 198.129 156.078 197.86C156.233 197.592 156.275 197.273 156.195 196.974L149.404 171.766C149.323 171.468 149.126 171.213 148.858 171.059C148.59 170.904 148.271 170.862 147.972 170.942L46.3412 198.318Z" fill="white"/>
</svg>
