<svg width="40" height="40" viewBox="0 0 40 40" fill="none" xmlns="http://www.w3.org/2000/svg">
<circle cx="20" cy="20" r="20" fill="#212327" fill-opacity="0.15"/>
<path d="M19.7185 21.4814C18.9178 21.4814 18.1896 22.0198 18.1896 22.7376C18.1896 23.2157 18.5533 23.6939 19.063 23.8733V25.6076H20.3007V23.8733C20.8104 23.6939 21.1748 23.2157 21.1748 22.7376C21.2474 22.0198 20.5193 21.4814 19.7185 21.4814ZM19.5 11.435C17.4615 11.435 15.7867 12.9303 15.7867 14.7838V16.5778C15.7867 16.8174 15.7867 16.9963 15.8593 17.2359H23.2133C23.2867 16.9963 23.2867 16.8174 23.2867 16.5778V14.7838C23.2867 12.9303 21.6118 11.435 19.5 11.435ZM19.5 10C22.2674 10 24.5244 12.033 24.5244 14.4851V16.877V17.2956C25.9807 17.5942 27 18.7908 27 20.1662V26.146C27 27.7605 25.5437 29.0763 23.7237 29.0763H15.2763C13.4563 29.1359 12 27.8201 12 26.2056V20.1662C12 18.7908 13.0919 17.6545 14.4756 17.2956V16.877V14.4851C14.4756 12.033 16.7326 10 19.5 10Z" fill="#212327"/>
</svg>
