<svg width="18" height="15" viewBox="0 0 18 15" fill="none" xmlns="http://www.w3.org/2000/svg">
<path d="M9.23137 14.9602C9.13491 14.9603 9.03937 14.9453 8.95025 14.9159C8.86112 14.8865 8.78017 14.8434 8.71206 14.789L0.215193 8.01972C0.146971 7.96542 0.0928521 7.90095 0.0559285 7.82998C0.0190048 7.75902 0 7.68296 0 7.60614C0 7.52933 0.0190048 7.45327 0.0559285 7.38231C0.0928521 7.31134 0.146971 7.24687 0.215193 7.19257L9.03141 0.171308C9.16913 0.0616214 9.35593 -1.63446e-09 9.55071 0C9.74548 1.63446e-09 9.93228 0.0616214 10.07 0.171308C10.2077 0.280995 10.2851 0.429762 10.2851 0.584883C10.2851 0.740003 10.2077 0.888771 10.07 0.998457L1.7731 7.60614L9.75067 13.9619C9.85341 14.0437 9.92338 14.1479 9.95174 14.2613C9.98009 14.3748 9.96555 14.4924 9.90996 14.5992C9.85436 14.7061 9.76021 14.7975 9.63942 14.8617C9.51863 14.9259 9.37662 14.9602 9.23137 14.9602Z" fill="#212327" fill-opacity="0.6"/>
<path d="M16.9462 14.9602C16.8498 14.9603 16.7542 14.9453 16.6651 14.9159C16.576 14.8865 16.495 14.8434 16.4269 14.789L7.93004 8.01972C7.86181 7.96542 7.8077 7.90095 7.77077 7.82998C7.73385 7.75902 7.71484 7.68296 7.71484 7.60614C7.71484 7.52933 7.73385 7.45327 7.77077 7.38231C7.8077 7.31134 7.86181 7.24687 7.93004 7.19257L16.7462 0.171308C16.8144 0.116997 16.8954 0.0739147 16.9845 0.0445216C17.0736 0.0151284 17.1691 0 17.2656 0C17.362 0 17.4575 0.0151284 17.5466 0.0445216C17.6357 0.0739147 17.7167 0.116997 17.7849 0.171308C17.8531 0.22562 17.9071 0.290097 17.9441 0.361058C17.981 0.432019 18 0.508075 18 0.584883C18 0.661691 17.981 0.737747 17.9441 0.808708C17.9071 0.879669 17.8531 0.944146 17.7849 0.998457L9.48795 7.60614L17.4655 13.9619C17.5683 14.0437 17.6382 14.1479 17.6666 14.2613C17.6949 14.3748 17.6804 14.4924 17.6248 14.5992C17.5692 14.7061 17.4751 14.7975 17.3543 14.8617C17.2335 14.9259 17.0915 14.9602 16.9462 14.9602Z" fill="#212327" fill-opacity="0.6"/>
</svg>
