<svg width="17" height="20" viewBox="0 0 17 20" fill="none" xmlns="http://www.w3.org/2000/svg">
<path fill-rule="evenodd" clip-rule="evenodd" d="M3.5 9.0002V10.029C3.5 10.3051 3.27614 10.529 3 10.529C2.72386 10.529 2.5 10.3051 2.5 10.029V9.0002H1.5C1.22414 9.0002 1 9.22434 1 9.5002V18.5002C1 18.7761 1.22414 19.0002 1.5 19.0002H15.5C15.7759 19.0002 16 18.7761 16 18.5002V9.5002C16 9.22434 15.7759 9.0002 15.5 9.0002H3.5ZM3.5 8.0002H11.5V6.0009C11.5 4.34468 10.1565 3.0009 8.5 3.0009C7.15228 3.0009 5.98017 3.8985 5.61494 5.17464C5.539 5.44173 5.5 5.71883 5.5 6.0009V6.5079C5.5 6.78404 5.27614 7.0079 5 7.0079C4.72386 7.0079 4.5 6.78404 4.5 6.5079V6.0009C4.5 5.6259 4.55195 5.25679 4.6533 4.90032C5.14074 3.19718 6.70287 2.0009 8.5 2.0009C10.7088 2.0009 12.5 3.79243 12.5 6.0009V8.0002H15.5C16.3281 8.0002 17 8.67206 17 9.5002V18.5002C17 19.3283 16.3281 20.0002 15.5 20.0002H1.5C0.671858 20.0002 0 19.3283 0 18.5002V9.5002C0 8.67206 0.671858 8.0002 1.5 8.0002H2.5V6C2.5 2.68653 5.18619 0 8.5 0C11.1965 0 13.5393 1.79398 14.2698 4.34977C14.4218 4.88241 14.5 5.43678 14.5 6V6.519C14.5 6.79514 14.2761 7.019 14 7.019C13.7239 7.019 13.5 6.79514 13.5 6.519V6C13.5 5.52997 13.4348 5.06795 13.3083 4.62442C12.6996 2.49522 10.7471 1 8.5 1C5.7385 1 3.5 3.23878 3.5 6V8.0002ZM8.5 13.0002C7.94714 13.0002 7.5 13.4473 7.5 14.0002C7.5 14.2763 7.27614 14.5002 7 14.5002C6.72386 14.5002 6.5 14.2763 6.5 14.0002C6.5 12.8951 7.39486 12.0002 8.5 12.0002C9.60514 12.0002 10.5 12.8951 10.5 14.0002C10.5 15.1053 9.60514 16.0002 8.5 16.0002C8.22386 16.0002 8 15.7763 8 15.5002C8 15.2241 8.22386 15.0002 8.5 15.0002C9.05286 15.0002 9.5 14.5531 9.5 14.0002C9.5 13.4473 9.05286 13.0002 8.5 13.0002Z" fill="white"/>
</svg>
