<svg width="135" height="57" viewBox="0 0 135 57" fill="none" xmlns="http://www.w3.org/2000/svg">
<rect x="0.735352" width="133.824" height="57" fill="#F9F9F9"/>
<path d="M14.6324 26L0.735352 15.5V56.5H134.044V2.5L115.515 22.5L94.4118 13L78.9706 22.5L69.1912 18.5L56.3236 10.5L46.5442 22.5L30.0736 10.5L14.6324 26Z" fill="#A8A3FF"/>
<path d="M14.6324 49L0.735352 38.5V56.5H134.044V25.5L115.515 45.5L94.4118 36L78.9706 45.5L69.1912 41.5L56.3236 33.5L46.5442 45.5L30.0736 33.5L14.6324 49Z" fill="#6CA2DE"/>
<path d="M0.735352 15.5L14.6324 26L30.0736 10.5L46.5442 22.5L56.3236 10.5L69.1912 18.5L78.9706 22.5L94.4118 13L115.515 22.5L134.044 2.5" stroke="#6C63FF"/>
</svg>
