<svg width="39" height="37" viewBox="0 0 39 37" fill="none" xmlns="http://www.w3.org/2000/svg">
<path d="M1.4689 11.94H9.61397V36.4488H1.4689V11.94ZM29.6103 11.3641C34.9647 11.3641 38.9844 14.8684 38.9844 22.3924V36.4476H30.8417V23.3388C30.8417 20.0399 29.659 17.7967 26.7116 17.7967C24.4624 17.7967 23.1229 19.3132 22.534 20.7738C22.3167 21.2951 22.268 22.029 22.268 22.7629V36.4476H14.1181C14.1181 36.4476 14.2274 14.2378 14.1181 11.94H22.268V15.4146C22.249 15.4384 22.2312 15.4693 22.2133 15.493H22.268V15.4146C23.3474 13.7414 25.2807 11.3641 29.6103 11.3641ZM5.59311 0.12793C8.38255 0.12793 10.0985 1.96024 10.1471 4.36137C10.1471 6.71499 8.38255 8.59601 5.54441 8.59601H5.48976C2.75497 8.59601 0.984375 6.71499 0.984375 4.36137C0.984375 1.96024 2.80962 0.12793 5.59311 0.12793Z" fill="#3521B5"/>
</svg>
