<svg width="20" height="14" viewBox="0 0 20 14" fill="none" xmlns="http://www.w3.org/2000/svg">
<path fill-rule="evenodd" clip-rule="evenodd" d="M18.5 0C19.3281 0 20 0.671858 20 1.5V12.5C20 13.3281 19.3281 14 18.5 14H1.5C0.671858 14 0 13.3281 0 12.5V1.5C0 0.671858 0.671858 0 1.5 0H18.5ZM17.98 1H1.5C1.22414 1 1 1.22414 1 1.5V12.3841L6.81267 6.5433L2.88773 2.86791C2.68617 2.67916 2.67578 2.36275 2.86453 2.16118C3.05328 1.95962 3.36969 1.94923 3.57125 2.13798L9.71283 7.89605C9.88575 8.01684 10.1147 8.01684 10.2399 7.93352L17.98 1ZM18.0453 13H1.7979L7.54294 7.22714L9.08473 8.67091C9.65724 9.07704 10.3442 9.07704 10.8604 8.71545L18.9955 1.43279C18.9985 1.45477 19 1.47721 19 1.5V12.5C19 12.5134 18.9995 12.5268 18.9984 12.5399L14.3493 7.87131C14.1544 7.67564 13.8379 7.67498 13.6422 7.86983C13.4465 8.06468 13.4458 8.38126 13.6407 8.57693L18.0453 13Z" fill="white"/>
</svg>
