<svg width="22" height="29" viewBox="0 0 22 29" fill="none" xmlns="http://www.w3.org/2000/svg">
<path d="M21 13.7448V24.8924H13.9392H13.9392H13.9392H13.9391H13.9391H13.9391H13.9391H13.939H13.939H13.939H13.939H13.9389H13.9389H13.9389H13.9389H13.9388H13.9388H13.9388H13.9387H13.9387H13.9387H13.9387H13.9386H13.9386H13.9386H13.9386H13.9385H13.9385H13.9385H13.9385H13.9384H13.9384H13.9384H13.9384H13.9383H13.9383H13.9383H13.9383H13.9382H13.9382H13.9382H13.9382H13.9381H13.9381H13.9381H13.9381H13.938H13.938H13.938H13.9379H13.9379H13.9379H13.9379H13.9378H13.9378H13.9378H13.9378H13.9377H13.9377H13.9377H13.9377H13.9376H13.9376H13.9376H13.9376H13.9375H13.9375H13.9375H13.9375H13.9374H13.9374H13.9374H13.9374H13.9373H13.9373H13.9373H13.9372H13.9372H13.9372H13.9372H13.9371H13.9371H13.9371H13.9371H13.937H13.937H13.937H13.937H13.9369H13.9369H13.9369H13.9369H13.9368H13.9368H13.9368H13.9368H13.9367H13.9367H13.9367H13.9367H13.9366H13.9366H13.9366H13.9366H13.9365H13.9365H13.9365H13.9364H13.9364H13.9364H13.9364H13.9363H13.9363H13.9363H13.9363H13.9362H13.9362H13.9362H13.9362H13.9361H13.9361H13.9361H13.9361H13.936H13.936H13.936H13.936H13.9359H13.9359H13.9359H13.9359H13.9358H13.9358H13.9358H13.9358H13.9357H13.9357H13.9357H13.9356H13.9356H13.9356H13.9356H13.9355H13.9355H13.9355H13.9355H13.9354H13.9354H13.9354H13.9354H13.9353H13.9353H13.9353H13.9353H13.9352H13.9352H13.9352H13.9352H13.9351H13.9351H13.9351H13.9351H13.935H13.935H13.935H13.9349H13.9349H13.9349H13.9349H13.9348H13.9348H13.9348H13.9348H13.9347H13.9347H13.9347H13.9347H13.9346H13.9346H13.9346H13.9346H13.9345H13.9345H13.9345H13.9345H13.9344H13.9344H13.9344H13.9344H13.9343H13.9343H13.9343H13.9343H13.9342H13.9342H13.9342H13.9341H13.9341H13.9341H13.9341H13.934H13.934H13.934H13.934H13.9339H13.9339H13.9339H13.9339H13.9338H13.9338H13.9338H13.9338H13.9337H13.9337H13.9337H13.9337H13.9336H13.9336H13.9336H13.9336H13.9335H13.9335H13.9335H13.9335H13.9334H13.9334H13.9334H13.9333H13.9333H13.9333H13.9333H13.9332H13.9332H13.9332H13.9332H13.9331H13.9331H13.9331H13.9331H13.933H13.933H13.933H13.933H13.9329H13.9329H13.9329H13.9329H13.9328H13.9328H13.9328H13.9328H13.9327H13.9327H13.9327H13.9327H13.9326H13.9326H13.9326H13.9325H13.9325H13.9325H13.9325H13.9324H13.9324H13.9324H13.9324H13.9323H13.9323H13.9323H13.9323H13.9322H13.9322H13.9322H13.9322H13.9321H13.9321H13.9321H13.9321H13.932H13.932H13.932H13.932H13.9319H13.9319H13.9319H13.9319H13.9318H13.9318H13.9318H13.9317H13.9317H13.9317H13.9317H13.9316H13.9316H13.9316H13.9316H13.9315H13.9315H13.9315H13.9315H13.9314H13.9314H13.9314H13.9314H13.9313H13.9313H13.9313H13.9313H13.9312H13.9312H13.9312H13.9312H13.9311H13.9311H13.9311H13.931H13.931H13.931H13.931H13.9309H13.9309H13.9309H13.9309H13.9308H13.9308H13.9308H13.9308H13.9307H13.9307H13.9307H13.9307H13.9306H13.9306H13.9306H13.9306H13.9305H13.9305H13.9305H13.9305H13.9304H13.9304H13.9304H13.9304H13.9303H13.9303H13.9303H13.9302H13.9302H13.9302H13.9302H13.9301H13.9301H13.9301H13.9301H13.93H13.93H13.93H13.93H13.9299H13.9299H13.9299H13.9299H13.9298H13.9298H13.9298H13.9298H13.9297H13.9297H13.9297H13.9297H13.9296H13.9296H13.9296H13.9296H13.9295H13.9295H13.9295H13.9294H13.9294H13.9294H13.9294H13.9293H13.9293H13.9293H13.9293H13.9292H13.9292H13.9292H13.9292H13.9291H13.9291H13.9291H13.9291H13.929H13.929H13.929H13.929H13.9289H13.9289H13.9289H13.9289H13.9288H13.9288H13.9288H13.9288H13.9287H13.9287H13.9287H13.9286H13.9286H13.9286H13.9286H13.9285H13.9285H13.9285H13.9285H13.9284H13.9284H13.9284H13.9284H13.9283H13.9283H13.9283H13.9283H13.9282H13.9282H13.9282H13.9282H13.9281H13.9281H13.9281H13.9281H13.928H13.928H13.928H13.9279H13.9279H13.9279H13.9279H13.9278H13.9278H13.9278H13.9278H13.9277H13.9277H13.9277H13.9277H13.9276H13.9276H13.9276H13.9276H13.9275H13.9275H13.9275H13.9275H13.9274H13.9274H13.9274H13.9274H13.9273H13.9273H13.9273H13.9273H13.9272H13.9272H13.9272H13.9271H13.9271H13.9271H13.9271H13.927H13.927H13.927H13.927H13.9269H13.9269H13.9269H13.9269H13.9268H13.9268H13.9268H13.9268H13.9267H13.9267H13.9267H13.9267H13.9266H13.9266H13.9266H13.9266H13.9265H13.9265H13.9265H13.9265H13.9264H13.9264H13.9264H13.9263H13.9263H13.9263H13.9263H13.9262H13.9262H13.9262H13.9262H13.9261H13.9261H13.9261H13.9261H13.926H13.926H13.926H1V13.7448C1 8.31617 5.47441 3.87698 11 3.87698C16.5242 3.87698 21 8.31626 21 13.7448Z" stroke="#E2E2EC" stroke-width="2"/>
<path d="M7.3335 24.4539H14.6668V25.1026C14.6668 27.1277 13.0252 28.7693 11.0002 28.7693C8.97512 28.7693 7.3335 27.1277 7.3335 25.1026V24.4539Z" fill="#E2E2EC"/>
<rect x="7.3335" width="7.33333" height="5.75384" rx="1" fill="#E2E2EC"/>
</svg>
