<svg width="30" height="44" viewBox="0 0 30 44" fill="none" xmlns="http://www.w3.org/2000/svg">
<path d="M3.0736 0.0909271C3.35495 0.0904541 3.63363 0.134315 3.89359 0.219986C4.15355 0.305656 4.38967 0.431442 4.58833 0.590099L29.3723 20.3351C29.5713 20.4935 29.7292 20.6815 29.8369 20.8885C29.9446 21.0955 30 21.3174 30 21.5414C30 21.7655 29.9446 21.9873 29.8369 22.1943C29.7292 22.4013 29.5713 22.5894 29.3723 22.7477L3.65686 43.2276C3.25513 43.5476 2.71027 43.7273 2.14214 43.7273C1.57401 43.7273 1.02915 43.5476 0.627417 43.2276C0.225687 42.9077 0 42.4737 0 42.0213C0 41.5688 0.225687 41.1349 0.627417 40.815L24.8282 21.5414L1.55889 3.00276C1.25921 2.76424 1.0551 2.46029 0.972399 2.12935C0.889694 1.79842 0.932106 1.45539 1.09426 1.14367C1.25642 0.831936 1.53104 0.565521 1.88338 0.378128C2.23571 0.190735 2.64993 0.090786 3.0736 0.0909271Z" fill="#212327" fill-opacity="0.2"/>
</svg>
