<svg width="35" height="36" viewBox="0 0 35 36" fill="none" xmlns="http://www.w3.org/2000/svg">
<path d="M17.5323 12.6583C17.2732 12.6572 17.0184 12.6759 16.768 12.7121C14.3532 13.069 12.4457 15.1456 12.4304 17.6C12.4205 19.2768 13.1595 20.7527 14.3323 21.7037L14.396 21.7542L14.429 21.7795C15.2691 22.4274 16.3211 22.8106 17.4741 22.8172C20.2195 22.8337 22.5585 20.5661 22.575 17.8723C22.5937 14.96 20.382 12.6737 17.5323 12.6583ZM0.359547 12.5331C3.57053 12.5474 6.78149 12.5419 9.99248 12.543C10.0331 12.543 10.0726 12.5551 10.1726 12.5716C8.47592 15.1698 8.06523 17.9283 9.11615 20.8406C9.80909 22.759 11.061 24.2547 12.7993 25.3298C16.2234 27.4503 20.6785 26.9847 23.5886 24.2492C26.4932 21.5203 27.5727 16.7072 24.7702 12.5408H27.3849C29.7854 12.5408 32.1871 12.5474 34.5887 12.5331C34.9061 12.532 34.9917 12.6122 34.9907 12.9339C34.9808 18.0776 34.9917 23.2214 34.9808 28.3651C34.9731 32.046 31.8488 35.1395 28.1668 35.1406C21.0629 35.1406 13.959 35.1406 6.85398 35.1406C3.14663 35.1406 0.0290109 32.0438 0.0246209 28.3376C0.0169128 23.2082 0.0235148 18.0799 0.0202307 12.9504C0.0191247 12.7034 0.00595416 12.5309 0.359547 12.5331ZM17.5071 10.8354C21.2891 10.8387 24.3628 13.9168 24.3815 17.7197C24.4001 21.5434 21.3077 24.6248 17.4522 24.6237C13.6647 24.6226 10.5866 21.5478 10.569 17.7493C10.5525 13.9431 13.6734 10.8332 17.5071 10.8354ZM28.8509 2.9068C28.2326 2.9068 27.6144 2.91119 26.9972 2.91889C26.6996 2.92328 26.4504 3.01112 26.2648 3.16598C26.0265 3.36475 25.8914 3.6744 25.8881 4.05437C25.8826 4.67921 25.8859 5.30406 25.887 5.93001C25.887 6.55485 25.8804 7.17969 25.8881 7.80454C25.8958 8.47549 26.3394 8.91585 27.0159 8.91913C28.2371 8.92573 29.4593 8.92684 30.6804 8.91913C31.2075 8.91585 31.6095 8.62043 31.7445 8.1658C31.7764 8.0604 31.7928 7.9473 31.7939 7.82759C31.8049 6.56252 31.8038 5.29856 31.7939 4.0346C31.7895 3.38231 31.3569 2.92878 30.7046 2.92C30.0863 2.91119 29.4681 2.9068 28.8509 2.9068ZM9.57846 7.47111e-06C15.8148 0.0121057 22.0512 0.00221945 28.2865 0.0109996C31.638 0.0153899 34.6821 2.83434 34.9368 6.18038C35.0642 7.85176 34.9533 9.5297 34.9895 11.2055C34.9961 11.491 34.8512 11.4822 34.6513 11.4811C33.1161 11.4778 31.582 11.4789 30.0479 11.4789C28.1305 11.4789 26.2132 11.4745 24.2947 11.4844C23.9971 11.4855 23.7786 11.4152 23.5469 11.2C20.0789 7.97253 14.7584 8.01319 11.3245 11.2845C11.1642 11.4372 11.0072 11.4833 10.7985 11.4822C7.33277 11.4778 3.86592 11.4789 0.400164 11.4789C0.211287 11.4789 0.00813249 11.5448 0.0158405 11.2066C0.0564578 9.51874 -0.0797043 7.8232 0.0795146 6.14083C0.269498 4.14331 1.24794 2.55759 2.84026 1.34635C2.85782 1.33207 2.88969 1.33646 2.96764 1.32439C2.96764 3.66891 2.97531 5.98379 2.95997 8.29761C2.95665 8.63143 3.04231 8.72037 3.37505 8.7127C4.34471 8.69292 4.34582 8.70831 4.34582 7.74961C4.34582 5.44793 4.34471 3.14621 4.34582 0.845599C4.34582 0.537014 5.02887 0.0867719 5.29791 0.225146C5.44068 0.297634 5.36598 0.453568 5.36708 0.568851C5.37147 2.82663 5.37037 5.08552 5.37037 7.34441V7.642C5.37037 8.71819 5.37037 8.7072 6.41472 8.71159C6.70903 8.7127 6.79908 8.63692 6.79469 8.33494C6.7782 7.0567 6.78809 5.77846 6.78809 4.49912C6.78809 3.12205 6.80786 1.74277 6.7771 0.365698C6.76721 -0.107602 7.05602 0.0230978 7.29872 0.0088213C7.55898 -0.00545495 7.77202 -0.0449999 7.76874 0.375584C7.74568 3.00345 7.76435 5.63131 7.74897 8.25917C7.74675 8.60287 7.81706 8.72148 8.18272 8.7138C9.17436 8.69182 9.17547 8.70941 9.17547 7.71777C9.17547 5.28867 9.18093 2.85958 9.16887 0.430511C9.16666 0.113146 9.22597 -0.00106479 9.57846 7.47111e-06Z" fill="#212327"/>
</svg>
