<svg width="40" height="40" viewBox="0 0 40 40" fill="none" xmlns="http://www.w3.org/2000/svg">
<circle cx="20" cy="20" r="20" fill="#FC6681" fill-opacity="0.15"/>
<path d="M15.171 18.9459C15.9664 18.9459 16.8204 17.889 16.8204 16.8033C16.8204 15.7174 16.0821 15.0139 15.171 15.0139C14.2602 15.0139 13.5215 15.7174 13.5215 16.8033C13.5217 17.889 14.3496 18.9459 15.171 18.9459Z" fill="#FC6681"/>
<path d="M25.4957 18.9459C26.2912 18.9459 27.1451 17.889 27.1451 16.8033C27.1451 15.7174 26.4067 15.0139 25.4957 15.0139C24.5847 15.0139 23.8462 15.7174 23.8462 16.8033C23.8462 17.889 24.6743 18.9459 25.4957 18.9459Z" fill="#FC6681"/>
<path d="M20.3609 19.3631C21.5806 19.3631 22.8902 17.7422 22.8902 16.0772C22.8902 14.4121 21.7579 13.3333 20.3609 13.3333C18.964 13.3333 17.8315 14.4121 17.8315 16.0772C17.8315 17.7422 19.1013 19.3631 20.3609 19.3631Z" fill="#FC6681"/>
<path d="M24.8863 22.198C24.5806 21.592 24.3578 21.2866 23.9427 20.8552C23.5839 20.4822 22.5131 19.9567 21.8219 20.1879C21.2707 20.3086 21.2446 20.626 20.3615 20.626C19.4785 20.626 19.4522 20.3086 18.9008 20.1879C18.2096 19.9567 17.139 20.4822 16.78 20.8552C16.3647 21.2866 16.1421 21.5922 15.8366 22.198C15.6833 22.5019 15.3638 23.3881 15.562 23.7694C15.8127 24.2519 16.4232 24.4516 18.1012 24.6568C19.1063 24.7797 20.3615 24.7797 20.3615 24.7797C20.3615 24.7797 21.6164 24.7797 22.6217 24.6568C24.2997 24.4516 24.9098 24.2519 25.1609 23.7694C25.3593 23.3881 25.0396 22.5019 24.8863 22.198Z" fill="#FC6681"/>
<path d="M28.4465 20.7945C28.2475 20.3992 28.102 20.2004 27.8313 19.9187C27.5973 19.6754 26.8991 19.3328 26.4485 19.4835C26.0885 19.5623 26.0719 19.7693 25.4961 19.7693C24.9203 19.7693 24.9033 19.5623 24.5438 19.4835C24.1814 19.3624 23.6598 19.5601 23.3472 19.7686C23.7771 19.9457 24.1592 20.1917 24.3867 20.4281C24.8592 20.9191 25.1142 21.2819 25.4367 21.9209C25.4991 22.0447 25.5833 22.245 25.6587 22.4766C25.9296 22.4723 26.4922 22.4565 26.9697 22.398C28.064 22.2642 28.4621 22.134 28.6257 21.8193C28.755 21.5706 28.5467 20.9925 28.4465 20.7945Z" fill="#FC6681"/>
<path d="M15.2861 21.9205C15.6084 21.2813 15.8634 20.9188 16.3359 20.4277C16.5572 20.1978 16.9249 19.9588 17.3408 19.7829C17.0311 19.5692 16.4937 19.3597 16.1229 19.4835C15.7634 19.5623 15.7464 19.7693 15.1708 19.7693C14.5947 19.7693 14.5778 19.5623 14.2184 19.4835C13.7676 19.3328 13.0695 19.6754 12.8354 19.9187C12.5647 20.2002 12.4195 20.3992 12.22 20.7945C12.1202 20.9925 11.9119 21.5706 12.041 21.8191C12.2046 22.134 12.6025 22.264 13.6966 22.3978C14.2085 22.4604 14.8179 22.4742 15.0612 22.4771C15.1639 22.1673 15.2751 21.9425 15.2861 21.9205Z" fill="#FC6681"/>
<line x1="14.0044" y1="13.2585" x2="28.0044" y2="25.9251" stroke="#FC6681" stroke-width="2"/>
</svg>
