<svg width="100" height="107" viewBox="0 0 100 107" fill="none" xmlns="http://www.w3.org/2000/svg">
<path d="M50.2881 106.002C48.6456 105.997 47.0103 105.785 45.4205 105.372L45.1072 105.286L44.8165 105.14C34.3077 99.8712 25.4419 92.9117 18.4655 84.4548C12.6905 77.4132 8.18806 69.4182 5.16061 60.8293C1.54025 50.5463 -0.201491 39.6961 0.0185204 28.7966C0.0229598 28.5678 0.0267169 28.3912 0.0267169 28.2695C0.0267169 22.9711 2.96769 18.3223 7.51917 16.4258C11.0027 14.9743 42.631 1.98331 44.9162 1.04467C49.2199 -1.11176 53.8112 0.688121 54.5459 1.00287C56.194 1.67668 85.4324 13.6356 91.7508 16.6442C98.2626 19.7451 100 25.3156 100 28.1182C100 40.8066 97.8025 52.6649 93.4685 63.3637C89.9684 72.0237 85.0076 80.0185 78.8023 86.9998C66.8298 100.473 54.8542 105.249 54.7386 105.292C53.3074 105.784 51.8015 106.024 50.2881 106.002ZM47.4718 99.0261C48.5101 99.2588 50.9005 99.608 52.4585 99.0396C54.4377 98.3178 64.4612 93.1201 73.8277 82.5794C86.7691 68.0159 93.3356 49.7082 93.3452 28.165C93.3221 27.7286 93.0121 24.6156 88.8897 22.6527C82.6938 19.7022 52.303 7.27543 51.9967 7.15018L51.9127 7.11458C51.2758 6.8477 49.2489 6.28554 47.8518 7.0177L47.572 7.14812C47.2333 7.28725 13.6594 21.0767 10.0787 22.5687C7.57397 23.6123 6.68152 26.1978 6.68152 28.2695C6.68152 28.4209 6.6776 28.6411 6.67207 28.9257C6.3859 43.6664 9.79698 79.9385 47.4718 99.0261Z" fill="white"/>
<path d="M46.3083 4.0695C46.3083 4.0695 12.4294 17.9841 8.79946 19.4965C5.16956 21.009 3.35461 24.6389 3.35461 28.2688C3.35461 31.8987 0.632202 79.2639 46.3083 102.165C46.3083 102.165 50.4539 103.312 53.5991 102.165C56.7443 101.018 96.6731 81.6584 96.6731 28.1175C96.6731 28.1175 96.6731 22.6727 90.3208 19.6478C83.9685 16.6229 53.2561 4.0695 53.2561 4.0695C53.2561 4.0695 49.4845 2.4058 46.3083 4.0695Z" fill="#6C63FF"/>
<path opacity="0.1" d="M49.9371 14.9595V89.1889C49.9371 89.1889 15.7557 72.7353 16.0581 29.479L49.9371 14.9595Z" fill="black"/>
<path d="M50.3841 68.3092L39.4956 54.3089L45.8278 49.384L50.9835 56.0128L68.4003 37.627L74.2245 43.1451L50.3841 68.3092Z" fill="white"/>
</svg>
