<svg width="110" height="102" viewBox="0 0 110 102" fill="none" xmlns="http://www.w3.org/2000/svg">
<path fill-rule="evenodd" clip-rule="evenodd" d="M51.1113 16.0592C61.2404 24.1471 63.4134 38.5098 56.5116 49.164L82.0052 69.5202L83.4098 67.7611C84.2713 66.6822 85.8443 66.5059 86.9233 67.3675C88.0022 68.229 88.1785 69.802 87.317 70.881L85.9124 72.64L91.7734 77.3199C93.9307 79.0425 94.2833 82.1896 92.5607 84.3469L83.1825 96.0921C82.3209 97.171 80.7479 97.3473 79.6689 96.4858C78.59 95.6242 78.4137 94.0512 79.2752 92.9722L88.6535 81.2271L82.7926 76.5472L73.2776 88.4635C72.4161 89.5425 70.8431 89.7187 69.7641 88.8572C68.6852 87.9957 68.5089 86.4226 69.3704 85.3437L78.8854 73.4274L53.3918 53.0712C44.5293 62.1597 30.0419 63.2193 19.9128 55.1315C9.12439 46.5171 7.36158 30.7845 15.9759 19.9961C24.5903 9.20768 40.3229 7.44486 51.1113 16.0592ZM47.9915 19.9665C55.9604 26.3295 57.7736 37.548 52.5799 46.0246L48.7861 42.9953C47.7071 42.1337 46.1341 42.31 45.2725 43.389C44.411 44.4679 44.5873 46.041 45.6662 46.9025L49.4601 49.9318C42.3432 56.8727 31.0016 57.5873 23.0327 51.2243C14.4021 44.333 12.9919 31.7465 19.8832 23.116C26.7745 14.4855 39.361 13.0752 47.9915 19.9665ZM27.6976 29.3557C24.2506 33.6726 24.9554 39.9628 29.2724 43.4098C30.3513 44.2713 30.5276 45.8444 29.666 46.9234C28.8045 48.0023 27.2315 48.1786 26.1525 47.317C19.6777 42.147 18.6204 32.7106 23.7904 26.2358C24.6519 25.1569 26.225 24.9806 27.3039 25.8421C28.3829 26.7037 28.5591 28.2767 27.6976 29.3557Z" fill="white"/>
</svg>
