<svg width="36" height="36" viewBox="0 0 36 36" fill="none" xmlns="http://www.w3.org/2000/svg">
<path d="M18.5167 12.7862C18.2576 12.7851 18.0028 12.8038 17.7524 12.8401C15.3376 13.1969 13.4301 15.2735 13.4147 17.7279C13.4048 19.4048 14.1439 20.8806 15.3167 21.8316L15.3804 21.8822L15.4134 21.9074C16.2534 22.5553 17.3055 22.9386 18.4585 22.9452C21.2039 22.9617 23.5429 20.694 23.5594 18.0002C23.5781 15.088 21.3664 12.8016 18.5167 12.7862ZM1.34392 12.6611C4.55491 12.6753 7.76586 12.6698 10.9769 12.671C11.0175 12.671 11.057 12.683 11.1569 12.6995C9.4603 15.2977 9.0496 18.0562 10.1005 20.9685C10.7935 22.887 12.0453 24.3826 13.7837 25.4577C17.2077 27.5782 21.6629 27.1126 24.573 24.3771C27.4776 21.6483 28.5571 16.8351 25.7546 12.6687H28.3693C30.7698 12.6687 33.1715 12.6753 35.5731 12.6611C35.8905 12.66 35.9761 12.7401 35.975 13.0619C35.9651 18.2056 35.9761 23.3493 35.9651 28.493C35.9574 32.1739 32.8332 35.2674 29.1511 35.2685C22.0472 35.2685 14.9433 35.2685 7.83835 35.2685C4.13101 35.2685 1.01339 32.1718 1.009 28.4655C1.00129 23.3361 1.00789 18.2078 1.00461 13.0784C1.0035 12.8313 0.990329 12.6589 1.34392 12.6611ZM18.4914 10.9633C22.2735 10.9666 25.3472 14.0447 25.3658 17.8476C25.3845 21.6713 22.2921 24.7527 18.4365 24.7516C14.649 24.7505 11.5709 21.6757 11.5534 17.8772C11.5369 14.0711 14.6578 10.9611 18.4914 10.9633ZM29.8353 3.03472C29.217 3.03472 28.5988 3.03911 27.9816 3.04682C27.684 3.05121 27.4347 3.13905 27.2492 3.29391C27.0109 3.49268 26.8758 3.80233 26.8725 4.1823C26.867 4.80714 26.8703 5.43199 26.8714 6.05793C26.8714 6.68278 26.8648 7.30762 26.8725 7.93247C26.8802 8.60342 27.3238 9.04378 28.0003 9.04706C29.2214 9.05366 30.4437 9.05477 31.6648 9.04706C32.1919 9.04378 32.5938 8.74836 32.7289 8.29373C32.7608 8.18833 32.7772 8.07523 32.7783 7.95552C32.7893 6.69045 32.7882 5.42649 32.7783 4.16253C32.7739 3.51024 32.3412 3.05671 31.6889 3.04793C31.0707 3.03911 30.4524 3.03472 29.8353 3.03472ZM10.5628 0.127937C16.7992 0.140035 23.0356 0.130149 29.2708 0.138929C32.6224 0.14332 35.6664 2.96227 35.9212 6.30831C36.0486 7.97968 35.9377 9.65763 35.9739 11.3334C35.9805 11.6189 35.8355 11.6101 35.6357 11.609C34.1005 11.6058 32.5664 11.6068 31.0323 11.6068C29.1149 11.6068 27.1975 11.6024 25.2791 11.6123C24.9815 11.6134 24.7629 11.5432 24.5312 11.3279C21.0633 8.10046 15.7428 8.14112 12.3089 11.4125C12.1486 11.5651 11.9915 11.6112 11.7829 11.6101C8.31715 11.6058 4.85029 11.6068 1.38454 11.6068C1.19566 11.6068 0.992507 11.6727 1.00022 11.3345C1.04083 9.64667 0.904671 7.95113 1.06389 6.26876C1.25387 4.27124 2.23231 2.68552 3.82463 1.47427C3.84219 1.46 3.87406 1.46439 3.95202 1.45232C3.95202 3.79684 3.95969 6.11172 3.94434 8.42554C3.94102 8.75936 4.02668 8.8483 4.35943 8.84062C5.32909 8.82085 5.33019 8.83624 5.33019 7.87754C5.33019 5.57586 5.32909 3.27414 5.33019 0.973529C5.33019 0.664944 6.01325 0.214702 6.28229 0.353075C6.42505 0.425563 6.35035 0.581498 6.35146 0.696781C6.35585 2.95456 6.35474 5.21345 6.35474 7.47234V7.76993C6.35474 8.84612 6.35474 8.83513 7.3991 8.83952C7.69341 8.84062 7.78346 8.76485 7.77907 8.46287C7.76258 7.18463 7.77246 5.90639 7.77246 4.62705C7.77246 3.24998 7.79224 1.8707 7.76147 0.493627C7.75159 0.0203282 8.0404 0.151028 8.2831 0.136751C8.54336 0.122475 8.7564 0.0829298 8.75311 0.503514C8.73006 3.13138 8.74872 5.75924 8.73334 8.3871C8.73113 8.7308 8.80144 8.84941 9.1671 8.84173C10.1587 8.81975 10.1598 8.83734 10.1598 7.8457C10.1598 5.4166 10.1653 2.98751 10.1532 0.558441C10.151 0.241076 10.2103 0.126865 10.5628 0.127937Z" fill="#FC6681"/>
</svg>
