<svg width="150" height="139" viewBox="0 0 150 139" fill="none" xmlns="http://www.w3.org/2000/svg">
<path d="M135.146 138.267H15.0105C11.0709 138.267 7.29267 136.702 4.50696 133.916C1.72125 131.131 0.15625 127.352 0.15625 123.413V68.3726C0.15625 67.5734 0.319079 66.7824 0.634792 66.0482C0.950504 65.3139 1.41248 64.6516 1.99256 64.1018L65.6525 3.75748C68.1977 1.34481 71.5712 0 75.0782 0C78.5852 0 81.9587 1.34481 84.504 3.75748L145.2 61.2925C146.717 62.7298 147.924 64.4609 148.749 66.3802C149.575 68.2995 150 70.3669 150 72.4561V123.413C150 125.363 149.616 127.295 148.869 129.097C148.123 130.899 147.029 132.537 145.649 133.916C144.27 135.296 142.633 136.39 140.83 137.136C139.028 137.883 137.097 138.267 135.146 138.267Z" fill="white"/>
<path opacity="0.1" d="M0.15625 69.2764H148.751V129.298C148.751 131.676 147.806 133.958 146.124 135.64C144.442 137.322 142.161 138.267 139.782 138.267H9.12574C6.74688 138.267 4.46546 137.322 2.78335 135.64C1.10124 133.958 0.15625 131.676 0.15625 129.298V69.2764Z" fill="black"/>
<path d="M122.004 21.9819H27.8401C23.3262 21.9819 19.667 25.6411 19.667 30.155V124.319C19.667 128.833 23.3262 132.492 27.8401 132.492H122.004C126.518 132.492 130.177 128.833 130.177 124.319V30.155C130.177 25.6411 126.518 21.9819 122.004 21.9819Z" fill="#3521B5"/>
<path opacity="0.1" d="M130.177 71.7583V132.492H19.667V71.7583L74.9219 98.4649L130.177 71.7583Z" fill="black"/>
<path d="M74.922 101.899L4.12265 67.6793C3.68473 67.4677 3.20024 67.3707 2.71459 67.3974C2.22894 67.4242 1.75803 67.5738 1.34602 67.8323C0.933997 68.0908 0.594358 68.4496 0.358932 68.8752C0.123506 69.3008 4.89929e-07 69.7793 0 70.2657V129.142C-4.09953e-07 130.32 0.231999 131.486 0.682759 132.574C1.13352 133.662 1.79421 134.651 2.62711 135.484C3.46 136.317 4.44879 136.978 5.53702 137.429C6.62525 137.879 7.79161 138.111 8.9695 138.111H140.874C142.052 138.111 143.219 137.879 144.307 137.429C145.395 136.978 146.384 136.317 147.217 135.484C148.05 134.651 148.71 133.662 149.161 132.574C149.612 131.486 149.844 130.32 149.844 129.142V71.2742C149.844 70.6807 149.693 70.0969 149.406 69.5776C149.119 69.0582 148.704 68.6203 148.201 68.3049C147.699 67.9895 147.124 67.8069 146.531 67.7742C145.939 67.7416 145.348 67.86 144.813 68.1182L74.922 101.899Z" fill="white"/>
<path d="M60.0938 32.1274H29.1885V36.4979H60.0938V32.1274Z" fill="#F2F2F2"/>
<path d="M118.47 48.0483H26.6909V50.5457H118.47V48.0483Z" fill="#F2F2F2"/>
<path d="M118.47 56.4771H26.6909V58.9744H118.47V56.4771Z" fill="#F2F2F2"/>
<path d="M118.47 64.9058H26.6909V67.4032H118.47V64.9058Z" fill="#F2F2F2"/>
<path d="M24.1937 36.5443C31.2625 36.5443 36.9929 30.8035 36.9929 23.7219C36.9929 16.6402 31.2625 10.8994 24.1937 10.8994C17.1249 10.8994 11.3945 16.6402 11.3945 23.7219C11.3945 30.8035 17.1249 36.5443 24.1937 36.5443Z" fill="white"/>
<path d="M24.1935 8.71436C21.1682 8.71436 18.2107 9.61149 15.6952 11.2923C13.1797 12.9731 11.2191 15.3621 10.0614 18.1572C8.9036 20.9523 8.60068 24.0279 9.1909 26.9951C9.78112 29.9624 11.238 32.688 13.3772 34.8272C15.5165 36.9665 18.2421 38.4234 21.2093 39.0136C24.1766 39.6038 27.2522 39.3009 30.0473 38.1431C32.8424 36.9853 35.2314 35.0248 36.9122 32.5092C38.593 29.9937 39.4901 27.0363 39.4901 24.0109C39.4782 19.9577 37.8628 16.0738 34.9967 13.2077C32.1307 10.3416 28.2468 8.72622 24.1935 8.71436ZM21.0533 32.1666L13.2138 24.3271L15.4127 22.1283L21.0607 27.7762L32.9817 15.8552L35.1806 18.0541L21.0533 32.1666Z" fill="#57B894"/>
</svg>
