<svg width="40" height="40" viewBox="0 0 40 40" fill="none" xmlns="http://www.w3.org/2000/svg">
<circle cx="20" cy="20" r="20" fill="#22CCC2" fill-opacity="0.15"/>
<path d="M13.8125 22.4047L12.125 24.1659V27.3125H13.8125V22.4047ZM22.25 21.5997L20.5625 23.3604V27.281H22.25V21.5997ZM17.75 21.2099V27.281H19.4375V22.9711L17.75 21.2099ZM16.625 20.0911L14.9375 21.8517V27.3125H16.625V20.0911ZM25.0625 18.9582L23.375 20.7194V27.281H25.0625V18.9582ZM26.1875 18.0498V27.281H27.875V19.8104L26.1875 18.0498ZM11.8848 11H28.1152C28.604 11 29 11.3943 29 11.8809V28.1197C29 28.6062 28.604 29 28.1152 29H11.8848C11.396 29 11 28.6062 11 28.1197V23.1078L16.5935 17.5402L20.1856 21.1154L25.7971 15.5309L27.3125 17.1357V12.6808H22.9334L24.5461 14.2861L20.1856 18.6252L16.5935 15.05L11 20.6176V11.8809C11 11.3943 11.396 11 11.8848 11Z" fill="#427A98"/>
</svg>
