<svg width="30" height="44" viewBox="0 0 30 44" fill="none" xmlns="http://www.w3.org/2000/svg">
<path d="M26.9264 0.0909271C26.6451 0.0904541 26.3664 0.134315 26.1064 0.219986C25.8464 0.305656 25.6103 0.431442 25.4117 0.590099L0.627682 20.3351C0.42869 20.4935 0.270835 20.6815 0.163134 20.8885C0.0554339 21.0955 0 21.3174 0 21.5414C0 21.7655 0.0554339 21.9873 0.163134 22.1943C0.270835 22.4013 0.42869 22.5894 0.627682 22.7477L26.3431 43.2276C26.7449 43.5476 27.2897 43.7273 27.8579 43.7273C28.426 43.7273 28.9709 43.5476 29.3726 43.2276C29.7743 42.9077 30 42.4737 30 42.0213C30 41.5688 29.7743 41.1349 29.3726 40.815L5.17185 21.5414L28.4411 3.00276C28.7408 2.76424 28.9449 2.46029 29.0276 2.12935C29.1103 1.79842 29.0679 1.45539 28.9057 1.14367C28.7436 0.831936 28.469 0.565521 28.1166 0.378128C27.7643 0.190735 27.3501 0.090786 26.9264 0.0909271Z" fill="#212327" fill-opacity="0.2"/>
</svg>
