<svg width="40" height="40" viewBox="0 0 40 40" fill="none" xmlns="http://www.w3.org/2000/svg">
<circle cx="20" cy="20" r="20" fill="#559878" fill-opacity="0.15"/>
<path d="M14.205 19.5353C15.1595 19.5353 16.1843 18.267 16.1843 16.9642C16.1843 15.661 15.2984 14.8169 14.205 14.8169C13.112 14.8169 12.2256 15.661 12.2256 16.9642C12.2258 18.267 13.2193 19.5353 14.205 19.5353Z" fill="#559878"/>
<path d="M26.5946 19.5353C27.5492 19.5353 28.574 18.267 28.574 16.9642C28.574 15.661 27.6878 14.8169 26.5946 14.8169C25.5014 14.8169 24.6152 15.661 24.6152 16.9642C24.6152 18.267 25.6089 19.5353 26.5946 19.5353Z" fill="#559878"/>
<path d="M20.4332 20.0359C21.8968 20.0359 23.4684 18.0907 23.4684 16.0928C23.4684 14.0947 22.1096 12.8 20.4332 12.8C18.7569 12.8 17.3979 14.0947 17.3979 16.0928C17.3979 18.0907 18.9217 20.0359 20.4332 20.0359Z" fill="#559878"/>
<path d="M25.8634 23.4376C25.4965 22.7103 25.2292 22.3439 24.7311 21.8262C24.3005 21.3786 23.0155 20.748 22.1861 21.0254C21.5246 21.1703 21.4933 21.5512 20.4337 21.5512C19.374 21.5512 19.3425 21.1703 18.6808 21.0254C17.8514 20.748 16.5666 21.3786 16.1358 21.8262C15.6375 22.3439 15.3703 22.7106 15.0037 23.4376C14.8197 23.8022 14.4363 24.8656 14.6742 25.3233C14.9751 25.9023 15.7077 26.1419 17.7213 26.3881C18.9273 26.5356 20.4337 26.5356 20.4337 26.5356C20.4337 26.5356 21.9395 26.5356 23.1458 26.3881C25.1594 26.1419 25.8916 25.9023 26.1929 25.3233C26.431 24.8656 26.0474 23.8022 25.8634 23.4376Z" fill="#559878"/>
<path d="M30.1358 21.7536C29.897 21.2792 29.7224 21.0406 29.3976 20.7026C29.1168 20.4107 28.2789 19.9995 27.7381 20.1804C27.3062 20.275 27.2863 20.5233 26.5953 20.5233C25.9043 20.5233 25.884 20.275 25.4525 20.1804C25.0177 20.0351 24.3917 20.2723 24.0166 20.5224C24.5326 20.735 24.9911 21.0301 25.264 21.3138C25.831 21.9031 26.137 22.3384 26.524 23.1052C26.5989 23.2538 26.6999 23.4942 26.7905 23.772C27.1155 23.7669 27.7907 23.7479 28.3637 23.6777C29.6768 23.5172 30.1546 23.3609 30.3508 22.9833C30.506 22.6849 30.2561 21.9912 30.1358 21.7536Z" fill="#559878"/>
<path d="M14.3432 23.1047C14.73 22.3377 15.036 21.9027 15.6029 21.3134C15.8685 21.0375 16.3098 20.7507 16.8088 20.5396C16.4373 20.2832 15.7923 20.0317 15.3474 20.1804C14.916 20.275 14.8956 20.5233 14.2048 20.5233C13.5136 20.5233 13.4932 20.275 13.062 20.1804C12.521 19.9995 11.6833 20.4107 11.4023 20.7026C11.0775 21.0404 10.9033 21.2792 10.6639 21.7536C10.5441 21.9912 10.2942 22.6849 10.4491 22.9831C10.6454 23.3609 11.1229 23.517 12.4358 23.6775C13.0502 23.7526 13.7814 23.7691 14.0734 23.7727C14.1966 23.4009 14.33 23.1311 14.3432 23.1047Z" fill="#559878"/>
</svg>
