<svg width="16" height="16" viewBox="0 0 16 16" fill="none" xmlns="http://www.w3.org/2000/svg">
<path d="M6.22275 1.06543C3.85227 1.06543 1.92383 2.99294 1.92383 5.36202C1.92383 7.73107 3.85227 9.65858 6.22275 9.65858C8.59322 9.65858 10.5212 7.73107 10.5212 5.36202C10.5212 2.99294 8.59322 1.06543 6.22275 1.06543ZM6.22275 0.12793C9.10981 0.12793 11.4587 2.4759 11.4587 5.36202C11.4587 6.5796 11.0407 7.70139 10.3405 8.59152L10.3344 8.59907L15.9863 14.4788L15.3109 15.1284L9.68965 9.2807L9.64739 9.3182C8.72865 10.114 7.53094 10.5961 6.22275 10.5961C3.33569 10.5961 0.986328 8.24812 0.986328 5.36202C0.986328 2.4759 3.33569 0.12793 6.22275 0.12793Z" fill="black"/>
</svg>
