<svg width="40" height="39" viewBox="0 0 40 39" fill="none" xmlns="http://www.w3.org/2000/svg">
<path d="M0.510025 12.4337H9.08379V38.2325H0.510025V12.4337ZM30.1325 11.8275C35.7688 11.8275 40 15.5162 40 23.4362V38.2312H31.4288V24.4325C31.4288 20.96 30.1838 18.5988 27.0813 18.5988C24.7137 18.5988 23.3038 20.195 22.6838 21.7325C22.4551 22.2813 22.4038 23.0537 22.4038 23.8263V38.2312H13.825C13.825 38.2312 13.94 14.8525 13.825 12.4337H22.4038V16.0912C22.3838 16.1163 22.365 16.1488 22.3463 16.1737H22.4038V16.0912C23.54 14.33 25.575 11.8275 30.1325 11.8275ZM4.8513 0C7.78755 0 9.59381 1.92875 9.645 4.45625C9.645 6.93375 7.78755 8.91377 4.80003 8.91377H4.74251C1.86378 8.91377 0 6.93375 0 4.45625C0 1.92875 1.92131 0 4.8513 0Z" fill="#1D1D1D"/>
</svg>
