<svg width="45" height="35" viewBox="0 0 45 35" fill="none" xmlns="http://www.w3.org/2000/svg">
<path d="M31.1555 0C33.8105 -2.85449e-07 36.2095 1.06544 37.8942 2.77212C39.9966 2.37866 41.9738 1.64837 43.7569 0.641213C43.0678 2.69279 41.6039 4.41242 39.697 5.49891C41.5645 5.28682 43.3448 4.8156 45 4.1161C43.7625 5.87783 42.1973 7.42423 40.3931 8.66129C40.4114 9.03858 40.4198 9.4175 40.4198 9.79804C40.4198 21.3999 31.133 34.7797 14.1525 34.7797C8.93813 34.7797 4.08656 33.3256 0 30.8336C0.722812 30.9145 1.45828 30.9566 2.20219 30.9566C6.52781 30.9566 10.5089 29.5528 13.6673 27.1984C9.62859 27.1272 6.21844 24.5881 5.04422 21.1003C5.60812 21.2039 6.1861 21.259 6.78094 21.259C7.62328 21.259 8.43891 21.1505 9.21235 20.9497C4.98938 20.1433 1.80704 16.5956 1.80704 12.3418C1.80704 12.3046 1.80704 12.2674 1.80844 12.2317C3.05297 12.8892 4.4775 13.2826 5.99063 13.3296C3.51281 11.754 1.88298 9.06773 1.88298 6.02034C1.88298 4.41242 2.3386 2.9033 3.13313 1.6079C7.68657 6.91901 14.4886 10.4133 22.1625 10.7809C22.005 10.1381 21.9234 9.4677 21.9234 8.77949C21.9234 3.93151 26.0564 -2.85449e-07 31.1555 0Z" fill="#212327"/>
</svg>
