<svg width="40" height="40" viewBox="0 0 40 40" fill="none" xmlns="http://www.w3.org/2000/svg">
<circle cx="20" cy="20" r="20" fill="#6F7E90" fill-opacity="0.15"/>
<path d="M14.205 19.5351C15.1595 19.5351 16.1843 18.2669 16.1843 16.964C16.1843 15.6609 15.2984 14.8168 14.205 14.8168C13.112 14.8168 12.2256 15.6609 12.2256 16.964C12.2258 18.2669 13.2193 19.5351 14.205 19.5351Z" fill="#6F7E90"/>
<path d="M26.5946 19.5351C27.5492 19.5351 28.574 18.2669 28.574 16.964C28.574 15.6609 27.6878 14.8168 26.5946 14.8168C25.5014 14.8168 24.6152 15.6609 24.6152 16.964C24.6152 18.2669 25.6089 19.5351 26.5946 19.5351Z" fill="#6F7E90"/>
<path d="M20.4332 20.0358C21.8968 20.0358 23.4684 18.0906 23.4684 16.0927C23.4684 14.0945 22.1096 12.7999 20.4332 12.7999C18.7569 12.7999 17.3979 14.0945 17.3979 16.0927C17.3979 18.0906 18.9217 20.0358 20.4332 20.0358Z" fill="#6F7E90"/>
<path d="M25.8634 23.4377C25.4965 22.7105 25.2292 22.3441 24.7311 21.8263C24.3005 21.3787 23.0155 20.7481 22.1861 21.0255C21.5246 21.1704 21.4933 21.5513 20.4337 21.5513C19.374 21.5513 19.3425 21.1704 18.6808 21.0255C17.8514 20.7481 16.5666 21.3787 16.1358 21.8263C15.6375 22.3441 15.3703 22.7107 15.0037 23.4377C14.8197 23.8023 14.4363 24.8658 14.6742 25.3234C14.9751 25.9024 15.7077 26.142 17.7213 26.3882C18.9273 26.5357 20.4337 26.5357 20.4337 26.5357C20.4337 26.5357 21.9395 26.5357 23.1458 26.3882C25.1594 26.142 25.8916 25.9024 26.1929 25.3234C26.431 24.8658 26.0474 23.8023 25.8634 23.4377Z" fill="#6F7E90"/>
<path d="M30.1358 21.7534C29.897 21.279 29.7224 21.0405 29.3976 20.7025C29.1168 20.4105 28.2789 19.9994 27.7381 20.1803C27.3062 20.2748 27.2863 20.5232 26.5953 20.5232C25.9043 20.5232 25.884 20.2748 25.4525 20.1803C25.0177 20.035 24.3917 20.2722 24.0166 20.5223C24.5326 20.7349 24.9911 21.03 25.264 21.3137C25.831 21.903 26.137 22.3383 26.524 23.1051C26.5989 23.2537 26.6999 23.494 26.7905 23.7719C27.1155 23.7668 27.7907 23.7478 28.3637 23.6776C29.6768 23.5171 30.1546 23.3608 30.3508 22.9832C30.506 22.6848 30.2561 21.9911 30.1358 21.7534Z" fill="#6F7E90"/>
<path d="M14.3432 23.1046C14.73 22.3376 15.036 21.9025 15.6029 21.3133C15.8685 21.0374 16.3098 20.7506 16.8088 20.5395C16.4373 20.2831 15.7923 20.0316 15.3474 20.1803C14.916 20.2748 14.8956 20.5232 14.2048 20.5232C13.5136 20.5232 13.4932 20.2748 13.062 20.1803C12.521 19.9994 11.6833 20.4105 11.4023 20.7025C11.0775 21.0403 10.9033 21.2791 10.6639 21.7534C10.5441 21.9911 10.2942 22.6848 10.4491 22.983C10.6454 23.3608 11.1229 23.5168 12.4358 23.6774C13.0502 23.7525 13.7814 23.769 14.0734 23.7726C14.1966 23.4008 14.33 23.131 14.3432 23.1046Z" fill="#6F7E90"/>
</svg>
