<svg width="500" height="452" viewBox="0 0 500 452" fill="none" xmlns="http://www.w3.org/2000/svg">
<path d="M151.566 448.438C158.213 442.772 162.251 433.821 161.192 425.108C160.133 416.394 153.575 408.384 145.068 406.533C136.561 404.683 126.864 409.805 124.28 418.188C122.858 402.026 121.219 385.187 112.701 371.423C104.988 358.961 91.6293 350.043 77.1514 348.448C62.6734 346.853 47.43 352.878 38.4006 364.405C29.3712 375.933 27.1604 392.692 33.4843 405.926C38.143 415.676 46.7258 422.931 55.7185 428.834C84.777 447.748 119.629 455.439 153.862 450.493" fill="#F2F2F2"/>
<path d="M52.7175 353.212C64.6636 363.028 75.6229 374.006 85.4368 385.987C100.796 404.674 113.224 425.626 122.289 448.112C122.953 449.753 120.312 450.467 119.656 448.844C104.824 412.3 81.1455 380.089 50.7865 355.16C49.4233 354.04 51.3654 352.101 52.7175 353.212Z" fill="white"/>
<path d="M253.858 76.0689H487.426C477.116 53.5805 460.64 34.5388 439.946 21.1933C419.252 7.84776 395.203 0.756104 370.642 0.756104C346.08 0.756104 322.032 7.84776 301.338 21.1933C280.643 34.5388 264.168 53.5805 253.858 76.0689H253.858Z" fill="#E6E6E6"/>
<path d="M266.682 189.582L256.881 184.748C255.824 184.226 254.606 184.15 253.493 184.535C252.381 184.92 251.465 185.736 250.949 186.802L213.403 264.263C212.25 266.64 212.081 269.381 212.933 271.884C213.785 274.387 215.587 276.446 217.943 277.608C220.3 278.771 223.017 278.941 225.498 278.082C227.979 277.223 230.02 275.405 231.172 273.028L268.718 195.567C269.235 194.501 269.311 193.271 268.929 192.149C268.547 191.027 267.739 190.103 266.682 189.582Z" fill="#6C63FF"/>
<path d="M229.214 210.309C228.849 207.782 231.3 205.559 233.811 205.224C236.321 204.889 238.795 205.896 241.131 206.883C245.281 208.636 249.497 210.429 252.962 213.324C256.427 216.218 259.093 220.429 259.066 224.967C259.04 229.286 256.659 233.186 254.357 236.828L232.763 270.988C230.478 274.602 227.894 278.46 223.869 279.831C221.184 280.624 218.314 280.502 215.705 279.484C211.767 278.005 208.4 275.296 206.096 271.751C203.792 268.206 202.672 264.011 202.898 259.778C203.637 249.994 211.336 242.49 217.1 234.586C222.804 226.752 226.885 217.839 229.1 208.378" fill="#FE8299"/>
<path d="M290.051 394.619C291.209 394.62 292.329 394.198 293.202 393.43L301.432 386.204C301.908 385.787 302.297 385.278 302.579 384.708C302.86 384.139 303.027 383.519 303.071 382.884C303.114 382.249 303.033 381.611 302.833 381.008C302.632 380.404 302.315 379.847 301.901 379.367L242.201 310.177C241.363 309.209 240.179 308.615 238.909 308.526C237.638 308.438 236.384 308.861 235.422 309.704L227.193 316.929C226.233 317.774 225.645 318.968 225.557 320.25C225.469 321.532 225.889 322.797 226.724 323.768L286.424 392.956C286.875 393.479 287.432 393.899 288.058 394.185C288.684 394.472 289.364 394.62 290.051 394.619Z" fill="#6C63FF"/>
<path d="M298.583 334.278C299.517 334.279 300.431 334.005 301.214 333.49C301.996 332.976 302.613 332.242 302.99 331.38L307.375 321.303C307.886 320.125 307.913 318.792 307.45 317.595C306.988 316.397 306.073 315.434 304.907 314.916L221.647 278.044C220.48 277.529 219.158 277.502 217.971 277.969C216.784 278.435 215.829 279.358 215.315 280.534L210.93 290.611C210.419 291.789 210.393 293.122 210.855 294.319C211.318 295.516 212.232 296.48 213.398 296.998L296.659 333.87C297.265 334.139 297.921 334.278 298.583 334.278Z" fill="#6C63FF"/>
<path d="M306.195 369.647L295.298 370.193C294.123 370.252 292.973 369.838 292.101 369.041C291.229 368.245 290.707 367.132 290.648 365.947L288.472 320.779C288.443 320.193 288.529 319.606 288.725 319.052C288.921 318.499 289.223 317.99 289.614 317.555C290.005 317.119 290.477 316.765 291.003 316.514C291.53 316.262 292.1 316.118 292.682 316.089L303.578 315.542C304.753 315.483 305.903 315.898 306.775 316.694C307.647 317.49 308.17 318.603 308.228 319.788L310.404 364.956C310.463 366.141 310.052 367.301 309.262 368.181C308.473 369.06 307.37 369.588 306.195 369.647Z" fill="#6C63FF"/>
<path d="M152.638 243.093C131.818 243.093 114.94 226.066 114.94 205.063C114.94 184.06 131.818 167.034 152.638 167.034C173.458 167.034 190.336 184.06 190.336 205.063C190.336 226.066 173.458 243.093 152.638 243.093Z" fill="#DADADA"/>
<path d="M166.715 270.858L166.649 270.545C166.489 269.781 166.529 268.987 166.767 268.244C167.004 267.5 167.431 266.832 168.004 266.306L182.397 253.098L180.708 251.14C180.325 250.697 180.033 250.183 179.848 249.625C179.663 249.068 179.588 248.48 179.628 247.894C179.669 247.308 179.823 246.735 180.083 246.209C180.342 245.683 180.702 245.214 181.141 244.828L190.062 236.995C190.949 236.216 192.107 235.825 193.28 235.907C194.454 235.989 195.547 236.538 196.319 237.433L197.711 239.045L210.758 227.071C211.336 226.542 212.042 226.175 212.805 226.008C213.567 225.842 214.36 225.881 215.103 226.122C232.472 231.769 248.056 241.939 260.281 255.606C272.505 269.273 280.938 285.952 284.728 303.959L284.793 304.272C284.954 305.037 284.914 305.83 284.676 306.574C284.439 307.317 284.012 307.985 283.44 308.511L240.685 347.746C240.107 348.276 239.402 348.643 238.639 348.809C237.876 348.976 237.083 348.936 236.34 348.695C218.971 343.049 203.387 332.878 191.162 319.212C178.937 305.545 170.504 288.865 166.715 270.858Z" fill="#FE8299"/>
<path d="M229.537 357.023L239.899 353.578C241.016 353.207 241.941 352.403 242.471 351.344C243.001 350.284 243.091 349.056 242.723 347.929L215.971 266.036C215.15 263.523 213.373 261.441 211.031 260.25C208.689 259.059 205.973 258.854 203.482 259.683C200.991 260.511 198.928 262.303 197.747 264.666C196.566 267.029 196.363 269.768 197.184 272.281L223.937 354.174C224.305 355.301 225.102 356.234 226.152 356.769C227.202 357.303 228.42 357.394 229.537 357.023Z" fill="#6C63FF"/>
<path d="M169.564 215.715C170.233 214.618 170.66 213.389 170.819 212.112C170.895 211.231 170.78 210.344 170.48 209.513C170.181 208.682 169.705 207.927 169.087 207.301C168.655 206.847 168.124 206.501 167.537 206.288C166.951 206.076 166.323 206.003 165.703 206.075C164.116 206.288 162.737 207.46 161.858 209.28L152.406 197.9L151.273 198.858L162.385 212.236L162.792 210.942C163.265 209.442 164.328 207.764 165.898 207.554C166.295 207.513 166.696 207.566 167.07 207.707C167.445 207.848 167.781 208.075 168.054 208.369C168.513 208.838 168.865 209.4 169.089 210.019C169.312 210.637 169.401 211.297 169.349 211.953C169.11 214.218 167.606 216.145 165.814 218.25L166.936 219.222C167.914 218.134 168.794 216.961 169.564 215.715Z" fill="#2F2E41"/>
<path d="M163.561 187.398L164.655 188.401L159.302 194.347L158.207 193.344L163.561 187.398Z" fill="#2F2E41"/>
<path d="M146.663 206.165L147.757 207.168L142.404 213.114L141.31 212.111L146.663 206.165Z" fill="#2F2E41"/>
<path d="M124.381 207.999C134.756 202.394 146.339 196.238 152.062 185.311C154.638 180.393 156.024 174.522 155.119 168.972C154.698 166.337 153.719 163.824 152.247 161.605C150.776 159.386 148.847 157.513 146.593 156.114C137.557 150.442 125.515 151.138 115.621 153.794C105.554 156.574 96.2999 161.763 88.6449 168.921C80.8511 176.072 74.8544 184.99 71.1497 194.94C69.3404 199.851 68.19 204.983 67.7291 210.202C67.2409 217.284 67.6271 224.399 68.8789 231.385C71.1234 245.077 75.3281 258.382 76.8987 272.194C78.3125 284.628 77.6244 297.866 71.466 309.023C66.6875 317.679 58.6178 324.1 49.5338 327.659C40.3816 331.318 30.2838 331.805 20.827 329.045C18.5346 328.338 16.3114 327.419 14.1854 326.301C12.9187 325.637 14.0387 323.706 15.3046 324.37C24.0511 328.956 34.3911 329.639 43.8603 327.158C53.3423 324.674 62.1805 319.013 67.7642 310.802C74.8542 300.376 76.0325 287.191 74.956 274.918C73.7301 260.943 69.4644 247.506 67.0396 233.738C65.6759 226.658 65.1173 219.444 65.3744 212.236C65.6561 206.779 66.6634 201.384 68.3691 196.198C71.8246 186.017 77.564 176.779 85.1398 169.203C92.7156 161.628 101.923 155.919 112.045 152.523C122.033 149.278 133.822 148.081 143.748 152.173C148.714 154.221 153.093 157.734 155.461 162.678C157.913 167.797 158.089 173.7 156.75 179.159C153.763 191.342 143.801 199.408 133.527 205.459C130.887 207.014 128.195 208.475 125.5 209.931C124.242 210.611 123.121 208.68 124.381 207.999V207.999Z" fill="#2F2E41"/>
<path d="M370.642 260.995C441.97 260.995 500 202.457 500 130.503C500.046 111.596 495.983 92.9077 488.097 75.7554C477.73 53.1354 461.161 33.9817 440.347 20.5576C419.534 7.13345 395.346 -3.84244e-05 370.642 1.55219e-10C345.938 3.84247e-05 321.75 7.13361 300.937 20.5578C280.124 33.982 263.555 53.1357 253.187 75.7558C245.301 92.9079 241.238 111.596 241.285 130.503C241.285 202.457 299.314 260.995 370.642 260.995ZM370.642 1.50181C395.052 1.55255 418.941 8.62413 439.507 21.887C460.073 35.15 476.463 54.0541 486.755 76.382C494.551 93.338 498.567 111.812 498.521 130.503C498.521 201.634 441.155 259.504 370.642 259.504C300.129 259.504 242.763 201.634 242.763 130.503C242.717 111.812 246.733 93.3383 254.529 76.3824C264.821 54.0544 281.211 35.1501 301.777 21.8872C322.344 8.62419 346.233 1.55256 370.642 1.50181Z" fill="#3F3D56"/>
<path d="M323.125 62.0676H418.805C419.393 62.0684 419.975 61.9523 420.518 61.7261C421.061 61.4998 421.554 61.1677 421.97 60.7489C422.386 60.3301 422.715 59.8328 422.94 59.2853C423.165 58.7378 423.281 58.151 423.281 57.5583C423.281 56.9656 423.165 56.3788 422.94 55.8313C422.715 55.2838 422.386 54.7865 421.97 54.3677C421.554 53.9488 421.061 53.6168 420.518 53.3905C419.975 53.1643 419.393 53.0482 418.805 53.049H323.125C322.538 53.0482 321.956 53.1643 321.413 53.3905C320.87 53.6168 320.376 53.9488 319.96 54.3677C319.545 54.7865 319.215 55.2838 318.99 55.8313C318.765 56.3788 318.649 56.9656 318.649 57.5583C318.649 58.151 318.765 58.7378 318.99 59.2853C319.215 59.8328 319.545 60.3301 319.96 60.7489C320.376 61.1677 320.87 61.4998 321.413 61.7261C321.956 61.9523 322.538 62.0684 323.125 62.0676Z" fill="white"/>
<path d="M353.801 42.6802H388.129C388.717 42.681 389.299 42.5649 389.842 42.3386C390.385 42.1123 390.878 41.7803 391.294 41.3615C391.709 40.9427 392.039 40.4453 392.264 39.8978C392.489 39.3504 392.605 38.7635 392.605 38.1708C392.605 37.5782 392.489 36.9913 392.264 36.4439C392.039 35.8964 391.709 35.399 391.294 34.9802C390.878 34.5614 390.385 34.2294 389.842 34.0031C389.299 33.7768 388.717 33.6607 388.129 33.6615H353.801C353.214 33.6607 352.632 33.7768 352.089 34.0031C351.546 34.2294 351.052 34.5614 350.637 34.9802C350.221 35.399 349.891 35.8964 349.666 36.4439C349.441 36.9913 349.325 37.5782 349.325 38.1708C349.325 38.7635 349.441 39.3504 349.666 39.8978C349.891 40.4453 350.221 40.9427 350.637 41.3615C351.052 41.7803 351.546 42.1123 352.089 42.3386C352.632 42.5649 353.214 42.681 353.801 42.6802Z" fill="white"/>
<path d="M418.71 121.101L421.597 120.148C431.902 116.643 438.672 114.405 441.083 108.921C441.552 107.905 441.817 106.806 441.864 105.686C441.911 104.566 441.739 103.448 441.358 102.396C440.977 101.343 440.394 100.377 439.642 99.5514C438.89 98.7261 437.985 98.0582 436.978 97.5859C436.904 97.5511 436.829 97.5174 436.754 97.4848C435.53 96.9451 434.205 96.6804 432.87 96.7093C431.535 96.7381 430.222 97.0598 429.023 97.6518C428.653 96.3574 428.008 95.1598 427.133 94.142C426.259 93.1241 425.175 92.3106 423.957 91.7578C421.917 90.8163 419.589 90.7309 417.487 91.5205C415.384 92.3101 413.678 93.91 412.745 95.9682C412.711 96.0432 412.678 96.1187 412.646 96.1947C410.235 101.678 413.133 108.243 417.473 118.302L418.71 121.101Z" fill="#FF6584"/>
<path d="M329.813 206.896H412.851C415.424 206.893 417.891 205.861 419.711 204.025C421.53 202.19 422.554 199.701 422.557 197.105V143.8C422.554 141.204 421.53 138.715 419.711 136.88C417.891 135.044 415.424 134.012 412.851 134.009H329.813C327.24 134.012 324.773 135.044 322.954 136.88C321.134 138.715 320.111 141.204 320.108 143.8V197.105C320.111 199.701 321.134 202.19 322.954 204.025C324.773 205.861 327.24 206.893 329.813 206.896ZM412.851 136.184C414.852 136.187 416.771 136.99 418.186 138.417C419.602 139.845 420.398 141.781 420.4 143.8V197.105C420.398 199.124 419.602 201.06 418.186 202.488C416.771 203.915 414.852 204.718 412.851 204.72H329.813C327.812 204.718 325.893 203.915 324.478 202.488C323.063 201.06 322.267 199.124 322.264 197.105V143.8C322.267 141.781 323.063 139.845 324.478 138.417C325.893 136.99 327.812 136.187 329.813 136.184H412.851Z" fill="#3F3D56"/>
<path d="M371.777 169.971C373.996 169.975 376.163 169.291 377.984 168.012L419.65 138.625L418.415 136.843L376.748 166.229C375.307 167.237 373.599 167.783 371.846 167.797C370.093 167.811 368.377 167.292 366.921 166.307L324.027 137.053L322.82 138.856L365.713 168.11C367.505 169.327 369.617 169.975 371.777 169.971Z" fill="#3F3D56"/>
<path d="M371.871 182.963C364.724 182.963 358.93 177.118 358.93 169.909C358.93 162.699 364.724 156.854 371.871 156.854C379.018 156.854 384.812 162.699 384.812 169.909C384.812 177.118 379.018 182.963 371.871 182.963Z" fill="#3F3D56"/>
<path d="M0.882782 452H327.82C327.936 452 328.05 451.978 328.158 451.933C328.265 451.889 328.362 451.823 328.444 451.741C328.526 451.658 328.591 451.56 328.635 451.452C328.68 451.345 328.703 451.229 328.703 451.112C328.703 450.995 328.68 450.88 328.635 450.772C328.591 450.664 328.526 450.566 328.444 450.483C328.362 450.401 328.265 450.336 328.158 450.291C328.05 450.247 327.936 450.224 327.82 450.224H0.882782C0.766998 450.224 0.652283 450.247 0.545197 450.291C0.43811 450.336 0.34079 450.401 0.258789 450.483C0.176788 450.566 0.111725 450.664 0.0673218 450.772C0.0229187 450.88 9.15527e-05 450.995 9.15527e-05 451.112C9.15527e-05 451.229 0.0229187 451.345 0.0673218 451.452C0.111725 451.56 0.176788 451.658 0.258789 451.741C0.34079 451.823 0.43811 451.889 0.545197 451.933C0.652283 451.978 0.766998 452 0.882782 452Z" fill="#E6E6E6"/>
<path d="M237.141 311.853C239.19 313.353 239.057 316.676 237.543 318.723C236.028 320.77 233.586 321.854 231.255 322.852C227.114 324.626 222.898 326.42 218.424 326.903C213.951 327.385 209.101 326.371 205.899 323.183C202.851 320.15 201.745 315.707 200.767 311.503L191.593 272.059C190.623 267.887 189.688 263.327 191.525 259.462C192.836 256.969 194.926 254.982 197.469 253.807C201.268 251.995 205.541 251.454 209.666 252.265C213.791 253.075 217.551 255.194 220.397 258.313C226.826 265.676 226.778 276.475 228.366 286.155C229.944 295.745 233.422 304.915 238.592 313.118" fill="#FE8299"/>
</svg>
