<svg width="15" height="15" viewBox="0 0 15 15" fill="none" xmlns="http://www.w3.org/2000/svg">
<path d="M7.5 0C6.01664 0 4.56659 0.439867 3.33323 1.26398C2.09986 2.08809 1.13856 3.25943 0.570907 4.62987C0.00324962 6.00032 -0.145275 7.50832 0.144114 8.96317C0.433503 10.418 1.14781 11.7544 2.1967 12.8033C3.2456 13.8522 4.58197 14.5665 6.03682 14.8559C7.49168 15.1453 8.99968 14.9967 10.3701 14.4291C11.7406 13.8614 12.9119 12.9001 13.736 11.6668C14.5601 10.4334 15 8.98336 15 7.5C15 5.51087 14.2098 3.60322 12.8033 2.1967C11.3968 0.790176 9.48912 0 7.5 0V0ZM7.593 11.3295C7.62529 11.3468 7.66136 11.3559 7.698 11.3559C7.73464 11.3559 7.77072 11.3468 7.803 11.3295C7.93258 11.2354 8.05042 11.1261 8.154 11.004C8.304 10.8255 8.436 10.632 8.5845 10.431L8.793 10.557C8.493 11.058 8.184 11.523 7.725 11.871C7.48388 12.063 7.19405 12.184 6.888 12.2205C6.1725 12.3015 5.715 11.814 5.886 11.112C6.036 10.4955 6.2265 9.888 6.4005 9.276C6.5745 8.664 6.75 8.028 6.927 7.407C6.94126 7.34569 6.95178 7.28358 6.9585 7.221C6.97208 7.16865 6.97395 7.11396 6.96396 7.06081C6.95396 7.00766 6.93237 6.95737 6.90071 6.91353C6.86904 6.86969 6.8281 6.83338 6.78078 6.80719C6.73347 6.78099 6.68096 6.76556 6.627 6.762C6.51828 6.75239 6.40914 6.74838 6.3 6.75C6.30187 6.71403 6.30739 6.67834 6.3165 6.6435L6.3375 6.4935L8.9235 6.0795L8.7435 6.7065L8.703 6.8565C8.328 8.1665 7.9515 9.481 7.5735 10.8C7.53493 10.9033 7.51021 11.0112 7.5 11.121C7.49992 11.1603 7.50817 11.1993 7.5242 11.2352C7.54023 11.2711 7.56367 11.3033 7.593 11.3295ZM8.214 4.65C8.09122 4.64921 7.96981 4.62421 7.85671 4.5764C7.74362 4.5286 7.64107 4.45895 7.55495 4.37143C7.46883 4.28392 7.40083 4.18027 7.35485 4.06642C7.30887 3.95258 7.28581 3.83077 7.287 3.708C7.287 3.58567 7.3111 3.46454 7.35791 3.35153C7.40472 3.23851 7.47333 3.13583 7.55983 3.04933C7.64633 2.96283 7.74902 2.89422 7.86203 2.84741C7.97505 2.80059 8.09618 2.7765 8.2185 2.7765C8.34083 2.7765 8.46196 2.80059 8.57497 2.84741C8.68799 2.89422 8.79067 2.96283 8.87717 3.04933C8.96367 3.13583 9.03228 3.23851 9.07909 3.35153C9.12591 3.46454 9.15 3.58567 9.15 3.708C9.14961 3.95668 9.05107 4.19515 8.87579 4.37155C8.70051 4.54795 8.46267 4.64802 8.214 4.65Z" fill="#212327" fill-opacity="0.8"/>
</svg>
