<svg width="15" height="15" viewBox="0 0 15 15" fill="none" xmlns="http://www.w3.org/2000/svg">
<path d="M2.10938 2.34375H0.234375C0.105469 2.34375 0 2.23828 0 2.10938V0.234375C0 0.105469 0.105469 0 0.234375 0H2.10938C2.23828 0 2.34375 0.105469 2.34375 0.234375V2.10938C2.34375 2.23828 2.23828 2.34375 2.10938 2.34375ZM0.46875 1.875H1.875V0.46875H0.46875V1.875Z" fill="#3521B5"/>
<path d="M2.10938 15H0.234375C0.105469 15 0 14.8945 0 14.7656V12.8906C0 12.7617 0.105469 12.6562 0.234375 12.6562H2.10938C2.23828 12.6562 2.34375 12.7617 2.34375 12.8906V14.7656C2.34375 14.8945 2.23828 15 2.10938 15ZM0.46875 14.5312H1.875V13.125H0.46875V14.5312Z" fill="#3521B5"/>
<path d="M2.10938 8.67188H0.234375C0.105469 8.67188 0 8.56641 0 8.4375V6.5625C0 6.43359 0.105469 6.32812 0.234375 6.32812H2.10938C2.23828 6.32812 2.34375 6.43359 2.34375 6.5625V8.4375C2.34375 8.56641 2.23828 8.67188 2.10938 8.67188ZM0.46875 8.20312H1.875V6.79688H0.46875V8.20312Z" fill="#3521B5"/>
<path d="M3.98438 1.40625C3.85547 1.40625 3.75 1.30078 3.75 1.17188C3.75 1.04297 3.85547 0.9375 3.98438 0.9375H14.7656C14.8945 0.9375 15 1.04297 15 1.17188C15 1.30078 14.8945 1.40625 14.7656 1.40625H3.98438Z" fill="#3521B5"/>
<path d="M3.98438 7.73437C3.85547 7.73437 3.75 7.6289 3.75 7.5C3.75 7.37109 3.85547 7.26562 3.98438 7.26562L14.7656 7.25391C14.8945 7.25391 15 7.35938 15 7.48828C15 7.61719 14.8945 7.72266 14.7656 7.72266L3.98438 7.73437Z" fill="#3521B5"/>
<path d="M3.98438 14.0508C3.85547 14.0508 3.75 13.957 3.75 13.8281C3.75 13.6992 3.85547 13.5937 3.98438 13.5937L14.7656 13.582C14.8945 13.582 15 13.6875 15 13.8164C15 13.9453 14.8945 14.0508 14.7656 14.0508H3.98438Z" fill="#3521B5"/>
</svg>
