<svg width="18" height="20" viewBox="0 0 18 20" fill="none" xmlns="http://www.w3.org/2000/svg">
<path fill-rule="evenodd" clip-rule="evenodd" d="M3.51611 9.0002V10.029C3.51611 10.3051 3.29226 10.529 3.01611 10.529C2.73997 10.529 2.51611 10.3051 2.51611 10.029V9.0002H1.51611C1.24026 9.0002 1.01611 9.22434 1.01611 9.5002V18.5002C1.01611 18.7761 1.24026 19.0002 1.51611 19.0002H15.5161C15.792 19.0002 16.0161 18.7761 16.0161 18.5002V9.5002C16.0161 9.22434 15.792 9.0002 15.5161 9.0002H3.51611ZM3.51611 8.0002H11.5161V6.0009C11.5161 4.34468 10.1726 3.0009 8.51611 3.0009C7.16839 3.0009 5.99629 3.8985 5.63105 5.17464C5.55511 5.44173 5.51611 5.71883 5.51611 6.0009V6.5079C5.51611 6.78404 5.29226 7.0079 5.01611 7.0079C4.73997 7.0079 4.51611 6.78404 4.51611 6.5079V6.0009C4.51611 5.6259 4.56806 5.25679 4.66941 4.90032C5.15686 3.19718 6.71898 2.0009 8.51611 2.0009C10.7249 2.0009 12.5161 3.79243 12.5161 6.0009V8.0002H15.5161C16.3443 8.0002 17.0161 8.67206 17.0161 9.5002V18.5002C17.0161 19.3283 16.3443 20.0002 15.5161 20.0002H1.51611C0.687971 20.0002 0.0161133 19.3283 0.0161133 18.5002V9.5002C0.0161133 8.67206 0.687971 8.0002 1.51611 8.0002H2.51611V6C2.51611 2.68653 5.2023 0 8.51611 0C11.2126 0 13.5554 1.79398 14.2859 4.34977C14.4379 4.88241 14.5161 5.43678 14.5161 6V6.519C14.5161 6.79514 14.2923 7.019 14.0161 7.019C13.74 7.019 13.5161 6.79514 13.5161 6.519V6C13.5161 5.52997 13.451 5.06795 13.3244 4.62442C12.7158 2.49522 10.7632 1 8.51611 1C5.75461 1 3.51611 3.23878 3.51611 6V8.0002ZM8.51611 13.0002C7.96326 13.0002 7.51611 13.4473 7.51611 14.0002C7.51611 14.2763 7.29226 14.5002 7.01611 14.5002C6.73997 14.5002 6.51611 14.2763 6.51611 14.0002C6.51611 12.8951 7.41097 12.0002 8.51611 12.0002C9.62126 12.0002 10.5161 12.8951 10.5161 14.0002C10.5161 15.1053 9.62126 16.0002 8.51611 16.0002C8.23997 16.0002 8.01611 15.7763 8.01611 15.5002C8.01611 15.2241 8.23997 15.0002 8.51611 15.0002C9.06897 15.0002 9.51611 14.5531 9.51611 14.0002C9.51611 13.4473 9.06897 13.0002 8.51611 13.0002Z" fill="black"/>
</svg>
