<svg width="21" height="14" viewBox="0 0 21 14" fill="none" xmlns="http://www.w3.org/2000/svg">
<path fill-rule="evenodd" clip-rule="evenodd" d="M18.5161 0C19.3443 0 20.0161 0.671858 20.0161 1.5V12.5C20.0161 13.3281 19.3443 14 18.5161 14H1.51611C0.687971 14 0.0161133 13.3281 0.0161133 12.5V1.5C0.0161133 0.671858 0.687971 0 1.51611 0H18.5161ZM17.9961 1H1.51611C1.24026 1 1.01611 1.22414 1.01611 1.5V12.3842L6.82886 6.54333L2.90385 2.86787C2.70229 2.67912 2.6919 2.3627 2.88065 2.16114C3.0694 1.95957 3.38581 1.94919 3.58737 2.13793L9.72895 7.89601C9.90187 8.0168 10.1309 8.0168 10.256 7.93347L17.9961 1ZM18.0615 13H1.81411L7.55913 7.22717L9.10085 8.67087C9.67336 9.077 10.3604 9.077 10.8765 8.7154L19.0116 1.43275C19.0146 1.45475 19.0161 1.4772 19.0161 1.5V12.5C19.0161 12.5134 19.0156 12.5267 19.0145 12.5398L14.3654 7.87119C14.1706 7.67552 13.854 7.67485 13.6583 7.86971C13.4626 8.06456 13.462 8.38114 13.6568 8.57681L18.0615 13Z" fill="black"/>
</svg>
