<svg width="32" height="32" viewBox="0 0 32 32" fill="none" xmlns="http://www.w3.org/2000/svg">
<path fill-rule="evenodd" clip-rule="evenodd" d="M1.00063 26.6339L1.2641 9.57143L6.22733 12.4715L15.9332 18.1429L24.7567 13.1008L30.9332 9.57143V26.7143C30.9332 29.0812 29.353 31 27.4038 31H4.52943C2.55429 31 0.963606 29.0319 1.00063 26.6339Z" fill="#3521B5"/>
<path d="M1.2641 9.57143L6.22733 6.35714M1.2641 9.57143L6.22733 12.4715M1.2641 9.57143L1.00063 26.6339C0.963606 29.0319 2.55429 31 4.52943 31H27.4038C29.353 31 30.9332 29.0812 30.9332 26.7143V9.57143M30.9332 9.57143L24.7567 6.35714M30.9332 9.57143L24.7567 13.1008M6.22733 6.35714H24.7567M6.22733 6.35714V12.4715M6.22733 6.35714V2C6.22733 1.44771 6.67505 1 7.22733 1H23.7567C24.309 1 24.7567 1.44772 24.7567 2V6.35714M24.7567 6.35714V13.1008M6.22733 12.4715L15.9332 18.1429L24.7567 13.1008M10.6391 9.57143H21.2273M10.6391 12.4715H16.8156" stroke="#3521B5"/>
</svg>
