<svg width="599" height="407" viewBox="0 0 599 407" fill="none" xmlns="http://www.w3.org/2000/svg">
<g clip-path="url(#clip0)">
<path d="M84.395 400.327C130.461 400.327 167.806 362.86 167.806 316.643C167.806 270.425 130.461 232.958 84.395 232.958C38.3286 232.958 0.984375 270.425 0.984375 316.643C0.984375 362.86 38.3286 400.327 84.395 400.327Z" fill="#F2F2F2"/>
<path d="M185.295 353.761C144.521 353.761 105.008 339.577 73.4895 313.626C41.9708 287.674 20.3961 251.561 12.4414 211.44C4.48675 171.318 10.6443 129.671 29.8649 93.5935C49.0855 57.5162 80.1799 29.2414 117.85 13.5867C155.52 -2.06796 197.435 -4.13393 236.453 7.74085C275.471 19.6156 309.179 44.6964 331.831 78.7098C354.484 112.723 364.681 153.565 360.684 194.275C356.688 234.986 338.745 273.046 309.914 301.972C293.587 318.443 274.166 331.501 252.775 340.39C231.384 349.28 208.448 353.824 185.295 353.761ZM185.295 1.47784C88.8584 1.47784 10.4015 80.1916 10.4015 176.944C10.4015 273.697 88.8584 352.411 185.295 352.411C281.731 352.411 360.188 273.697 360.188 176.944C360.188 80.1916 281.731 1.47784 185.295 1.47784Z" fill="#8C87AF"/>
<path d="M277.114 232.91L277.094 232.92L190.232 281.446L95.1147 233.732L93.4756 232.91L98.4121 133.856L184.307 72.4426L185.255 73.0372L274.152 128.903L277.114 232.91Z" fill="#6C63FF"/>
<path opacity="0.3" d="M277.094 232.92L190.231 281.446L95.1143 233.732L179.37 174.468L277.094 232.92Z" fill="black"/>
<path opacity="0.1" d="M277.114 232.909L179.371 174.468L185.256 73.0369L274.152 128.903L277.114 232.909Z" fill="black"/>
<path d="M97.1468 164.421L96.6641 163.736L183.518 102.229L275.267 159.942L274.823 160.653L183.545 103.237L97.1468 164.421Z" fill="#F2F2F2"/>
<path d="M95.4646 198.073L94.9951 197.379L181.409 138.518L181.635 138.647L275.346 191.933L274.933 192.663L181.448 139.505L95.4646 198.073Z" fill="#F2F2F2"/>
<path d="M128.435 250.693L127.994 249.98L215.084 195.838V92.0464H215.921V196.306L128.435 250.693Z" fill="#F2F2F2"/>
<path d="M162.619 267.838L162.174 267.127L246.032 214.358V111.494H246.868V214.822L162.619 267.838Z" fill="#F2F2F2"/>
<path d="M245.716 250.703L148.189 196.338L148.203 196.076L153.337 94.2666L154.172 94.3094L149.052 195.858L246.123 249.969L245.716 250.703Z" fill="#F2F2F2"/>
<path d="M215.032 267.854L118.601 217.155L118.616 216.885L124.3 115.025L125.135 115.072L119.466 216.662L215.421 267.111L215.032 267.854Z" fill="#F2F2F2"/>
<path d="M293.594 72.3394C312.169 72.3394 327.228 57.2319 327.228 38.5959C327.228 19.9598 312.169 4.85229 293.594 4.85229C275.019 4.85229 259.961 19.9598 259.961 38.5959C259.961 57.2319 275.019 72.3394 293.594 72.3394Z" fill="#3F3D56"/>
<path d="M598.984 398.977H20.4912V400.327H598.984V398.977Z" fill="#2F2E41"/>
<path d="M531.821 217.472L539.509 238.599C539.509 238.599 531.487 262.744 539.509 263.415C547.531 264.085 548.534 240.275 548.534 240.275L544.189 214.789L531.821 217.472Z" fill="#FFB9B9"/>
<path d="M535.498 148.389L541.18 154.09V181.254C541.18 181.254 544.523 186.284 543.854 187.625C543.186 188.967 542.517 188.967 543.186 189.973C543.854 190.979 544.523 191.65 543.854 192.32C543.529 192.756 543.353 193.285 543.353 193.829C543.353 194.374 543.529 194.903 543.854 195.338C544.523 196.009 545.86 197.015 544.857 198.021C543.854 199.027 542.517 198.357 543.854 202.045C545.191 205.734 547.531 206.74 546.862 208.082C546.194 209.423 546.194 212.777 546.194 212.777L531.821 214.789L528.812 176.894L535.498 148.389Z" fill="#D0CDE1"/>
<path d="M546.862 212.442L530.149 213.112L530.818 220.155L545.526 217.472L546.862 212.442Z" fill="#3F3D56"/>
<path d="M500.902 113.345L498.896 133.467L519.286 136.484L520.79 124.915L522.295 113.345H500.902Z" fill="#FFB9B9"/>
<path opacity="0.1" d="M500.902 113.345L498.896 133.467L519.286 136.484L520.79 124.915L522.295 113.345H500.902Z" fill="black"/>
<path d="M456.614 209.088L467.979 233.568C467.979 233.568 469.984 244.97 472.993 245.306C476.001 245.641 479.009 233.568 479.009 233.568L474.998 227.197L470.319 209.088L456.614 209.088Z" fill="#FFB9B9"/>
<path d="M480.347 231.221L470.988 245.977C470.988 245.977 461.963 386.489 463.3 385.483C464.637 384.476 468.982 384.141 470.653 381.458C472.325 378.776 482.686 381.458 482.686 381.458L488.703 375.087V370.056C488.703 369.05 500.736 292.255 500.736 292.255V311.705C500.736 311.705 497.059 383.135 503.076 382.464C509.093 381.794 521.46 377.77 521.46 377.77C521.46 377.77 539.175 244.3 533.827 239.27C528.479 234.24 526.14 222.838 526.14 222.838L480.347 231.221Z" fill="#8C87AF"/>
<path d="M512.1 119.885C520.961 119.885 528.145 112.678 528.145 103.788C528.145 94.8982 520.961 87.6914 512.1 87.6914C503.239 87.6914 496.056 94.8982 496.056 103.788C496.056 112.678 503.239 119.885 512.1 119.885Z" fill="#FFB9B9"/>
<path d="M476.336 136.652L473.996 135.311C473.996 135.311 463.634 142.353 460.292 158.115C456.949 173.876 454.609 177.901 454.609 177.901C454.609 177.901 451.267 178.571 453.607 180.919C455.946 183.266 455.946 182.931 453.941 184.272C451.935 185.614 450.598 182.931 451.935 185.614C453.272 188.296 454.944 187.626 453.607 189.302C452.27 190.979 449.93 190.979 451.267 192.321C452.604 193.662 449.93 196.68 451.601 198.022C453.272 199.363 453.941 199.698 453.941 202.046C453.931 203.416 454.157 204.777 454.609 206.07H471.991C471.991 206.07 468.648 199.698 469.651 198.357C470.654 197.015 470.988 195.674 470.319 195.003C469.651 194.333 467.645 195.674 469.651 193.997C471.656 192.321 472.325 193.327 471.656 191.315C470.988 189.302 469.651 190.308 470.988 189.302C472.325 188.296 473.328 188.632 472.659 187.626C471.991 186.62 470.654 186.62 471.991 185.949C473.328 185.278 474.33 185.949 473.996 184.272C473.662 182.595 473.328 183.266 473.996 182.595C474.665 181.925 481.684 159.121 481.684 158.45C481.684 157.78 476.336 136.652 476.336 136.652Z" fill="#D0CDE1"/>
<path d="M472.995 204.728L451.936 206.07L457.284 211.1L471.992 211.436L472.995 204.728Z" fill="#3F3D56"/>
<path d="M479.01 229.88L474.665 237.928C474.665 237.928 487.7 239.605 492.38 241.282C497.06 242.958 509.093 245.306 509.093 245.306L512.101 233.569L479.01 229.88Z" fill="#3F3D56"/>
<path d="M517.115 233.568L520.792 244.635L535.499 241.617L533.828 231.221L517.115 233.568Z" fill="#3F3D56"/>
<path d="M523.131 125.251C523.131 125.251 522.129 124.58 519.789 125.921C517.449 127.263 509.761 127.934 506.085 123.909C502.408 119.885 499.734 116.532 498.731 117.202C497.728 117.873 497.06 125.586 497.06 125.586L493.717 128.269L473.996 135.311L475.667 180.584L478.676 190.979C478.676 190.979 476.336 199.028 479.344 203.723C482.352 208.418 477.673 210.094 477.673 210.094C477.673 210.094 476.67 211.436 477.339 214.789C478.007 218.143 476.67 230.551 476.67 230.551C476.67 230.551 505.082 243.294 534.83 232.228L531.488 219.484L529.817 190.979C529.817 190.979 531.488 186.285 531.154 184.272C530.819 182.26 541.181 154.091 541.181 154.091C541.181 154.091 539.51 140.006 530.819 136.988C522.129 133.97 520.792 130.952 520.792 130.952C520.792 130.952 524.803 126.592 523.131 125.251Z" fill="#D0CDE1"/>
<path d="M495.944 105.85C495.944 105.85 494.278 103.343 494.919 100.642C495.302 99.1093 495.453 97.5272 495.368 95.9491C496.085 93.6099 496.984 91.3312 498.059 89.1343C499.405 86.6912 498.764 85.6626 502.993 84.8911C507.223 84.1196 505.493 78.5905 516.643 84.5696C517.019 85.0966 517.542 85.4999 518.147 85.7288C518.751 85.9576 519.409 86.0017 520.039 85.8554C522.346 85.4054 523.179 88.62 523.179 88.62C523.179 88.62 524.717 87.7199 525.294 89.0057C525.87 90.2915 529.982 88.234 529.982 96.9133C529.982 105.593 525.303 113.345 525.303 113.345C525.303 113.345 525.646 98.7458 518.02 97.2671C510.395 95.7884 502.192 91.4809 500.206 97.0099C499.134 100.113 497.703 103.08 495.944 105.85Z" fill="#2F2E41"/>
<path d="M525.47 109.321C526.301 109.321 526.974 108.42 526.974 107.309C526.974 106.198 526.301 105.297 525.47 105.297C524.639 105.297 523.966 106.198 523.966 107.309C523.966 108.42 524.639 109.321 525.47 109.321Z" fill="#FFB9B9"/>
<path d="M516.947 376.581L519.298 383.656C519.298 383.656 519.298 390.732 521.649 394.269C524 397.807 526.35 405.472 516.947 406.062C507.544 406.651 503.431 403.113 503.431 403.113C503.431 403.113 505.194 398.397 503.431 396.628C501.667 394.859 503.431 391.321 503.431 391.321L505.194 377.17L516.947 376.581Z" fill="#2F2E41"/>
<path d="M471.154 376.581L468.803 383.656C468.803 383.656 468.803 390.732 466.452 394.269C464.101 397.807 461.751 405.472 471.154 406.062C480.557 406.651 484.671 403.113 484.671 403.113C484.671 403.113 482.908 398.397 484.671 396.628C486.434 394.859 484.671 391.321 484.671 391.321L482.908 377.17L471.154 376.581Z" fill="#2F2E41"/>
</g>
<defs>
<clipPath id="clip0">
<rect width="598" height="406" fill="white" transform="translate(0.984375 0.12793)"/>
</clipPath>
</defs>
</svg>
