<svg width="60" height="60" viewBox="0 0 60 60" fill="none" xmlns="http://www.w3.org/2000/svg">
<circle cx="30" cy="30" r="30" fill="#225BCC" fill-opacity="0.1"/>
<path d="M21.3074 29.3028C22.7393 29.3028 24.2765 27.4005 24.2765 25.4461C24.2765 23.4915 22.9475 22.2253 21.3074 22.2253C19.668 22.2253 18.3384 23.4915 18.3384 25.4461C18.3387 27.4005 19.8289 29.3028 21.3074 29.3028Z" fill="#225BCC"/>
<path d="M39.8919 29.3028C41.3238 29.3028 42.861 27.4005 42.861 25.4461C42.861 23.4915 41.5317 22.2253 39.8919 22.2253C38.2521 22.2253 36.9229 23.4915 36.9229 25.4461C36.9229 27.4005 38.4134 29.3028 39.8919 29.3028Z" fill="#225BCC"/>
<path d="M30.6495 30.0537C32.8449 30.0537 35.2023 27.136 35.2023 24.1391C35.2023 21.1419 33.1642 19.2 30.6495 19.2C28.1352 19.2 26.0967 21.1419 26.0967 24.1391C26.0967 27.136 28.3823 30.0537 30.6495 30.0537Z" fill="#225BCC"/>
<path d="M38.7951 35.1566C38.2448 34.0658 37.8438 33.5161 37.0966 32.7395C36.4508 32.0682 34.5233 31.1222 33.2792 31.5383C32.2869 31.7556 32.24 32.327 30.6505 32.327C29.061 32.327 29.0137 31.7556 28.0211 31.5383C26.777 31.1222 24.8499 32.0682 24.2037 32.7395C23.4562 33.5161 23.0555 34.0661 22.5056 35.1566C22.2296 35.7035 21.6545 37.2987 22.0113 37.9851C22.4626 38.8537 23.5615 39.2131 26.5819 39.5823C28.391 39.8037 30.6505 39.8037 30.6505 39.8037C30.6505 39.8037 32.9093 39.8037 34.7188 39.5823C37.7391 39.2131 38.8373 38.8537 39.2894 37.9851C39.6465 37.2987 39.0711 35.7035 38.7951 35.1566Z" fill="#225BCC"/>
<path d="M45.2037 32.6302C44.8455 31.9186 44.5836 31.5608 44.0964 31.0538C43.6752 30.6159 42.4184 29.9992 41.6072 30.2705C40.9593 30.4123 40.9295 30.7849 39.893 30.7849C38.8565 30.7849 38.8259 30.4123 38.1788 30.2705C37.5265 30.0525 36.5876 30.4083 36.0249 30.7835C36.7989 31.1024 37.4866 31.5451 37.8961 31.9706C38.7465 32.8546 39.2055 33.5074 39.786 34.6576C39.8983 34.8806 40.0499 35.2411 40.1857 35.6579C40.6733 35.6502 41.686 35.6217 42.5455 35.5164C44.5152 35.2757 45.2318 35.0413 45.5263 34.4749C45.759 34.0272 45.3841 32.9867 45.2037 32.6302Z" fill="#225BCC"/>
<path d="M21.5146 34.657C22.0947 33.5064 22.5538 32.8539 23.4042 31.9699C23.8026 31.5561 24.4645 31.1259 25.213 30.8094C24.6556 30.4247 23.6882 30.0475 23.0209 30.2705C22.3737 30.4123 22.3432 30.7849 21.307 30.7849C20.2701 30.7849 20.2396 30.4123 19.5928 30.2705C18.7813 29.9992 17.5248 30.6159 17.1032 31.0538C16.616 31.5605 16.3548 31.9186 15.9956 32.6302C15.8159 32.9867 15.441 34.0272 15.6734 34.4746C15.9678 35.0413 16.6841 35.2753 18.6535 35.5161C19.575 35.6288 20.6719 35.6536 21.1098 35.659C21.2946 35.1013 21.4948 34.6965 21.5146 34.657Z" fill="#225BCC"/>
</svg>
