<svg width="404" height="252" viewBox="0 0 404 252" fill="none" xmlns="http://www.w3.org/2000/svg">
<path d="M250.381 220.387L263.786 233.498L386.147 108.387L372.743 95.2765L250.381 220.387ZM236.977 207.277L241.445 211.647L363.806 86.5364L359.338 82.1664L236.977 207.277ZM297.273 65.1772C302.102 60.2398 310.013 60.1519 314.95 64.9808C319.887 69.8097 319.975 77.72 315.146 82.6574C310.318 87.5948 302.407 87.6827 297.47 82.8538C292.532 78.0249 292.445 70.1147 297.273 65.1772ZM275.423 87.5185C280.252 82.5811 288.162 82.4932 293.1 87.3221C298.037 92.151 298.125 100.061 293.296 104.999C288.467 109.936 280.557 110.024 275.62 105.195C270.682 100.366 270.594 92.4559 275.423 87.5185ZM183.358 154.837L228.04 198.537L350.401 73.4263L305.719 29.7259L183.358 154.837ZM174.421 146.097L296.782 20.9858C301.603 16.0572 309.531 15.9692 314.459 20.7894L363.61 68.8599L377.014 81.97L394.887 99.4502C399.816 104.27 399.904 112.198 395.084 117.127L272.723 242.238C267.902 247.166 259.975 247.254 255.046 242.434L237.173 224.954L223.768 211.844L174.618 163.773C169.689 158.953 169.601 151.025 174.421 146.097Z" fill="#EBA05B"/>
<path d="M142.844 121.325C145.45 121.325 147.569 123.438 147.569 126.05C147.569 128.663 145.45 130.775 142.844 130.775C140.231 130.775 138.119 128.663 138.119 126.05C138.119 123.438 140.231 121.325 142.844 121.325ZM138.919 111.219C130.744 111.219 124.094 117.869 124.094 126.05C124.094 134.231 130.744 140.881 138.919 140.881H187.309L187.211 111.219H138.919ZM13.7191 55.337C13.8251 85.5558 14.0002 152.944 13.6004 168.281C13.2754 181.025 23.4751 186.269 26.4315 187.512H187.463L187.329 147.131H138.919C127.3 147.131 117.844 137.675 117.844 126.05C117.844 114.425 127.3 104.969 138.919 104.969H187.19L187.038 58.887C158.413 58.9246 43.6877 59.1121 33.2942 58.9995C27.6316 58.9495 20.1876 58.4246 13.7191 55.337ZM117.869 12.5183C87.7752 12.5183 53.9378 12.787 39.3816 13.3745C31.4627 13.6995 12.9626 16.0806 12.519 31.1058C12.3691 35.8433 13.3876 39.2807 15.6192 41.6058C18.7003 44.812 24.5188 46.4182 33.4128 46.4995C41.5751 46.5994 117.306 46.4995 161.538 46.4245L167.437 12.8932C157.881 12.6495 138.781 12.5183 117.869 12.5183ZM133.133 5.59228e-07C179.251 -0.000610229 179.439 0.498317 180.838 5.38075L182.181 10.1119L180.444 11.1057L174.237 46.4058C185.606 46.3869 192.937 46.3745 193.262 46.3745L199.506 46.362L200 200.012L23.3504 199.706C15.4376 197.131 0.606454 187.187 1.10046 167.962C1.60018 148.637 1.16912 41.8495 1.16264 40.7746H1.18171C0.294031 37.7558 -0.0935415 34.4057 0.0189915 30.7245C0.550378 13.0182 15.0817 1.86187 38.8751 0.886833C53.4689 0.293073 88.7815 0.0182236 117.294 0.0119282C123.1 0.00547412 128.362 6.49818e-05 133.133 5.59228e-07Z" fill="#4B36D7"/>
</svg>
