<svg width="30" height="31" viewBox="0 0 30 31" fill="none" xmlns="http://www.w3.org/2000/svg">
<ellipse cx="15" cy="16.3659" rx="15" ry="14.6341" fill="#6F7E90"/>
<path d="M5.4541 7.05274C7.10853 5.43867 9.16453 4.27179 11.4205 3.66655C13.6765 3.0613 16.0549 3.03846 18.3227 3.60026C20.5904 4.16207 22.6696 5.28924 24.3562 6.87123C26.0429 8.45322 27.2792 10.4357 27.9439 12.6243C28.6085 14.8129 28.6787 17.1325 28.1476 19.3555C27.6165 21.5786 26.5023 23.6288 24.9143 25.3052C23.3263 26.9815 21.319 28.2265 19.0892 28.9179C16.8594 29.6093 14.4836 29.7234 12.195 29.2491M5.4541 7.05274L6.00004 1M5.4541 7.05274L12.195 7.58537" stroke="#E2E2EC"/>
<path d="M15.6055 29.5233C12.1335 29.6755 8.73502 28.5153 6.11767 26.2844C3.50033 24.0534 1.86574 20.9236 1.5542 17.5465" stroke="#E2E2EC" stroke-width="0.5" stroke-dasharray="1 1"/>
<path d="M19.6406 19.5328C19.6406 20.2264 19.5078 20.8438 19.2422 21.3849C18.9844 21.9261 18.6211 22.3872 18.1523 22.7683C17.6914 23.1418 17.1445 23.4238 16.5117 23.6143C15.8867 23.8049 15.2109 23.9002 14.4844 23.9002C13.9766 23.9002 13.5039 23.8582 13.0664 23.7744C12.6367 23.6905 12.25 23.5877 11.9062 23.4657C11.5703 23.3438 11.2852 23.218 11.0508 23.0884C10.8242 22.9588 10.6641 22.8483 10.5703 22.7569C10.4844 22.6654 10.418 22.5511 10.3711 22.4139C10.332 22.2691 10.3125 22.0785 10.3125 21.8422C10.3125 21.6745 10.3203 21.5373 10.3359 21.4306C10.3516 21.3163 10.375 21.2248 10.4062 21.1562C10.4375 21.0877 10.4766 21.0419 10.5234 21.0191C10.5703 20.9886 10.625 20.9733 10.6875 20.9733C10.7969 20.9733 10.9492 21.0381 11.1445 21.1677C11.3477 21.2973 11.6055 21.4383 11.918 21.5907C12.2305 21.7431 12.6055 21.888 13.043 22.0252C13.4883 22.1547 14 22.2195 14.5781 22.2195C15.0156 22.2195 15.4141 22.1623 15.7734 22.048C16.1406 21.9337 16.4531 21.7736 16.7109 21.5678C16.9766 21.3544 17.1797 21.0953 17.3203 20.7904C17.4609 20.4855 17.5312 20.1387 17.5312 19.75C17.5312 19.3308 17.4336 18.9726 17.2383 18.6753C17.043 18.378 16.7852 18.1189 16.4648 17.8979C16.1445 17.6692 15.7773 17.4634 15.3633 17.2805C14.957 17.0899 14.5391 16.8994 14.1094 16.7088C13.6797 16.5107 13.2617 16.2934 12.8555 16.0572C12.4492 15.8209 12.0859 15.5427 11.7656 15.2226C11.4453 14.9024 11.1836 14.529 10.9805 14.1021C10.7852 13.6677 10.6875 13.1494 10.6875 12.5473C10.6875 11.9299 10.8008 11.3811 11.0273 10.9009C11.2617 10.4131 11.582 10.0053 11.9883 9.67759C12.4023 9.34985 12.8906 9.10213 13.4531 8.93445C14.0234 8.75915 14.6367 8.67149 15.293 8.67149C15.6289 8.67149 15.9648 8.70198 16.3008 8.76296C16.6445 8.81631 16.9648 8.89253 17.2617 8.99162C17.5664 9.08308 17.8359 9.18979 18.0703 9.31174C18.3047 9.42607 18.457 9.52134 18.5273 9.59756C18.6055 9.66616 18.6562 9.72332 18.6797 9.76905C18.7031 9.80716 18.7227 9.86052 18.7383 9.92912C18.7539 9.99009 18.7656 10.0663 18.7734 10.1578C18.7812 10.2492 18.7852 10.3674 18.7852 10.5122C18.7852 10.6494 18.7773 10.7713 18.7617 10.878C18.7539 10.9848 18.7383 11.0762 18.7148 11.1524C18.6914 11.221 18.6562 11.2744 18.6094 11.3125C18.5703 11.343 18.5234 11.3582 18.4688 11.3582C18.3828 11.3582 18.2461 11.3049 18.0586 11.1982C17.8789 11.0915 17.6562 10.9733 17.3906 10.8437C17.125 10.7066 16.8086 10.5846 16.4414 10.4779C16.082 10.3636 15.6758 10.3064 15.2227 10.3064C14.8008 10.3064 14.4336 10.3636 14.1211 10.4779C13.8086 10.5846 13.5508 10.7294 13.3477 10.9123C13.1445 11.0953 12.9922 11.3125 12.8906 11.564C12.7891 11.8155 12.7383 12.0823 12.7383 12.3643C12.7383 12.7759 12.8359 13.1303 13.0312 13.4276C13.2266 13.7248 13.4844 13.9878 13.8047 14.2165C14.1328 14.4451 14.5039 14.6547 14.918 14.8453C15.332 15.0358 15.7539 15.2302 16.1836 15.4284C16.6133 15.6189 17.0352 15.8323 17.4492 16.0686C17.8633 16.2973 18.2305 16.5716 18.5508 16.8918C18.8789 17.2043 19.1406 17.5777 19.3359 18.0122C19.5391 18.439 19.6406 18.9459 19.6406 19.5328Z" fill="#E2E2EC"/>
<path d="M14.25 9.04879V6.85367H15.75V9.04879H14.25Z" fill="#E2E2EC"/>
<path d="M14.25 25.1464V22.9512H15.75V25.1464H14.25Z" fill="#E2E2EC"/>
</svg>
