<svg width="836" height="388" viewBox="0 0 836 388" fill="none" xmlns="http://www.w3.org/2000/svg">
<g filter="url(#filter0_d)">
<path d="M603.584 203.606L303.858 26L294.844 41.212L594.57 218.818L603.584 203.606Z" fill="white"/>
</g>
<g filter="url(#filter1_d)">
<path d="M538.44 218.496L238.714 40.8904L229.7 56.1024L529.426 233.708L538.44 218.496Z" fill="white"/>
</g>
<g filter="url(#filter2_d)">
<path d="M480.74 234.782L181.014 57.1763L172 72.3883L471.726 249.994L480.74 234.782Z" fill="white"/>
</g>
<g filter="url(#filter3_d)">
<path d="M408.357 234.197C460.184 234.197 502.197 192.183 502.197 140.356C502.197 88.5296 460.184 46.5157 408.357 46.5157C356.53 46.5157 314.516 88.5296 314.516 140.356C314.516 192.183 356.53 234.197 408.357 234.197Z" fill="white"/>
</g>
<path opacity="0.3" d="M408.357 157.492C405.048 157.492 401.814 156.511 399.063 154.673C396.312 152.835 394.168 150.222 392.902 147.166C391.636 144.109 391.304 140.746 391.95 137.501C392.595 134.256 394.188 131.275 396.528 128.936C398.867 126.596 401.848 125.003 405.093 124.357C408.338 123.712 411.701 124.043 414.758 125.309C417.815 126.575 420.427 128.72 422.265 131.47C424.104 134.221 425.085 137.456 425.085 140.764C425.08 145.199 423.316 149.451 420.18 152.587C417.044 155.723 412.792 157.487 408.357 157.492ZM408.357 124.852C405.209 124.852 402.133 125.785 399.516 127.534C396.899 129.282 394.86 131.767 393.656 134.675C392.451 137.582 392.136 140.782 392.75 143.868C393.364 146.955 394.88 149.79 397.105 152.016C399.33 154.241 402.166 155.757 405.252 156.371C408.339 156.985 411.538 156.669 414.446 155.465C417.353 154.261 419.839 152.221 421.587 149.604C423.335 146.988 424.269 143.911 424.269 140.764C424.264 136.545 422.586 132.501 419.603 129.518C416.62 126.535 412.575 124.857 408.357 124.852Z" fill="#2A9D8F"/>
<path opacity="0.3" d="M408.357 172.588C402.063 172.588 395.91 170.722 390.676 167.225C385.443 163.728 381.364 158.758 378.955 152.943C376.547 147.128 375.916 140.729 377.144 134.556C378.372 128.382 381.403 122.712 385.854 118.261C390.305 113.81 395.975 110.779 402.148 109.551C408.322 108.324 414.72 108.954 420.536 111.362C426.351 113.771 431.321 117.85 434.818 123.084C438.315 128.317 440.181 134.47 440.181 140.764C440.172 149.202 436.816 157.291 430.85 163.257C424.883 169.223 416.794 172.579 408.357 172.588ZM408.357 109.756C402.224 109.756 396.229 111.575 391.13 114.982C386.03 118.389 382.056 123.232 379.709 128.898C377.362 134.564 376.748 140.799 377.945 146.814C379.141 152.829 382.094 158.354 386.431 162.69C390.767 167.027 396.293 169.98 402.308 171.177C408.323 172.373 414.557 171.759 420.223 169.412C425.889 167.065 430.732 163.091 434.139 157.991C437.547 152.892 439.365 146.897 439.365 140.764C439.356 132.543 436.086 124.661 430.273 118.848C424.46 113.035 416.578 109.765 408.357 109.756Z" fill="#2A9D8F"/>
<path opacity="0.3" d="M408.358 185.644C399.481 185.644 390.804 183.012 383.424 178.081C376.043 173.149 370.291 166.14 366.894 157.939C363.497 149.738 362.608 140.714 364.34 132.008C366.072 123.302 370.346 115.306 376.623 109.029C382.899 102.752 390.896 98.4779 399.602 96.7462C408.308 95.0145 417.332 95.9032 425.533 99.3001C433.734 102.697 440.743 108.449 445.674 115.83C450.606 123.21 453.238 131.888 453.238 140.764C453.225 152.663 448.492 164.071 440.078 172.484C431.664 180.898 420.257 185.631 408.358 185.644ZM408.358 96.6998C399.643 96.6998 391.123 99.2841 383.877 104.126C376.631 108.968 370.983 115.85 367.648 123.901C364.313 131.953 363.44 140.813 365.14 149.361C366.84 157.908 371.037 165.76 377.2 171.922C383.362 178.085 391.214 182.282 399.761 183.982C408.309 185.682 417.169 184.809 425.221 181.474C433.272 178.139 440.154 172.491 444.996 165.245C449.838 157.999 452.422 149.479 452.422 140.764C452.409 129.082 447.762 117.881 439.501 109.621C431.241 101.36 420.04 96.713 408.358 96.6998V96.6998Z" fill="#2A9D8F"/>
<path opacity="0.3" d="M408.357 202.781C374.161 202.781 346.341 174.961 346.341 140.764C346.341 106.568 374.161 78.7479 408.357 78.7479C442.553 78.7479 470.374 106.568 470.374 140.764C470.374 174.961 442.553 202.781 408.357 202.781ZM408.357 79.5639C374.611 79.5639 347.157 107.018 347.157 140.764C347.157 174.51 374.611 201.965 408.357 201.965C442.103 201.965 469.558 174.51 469.558 140.764C469.558 107.018 442.103 79.5639 408.357 79.5639Z" fill="#2A9D8F"/>
<path opacity="0.3" d="M408.357 217.061C366.286 217.061 332.06 182.834 332.06 140.764C332.06 98.6941 366.286 64.4677 408.357 64.4677C450.427 64.4677 484.653 98.6941 484.653 140.764C484.653 182.834 450.427 217.061 408.357 217.061ZM408.357 65.2837C366.737 65.2837 332.876 99.1441 332.876 140.764C332.876 182.384 366.737 216.245 408.357 216.245C449.977 216.245 483.837 182.384 483.837 140.764C483.837 99.1441 449.977 65.2837 408.357 65.2837Z" fill="#2A9D8F"/>
<path d="M408.357 144.028C410.385 144.028 412.029 142.384 412.029 140.356C412.029 138.328 410.385 136.684 408.357 136.684C406.329 136.684 404.685 138.328 404.685 140.356C404.685 142.384 406.329 144.028 408.357 144.028Z" fill="#22CCC2"/>
<path d="M408.357 147.028C412.042 147.028 415.029 144.041 415.029 140.356C415.029 136.671 412.042 133.684 408.357 133.684C404.672 133.684 401.685 136.671 401.685 140.356C401.685 144.041 404.672 147.028 408.357 147.028Z" stroke="#22CCC2" stroke-opacity="0.3" stroke-width="6"/>
<path d="M410.157 141H408V21H836V23.3306H410.157V141Z" fill="#22CCC2"/>
<path d="M374 160H371.121V49.5434L7 45.1861L7.04433 43L374 47.3909V160Z" fill="#3521B5"/>
<path d="M828 246H628H428V163H430.788V244.389H828V246Z" fill="#32E406"/>
<path d="M0 388H400V183H397.212V384.021H0V388Z" fill="#8C87AF"/>
<path d="M380.2 290.925H368.102V278.826H380.2V290.925ZM369.032 289.994H379.269V279.757H369.032V289.994Z" fill="#3F3D56"/>
<path opacity="0.8" d="M387.645 290.925C390.215 290.925 392.299 288.842 392.299 286.272C392.299 283.702 390.215 281.619 387.645 281.619C385.076 281.619 382.992 283.702 382.992 286.272C382.992 288.842 385.076 290.925 387.645 290.925Z" fill="#2A9D8F"/>
<circle cx="263.249" cy="116.016" r="13.0641" stroke="#FF0000"/>
<circle cx="577.689" cy="98.7528" r="13.0641" stroke="#22CCC2"/>
<circle cx="551.794" cy="205.416" r="13.0641" stroke="#32E406"/>
<path d="M374.085 163.204C376.113 163.204 377.757 161.56 377.757 159.532C377.757 157.504 376.113 155.86 374.085 155.86C372.057 155.86 370.413 157.504 370.413 159.532C370.413 161.56 372.057 163.204 374.085 163.204Z" fill="#FF0000"/>
<path d="M374.085 166.204C377.77 166.204 380.757 163.217 380.757 159.532C380.757 155.847 377.77 152.86 374.085 152.86C370.4 152.86 367.413 155.847 367.413 159.532C367.413 163.217 370.4 166.204 374.085 166.204Z" stroke="#FF0000" stroke-opacity="0.3" stroke-width="6"/>
<path d="M428.348 166.877C430.376 166.877 432.02 165.233 432.02 163.205C432.02 161.177 430.376 159.533 428.348 159.533C426.32 159.533 424.676 161.177 424.676 163.205C424.676 165.233 426.32 166.877 428.348 166.877Z" fill="#32E406"/>
<path d="M428.348 169.877C432.033 169.877 435.02 166.889 435.02 163.205C435.02 159.52 432.033 156.533 428.348 156.533C424.663 156.533 421.676 159.52 421.676 163.205C421.676 166.889 424.663 169.877 428.348 169.877Z" stroke="#32E406" stroke-opacity="0.3" stroke-width="6"/>
<path d="M398.348 186.877C396.32 186.877 394.676 185.233 394.676 183.205C394.676 181.177 396.32 179.533 398.348 179.533C400.376 179.533 402.021 181.177 402.021 183.205C402.021 185.233 400.376 186.877 398.348 186.877Z" fill="#8C87AF"/>
<path d="M398.348 189.877C394.664 189.877 391.676 186.889 391.676 183.205C391.676 179.52 394.664 176.533 398.348 176.533C402.033 176.533 405.021 179.52 405.021 183.205C405.021 186.889 402.033 189.877 398.348 189.877Z" stroke="#32E406" stroke-opacity="0.3" stroke-width="6"/>
<defs>
<filter id="filter0_d" x="264.844" y="0" width="368.74" height="252.818" filterUnits="userSpaceOnUse" color-interpolation-filters="sRGB">
<feFlood flood-opacity="0" result="BackgroundImageFix"/>
<feColorMatrix in="SourceAlpha" type="matrix" values="0 0 0 0 0 0 0 0 0 0 0 0 0 0 0 0 0 0 127 0" result="hardAlpha"/>
<feOffset dy="4"/>
<feGaussianBlur stdDeviation="15"/>
<feColorMatrix type="matrix" values="0 0 0 0 0.133333 0 0 0 0 0.356863 0 0 0 0 0.8 0 0 0 0.15 0"/>
<feBlend mode="normal" in2="BackgroundImageFix" result="effect1_dropShadow"/>
<feBlend mode="normal" in="SourceGraphic" in2="effect1_dropShadow" result="shape"/>
</filter>
<filter id="filter1_d" x="199.7" y="14.8904" width="368.74" height="252.818" filterUnits="userSpaceOnUse" color-interpolation-filters="sRGB">
<feFlood flood-opacity="0" result="BackgroundImageFix"/>
<feColorMatrix in="SourceAlpha" type="matrix" values="0 0 0 0 0 0 0 0 0 0 0 0 0 0 0 0 0 0 127 0" result="hardAlpha"/>
<feOffset dy="4"/>
<feGaussianBlur stdDeviation="15"/>
<feColorMatrix type="matrix" values="0 0 0 0 0.133333 0 0 0 0 0.356863 0 0 0 0 0.8 0 0 0 0.15 0"/>
<feBlend mode="normal" in2="BackgroundImageFix" result="effect1_dropShadow"/>
<feBlend mode="normal" in="SourceGraphic" in2="effect1_dropShadow" result="shape"/>
</filter>
<filter id="filter2_d" x="142" y="31.1763" width="368.74" height="252.818" filterUnits="userSpaceOnUse" color-interpolation-filters="sRGB">
<feFlood flood-opacity="0" result="BackgroundImageFix"/>
<feColorMatrix in="SourceAlpha" type="matrix" values="0 0 0 0 0 0 0 0 0 0 0 0 0 0 0 0 0 0 127 0" result="hardAlpha"/>
<feOffset dy="4"/>
<feGaussianBlur stdDeviation="15"/>
<feColorMatrix type="matrix" values="0 0 0 0 0.133333 0 0 0 0 0.356863 0 0 0 0 0.8 0 0 0 0.15 0"/>
<feBlend mode="normal" in2="BackgroundImageFix" result="effect1_dropShadow"/>
<feBlend mode="normal" in="SourceGraphic" in2="effect1_dropShadow" result="shape"/>
</filter>
<filter id="filter3_d" x="284.516" y="20.5157" width="247.681" height="247.681" filterUnits="userSpaceOnUse" color-interpolation-filters="sRGB">
<feFlood flood-opacity="0" result="BackgroundImageFix"/>
<feColorMatrix in="SourceAlpha" type="matrix" values="0 0 0 0 0 0 0 0 0 0 0 0 0 0 0 0 0 0 127 0" result="hardAlpha"/>
<feOffset dy="4"/>
<feGaussianBlur stdDeviation="15"/>
<feColorMatrix type="matrix" values="0 0 0 0 0.133333 0 0 0 0 0.356863 0 0 0 0 0.8 0 0 0 0.3 0"/>
<feBlend mode="normal" in2="BackgroundImageFix" result="effect1_dropShadow"/>
<feBlend mode="normal" in="SourceGraphic" in2="effect1_dropShadow" result="shape"/>
</filter>
</defs>
</svg>
