<svg width="135" height="61" viewBox="0 0 135 61" fill="none" xmlns="http://www.w3.org/2000/svg">
<path d="M0.938477 0.12793H33.9908V30.1279L15.6468 12.4279L0.938477 0.12793Z" fill="#FB5E7B"/>
<path d="M0.938477 30.1279H33.9908V60.1279L15.6468 42.4279L0.938477 30.1279Z" fill="#FB5E7B"/>
<path d="M33.9912 0.12793H67.0435V30.1279L48.6995 12.4279L33.9912 0.12793Z" fill="#FB5E7B"/>
<path d="M33.9912 30.1279H67.0435V60.1279L48.6995 42.4279L33.9912 30.1279Z" fill="#FB5E7B"/>
<path d="M67.043 0.12793H100.095V30.1279L81.7513 12.4279L67.043 0.12793Z" fill="#FB5E7B"/>
<path d="M67.043 30.1279H100.095V60.1279L81.7513 42.4279L67.043 30.1279Z" fill="#FB5E7B"/>
<path d="M101.197 0.12793H134.25V30.1279L115.906 12.4279L101.197 0.12793Z" fill="#FB5E7B"/>
<path d="M101.197 30.1279H134.25V60.1279L115.906 42.4279L101.197 30.1279Z" fill="#FB5E7B"/>
</svg>
