<svg width="30" height="30" viewBox="0 0 30 30" fill="none" xmlns="http://www.w3.org/2000/svg">
<path fill-rule="evenodd" clip-rule="evenodd" d="M25.4035 10.877C25.5294 11.0498 25.7309 11.1562 25.9463 11.157H26.157C28.2794 11.157 30 12.8776 30 15C30 17.1224 28.2794 18.843 26.157 18.843L26.0509 18.843C25.7791 18.844 25.534 19.0064 25.4269 19.2562L25.4211 19.2696C25.3086 19.5246 25.3626 19.8224 25.5469 20.011L25.6207 20.0848C26.3424 20.8056 26.7478 21.7838 26.7478 22.8037C26.7478 23.8237 26.3424 24.8018 25.6218 25.5216C24.901 26.2432 23.9229 26.6486 22.9029 26.6486C21.8829 26.6486 20.9048 26.2432 20.1845 25.5221L20.1208 25.4583C19.9216 25.2634 19.6238 25.2094 19.3554 25.3278C19.1056 25.4348 18.9432 25.68 18.9422 25.9463V26.157C18.9422 28.2794 17.2216 30 15.0992 30C12.9768 30 11.2562 28.2794 11.2562 26.157L11.2566 26.0773C11.25 25.7975 11.073 25.55 10.7304 25.4211C10.4754 25.3086 10.1776 25.3626 9.98903 25.5469L9.91519 25.6207C9.19437 26.3424 8.21624 26.7478 7.19628 26.7478C6.17632 26.7478 5.1982 26.3424 4.47845 25.6218C3.75683 24.901 3.35136 23.9229 3.35136 22.9029C3.35136 21.8829 3.75683 20.9048 4.47791 20.1845L4.54172 20.1208C4.73662 19.9216 4.79062 19.6238 4.67225 19.3554C4.5652 19.1056 4.32003 18.9432 4.05372 18.9422H3.84298C1.72056 18.9422 0 17.2216 0 15.0992C0 12.9768 1.72056 11.2562 3.84298 11.2562L3.92266 11.2566C4.20255 11.25 4.44999 11.073 4.57891 10.7304C4.69145 10.4754 4.63745 10.1776 4.45312 9.98903L4.37928 9.91519C3.65765 9.19437 3.25218 8.21624 3.25218 7.19628C3.25218 6.17632 3.65765 5.1982 4.3782 4.47845C5.09902 3.75683 6.07715 3.35136 7.09711 3.35136C8.11707 3.35136 9.09519 3.75683 9.81548 4.47791L9.87916 4.54172C10.0784 4.73662 10.3762 4.79062 10.6312 4.67808C10.7106 4.64305 10.7929 4.61577 10.877 4.59648C11.0498 4.47064 11.1562 4.2691 11.157 4.05372V3.84298C11.157 1.72056 12.8776 0 15 0C17.1224 0 18.843 1.72056 18.843 3.84298L18.843 3.94911C18.844 4.22086 19.0064 4.46602 19.2696 4.57891C19.5246 4.69145 19.8224 4.63745 20.011 4.45312L20.0848 4.37928C20.8056 3.65765 21.7838 3.25218 22.8037 3.25218C23.8237 3.25218 24.8018 3.65765 25.5216 4.3782C26.2432 5.09902 26.6486 6.07715 26.6486 7.09711C26.6486 8.11707 26.2432 9.09519 25.5221 9.81548L25.4583 9.87916C25.2634 10.0784 25.2094 10.3762 25.3219 10.6312C25.357 10.7106 25.3842 10.7929 25.4035 10.877ZM26.0454 16.1157H26.157C26.7732 16.1157 27.2727 15.6162 27.2727 15C27.2727 14.3838 26.7732 13.8843 26.157 13.8843L25.9408 13.8843C24.5821 13.8788 23.3562 13.0671 22.821 11.8181C22.7733 11.7069 22.7408 11.5902 22.724 11.4709C22.3039 10.2581 22.6008 8.90018 23.5192 7.96136L23.5941 7.88644C23.8036 7.67717 23.9213 7.3932 23.9213 7.09708C23.9213 6.80096 23.8036 6.51699 23.5931 6.30665C23.3838 6.09715 23.0998 5.97943 22.8037 5.97943C22.5076 5.97943 22.2236 6.09715 22.0138 6.30719L21.9287 6.39214C20.9325 7.36666 19.4434 7.63666 18.1818 7.07979C16.9329 6.54453 16.1211 5.31872 16.1157 3.95452V3.84295C16.1157 3.22676 15.6162 2.72725 15 2.72725C14.3838 2.72725 13.8843 3.22676 13.8843 3.84295L13.8843 4.05913C13.8788 5.4179 13.0671 6.6437 11.8181 7.17897C11.7069 7.22663 11.5902 7.25916 11.4709 7.27594C10.2581 7.69603 8.90018 7.39919 7.96136 6.48074L7.88644 6.40582C7.67717 6.19632 7.3932 6.0786 7.09708 6.0786C6.80096 6.0786 6.51699 6.19632 6.30665 6.4069C6.09715 6.61617 5.97943 6.90014 5.97943 7.19626C5.97943 7.49237 6.09715 7.77634 6.30719 7.98615L6.39214 8.07122C7.36666 9.06748 7.63666 10.5566 7.10624 11.7517C6.62305 13.0655 5.38585 13.9503 3.95452 13.9834H3.84295C3.22676 13.9834 2.72725 14.483 2.72725 15.0991C2.72725 15.7153 3.22676 16.2149 3.84295 16.2149L4.05913 16.2149C5.4179 16.2203 6.6437 17.0321 7.17313 18.2676C7.73583 19.5425 7.46583 21.0316 6.48074 22.0386L6.40582 22.1135C6.19632 22.3228 6.0786 22.6068 6.0786 22.9029C6.0786 23.199 6.19632 23.483 6.4069 23.6933C6.61617 23.9028 6.90014 24.0205 7.19626 24.0205C7.49237 24.0205 7.77634 23.9028 7.98615 23.6928L8.07122 23.6078C9.06748 22.6333 10.5566 22.3633 11.7517 22.8937C13.0655 23.3769 13.9503 24.6141 13.9834 26.0454V26.157C13.9834 26.7732 14.483 27.2727 15.0991 27.2727C15.7153 27.2727 16.2149 26.7732 16.2149 26.157L16.2149 25.9408C16.2203 24.5821 17.0321 23.3562 18.2676 22.8268C19.5425 22.2641 21.0316 22.5341 22.0386 23.5192L22.1135 23.5941C22.3228 23.8036 22.6068 23.9213 22.9029 23.9213C23.199 23.9213 23.483 23.8036 23.6933 23.5931C23.9028 23.3838 24.0205 23.0998 24.0205 22.8037C24.0205 22.5076 23.9028 22.2236 23.6928 22.0138L23.6078 21.9287C22.635 20.9342 22.3642 19.4486 22.923 18.1751C23.4598 16.93 24.6837 16.1211 26.0454 16.1157ZM12.2811 15C12.2811 13.4983 13.4984 12.281 15.0001 12.281C16.5017 12.281 17.7191 13.4983 17.7191 15C17.7191 16.5017 16.5017 17.719 15.0001 17.719C13.4984 17.719 12.2811 16.5017 12.2811 15ZM15.0001 10.281C12.3938 10.281 10.2811 12.3938 10.2811 15C10.2811 17.6062 12.3938 19.719 15.0001 19.719C17.6063 19.719 19.7191 17.6062 19.7191 15C19.7191 12.3938 17.6063 10.281 15.0001 10.281Z" fill="#6F7E90"/>
</svg>
