<svg width="120" height="120" viewBox="0 0 120 120" fill="none" xmlns="http://www.w3.org/2000/svg">
<path d="M80.1135 20.1135C70.2118 15.1204 58.8068 13.9887 48.117 16.9386C37.4271 19.8886 28.2166 26.7092 22.277 36.0738L25.81 38.3146C31.1933 29.8271 39.5412 23.6453 49.2299 20.9716C58.9186 18.298 69.2554 19.3236 78.2298 23.8491L80.1135 20.1135Z" fill="#25BB73"/>
<path d="M78.5253 100.648C88.6159 96.0482 96.635 87.8599 101.023 77.6755C105.411 67.4911 105.853 56.0387 102.265 45.5459L98.3066 46.8996C101.559 56.4097 101.157 66.7895 97.1806 76.0201C93.2037 85.2507 85.9356 92.6721 76.7901 96.8408L78.5253 100.648Z" fill="#25BB73"/>
<path d="M15.3287 60.2889C15.4003 71.3781 19.594 82.0442 27.0942 90.2127C34.5943 98.3811 44.8645 103.468 55.9074 104.484L56.2905 100.317C46.2819 99.3969 36.9735 94.7865 30.1759 87.3831C23.3782 79.9797 19.5772 70.3125 19.5123 60.2619L15.3287 60.2889Z" fill="#25BB73"/>
<path d="M72.3761 51.7801L72.1966 51.6059L72.0225 51.7854L55.1969 69.1389L47.7933 63.3068L47.597 63.1522L47.4422 63.3484L46.4053 64.6636L46.2504 64.8599L46.4468 65.0147L55.2154 71.9229L55.3926 72.0625L55.5496 71.9005L73.5836 53.3004L73.7575 53.121L73.5782 52.9469L72.3761 51.7801Z" fill="#25BB73" stroke="#25BB73" stroke-width="0.5"/>
</svg>
