<svg width="21" height="15" viewBox="0 0 21 15" fill="none" xmlns="http://www.w3.org/2000/svg">
<mask id="path-1-inside-1" fill="white">
<path d="M19.353 0L20.25 0.870709L6.79308 14.7501L0.25 9.59528L1.02381 8.61393L6.68058 13.0699L19.353 0Z"/>
</mask>
<path d="M19.353 0L20.25 0.870709L6.79308 14.7501L0.25 9.59528L1.02381 8.61393L6.68058 13.0699L19.353 0Z" fill="#3521B5"/>
<path d="M19.353 0L20.746 -1.43508L19.3101 -2.82891L17.9171 -1.39221L19.353 0ZM20.25 0.870709L21.6859 2.2629L23.0773 0.827839L21.643 -0.564376L20.25 0.870709ZM6.79308 14.7501L5.55538 16.3212L6.97286 17.4379L8.22898 16.1423L6.79308 14.7501ZM0.25 9.59528L-1.3205 8.35691L-2.55938 9.92807L-0.9877 11.1663L0.25 9.59528ZM1.02381 8.61393L2.26141 7.04283L0.691074 5.80583L-0.546689 7.37557L1.02381 8.61393ZM6.68058 13.0699L5.44298 14.641L6.86041 15.7576L8.11646 14.4622L6.68058 13.0699ZM17.96 1.43508L18.857 2.30579L21.643 -0.564376L20.746 -1.43508L17.96 1.43508ZM18.8141 -0.52148L5.35718 13.3579L8.22898 16.1423L21.6859 2.2629L18.8141 -0.52148ZM8.03078 13.1791L1.4877 8.02426L-0.9877 11.1663L5.55538 16.3212L8.03078 13.1791ZM1.8205 10.8336L2.5943 9.85229L-0.546689 7.37557L-1.3205 8.35691L1.8205 10.8336ZM-0.213795 10.185L5.44298 14.641L7.91818 11.4989L2.26141 7.04283L-0.213795 10.185ZM8.11646 14.4622L20.7889 1.39221L17.9171 -1.39221L5.2447 11.6777L8.11646 14.4622Z" fill="black" mask="url(#path-1-inside-1)"/>
</svg>
