<svg width="393" height="392" viewBox="0 0 393 392" fill="#fff" xmlns="http://www.w3.org/2000/svg">
<path d="M387.018 274.768L387.015 274.774C385.358 278.841 381.53 281.61 377.148 281.909L87.1918 300.491C83.2321 300.739 79.4243 298.928 77.1173 295.7L77.1097 295.69C76.589 294.981 76.1647 294.206 75.848 293.385L75.8444 293.375L75.8406 293.366C74.6875 290.548 74.6993 287.387 75.8735 284.577L75.8747 284.574L174.005 47.7619C174.005 47.7615 174.005 47.7611 174.006 47.7608C175.528 44.1114 178.818 41.4998 182.717 40.8456C186.617 40.1916 190.578 41.5862 193.208 44.5383C193.208 44.539 193.209 44.5397 193.21 44.5405L385.036 262.767C387.931 266.063 388.7 270.717 387.018 274.768Z" stroke="white" stroke-width="2"/>
<path d="M343.758 256.879L157.394 179.652" stroke="#ffffff" stroke-width="2" stroke-linecap="square"/>
</svg>
