<svg width="186" height="186" viewBox="0 0 186 186" fill="none" xmlns="http://www.w3.org/2000/svg">
<path d="M182.333 129.645L182.33 129.651C181.624 131.386 179.99 132.567 178.121 132.695C178.121 132.695 178.121 132.695 178.12 132.695L41.0986 141.476C41.0983 141.476 41.098 141.477 41.0976 141.477C39.4083 141.582 37.784 140.809 36.7998 139.432L36.7922 139.422C36.5737 139.124 36.3958 138.799 36.2629 138.455L36.2593 138.445L36.2555 138.436C35.7635 137.233 35.7685 135.885 36.2695 134.686L36.2707 134.683L82.6437 22.7738C83.2931 21.2163 84.6971 20.1017 86.3613 19.8226C88.0246 19.5436 89.7145 20.1382 90.8366 21.3971C90.8372 21.3978 90.8378 21.3985 90.8385 21.3992L181.487 124.524C181.488 124.524 181.488 124.524 181.488 124.524C182.723 125.93 183.051 127.916 182.333 129.645Z" stroke="white" stroke-opacity="0.4" stroke-width="2"/>
<path d="M162.377 121.393L74.3068 84.8982" stroke="white" stroke-opacity="0.4" stroke-width="2" stroke-linecap="square"/>
</svg>
