<svg width="316" height="263" viewBox="0 0 316 263" fill="none" xmlns="http://www.w3.org/2000/svg">
<path d="M314.018 235.768L314.015 235.774C312.358 239.841 308.53 242.61 304.148 242.909L14.1918 261.491C10.2321 261.739 6.42426 259.928 4.11732 256.7L4.10969 256.69C3.58898 255.981 3.16471 255.206 2.84802 254.385L2.8444 254.375L2.84061 254.366C1.68749 251.548 1.69934 248.387 2.87352 245.577L2.87469 245.574L101.005 8.76187C101.005 8.76141 101.006 8.76095 101.006 8.76049C102.528 5.11124 105.818 2.49976 109.717 1.84564C113.617 1.1916 117.578 2.58619 120.208 5.53831C120.208 5.53903 120.209 5.53974 120.21 5.54045L312.036 223.767C314.931 227.063 315.7 231.717 314.018 235.768Z" stroke="white" stroke-width="2"/>
</svg>
