<svg width="145" height="132" viewBox="0 0 145 132" fill="none" xmlns="http://www.w3.org/2000/svg">
<path d="M143.59 40.7984L143.591 40.8049C143.973 42.6391 143.277 44.5307 141.798 45.6803C141.798 45.6805 141.797 45.6808 141.797 45.681L33.0052 129.445C33.005 129.445 33.0047 129.445 33.0044 129.445C31.6615 130.476 29.8825 130.741 28.2973 130.148L28.2851 130.143C27.9378 130.018 27.6087 129.848 27.3063 129.636L27.298 129.631L27.2897 129.625C26.2101 128.902 25.4615 127.78 25.2081 126.505L25.2075 126.502L1.22389 7.76369C0.893437 6.10892 1.43633 4.40045 2.66136 3.23998C3.88572 2.08014 5.61982 1.6303 7.25351 2.04858C7.25441 2.04881 7.25531 2.04904 7.25621 2.04927L140.03 37.0213C140.03 37.0213 140.03 37.0214 140.03 37.0214C141.84 37.4987 143.221 38.9637 143.59 40.7984Z" stroke="white" stroke-opacity="0.2" stroke-width="2"/>
</svg>
