<svg width="30" height="21" viewBox="0 0 30 21" fill="none" xmlns="http://www.w3.org/2000/svg">
<path d="M5.70686 10.1027C7.13874 10.1027 8.67592 8.2003 8.67592 6.24596C8.67592 4.29128 7.34699 3.02505 5.70686 3.02505C4.0674 3.02505 2.73779 4.29128 2.73779 6.24596C2.73813 8.2003 4.22836 10.1027 5.70686 10.1027Z" fill="#3521B5"/>
<path d="M24.2923 10.1027C25.7242 10.1027 27.2614 8.2003 27.2614 6.24596C27.2614 4.29128 25.9321 3.02505 24.2923 3.02505C22.6525 3.02505 21.3232 4.29128 21.3232 6.24596C21.3232 8.2003 22.8138 10.1027 24.2923 10.1027Z" fill="#3521B5"/>
<path d="M15.0499 10.8538C17.2454 10.8538 19.6028 7.93606 19.6028 4.93917C19.6028 1.94193 17.5646 0 15.0499 0C12.5356 0 10.4971 1.94193 10.4971 4.93917C10.4971 7.93606 12.7827 10.8538 15.0499 10.8538Z" fill="#3521B5"/>
<path d="M23.1951 15.9566C22.6448 14.8658 22.2437 14.3162 21.4966 13.5395C20.8508 12.8682 18.9232 11.9222 17.6791 12.3383C16.6869 12.5556 16.6399 13.1271 15.0504 13.1271C13.461 13.1271 13.4137 12.5556 12.4211 12.3383C11.177 11.9222 9.2498 12.8682 8.60361 13.5395C7.85614 14.3162 7.45542 14.8661 6.90547 15.9566C6.62948 16.5036 6.05438 18.0987 6.41118 18.7852C6.86254 19.6537 7.96144 20.0132 10.9818 20.3824C12.7909 20.6037 15.0504 20.6037 15.0504 20.6037C15.0504 20.6037 17.3093 20.6037 19.1187 20.3824C22.1391 20.0132 23.2373 19.6537 23.6894 18.7852C24.0465 18.0987 23.4711 16.5036 23.1951 15.9566Z" fill="#3521B5"/>
<path d="M29.6036 13.4302C29.2455 12.7186 28.9836 12.3608 28.4963 11.8538C28.0752 11.4158 26.8183 10.7992 26.0071 11.0704C25.3593 11.2123 25.3294 11.5848 24.2929 11.5848C23.2564 11.5848 23.2259 11.2123 22.5787 11.0704C21.9264 10.8525 20.9875 11.2083 20.4248 11.5835C21.1988 11.9024 21.8865 12.3451 22.296 12.7706C23.1464 13.6545 23.6055 14.3074 24.1859 15.4576C24.2983 15.6806 24.4498 16.0411 24.5857 16.458C25.0732 16.4502 26.0859 16.4217 26.9454 16.3164C28.9152 16.0757 29.6318 15.8413 29.9262 15.2749C30.1589 14.8272 29.784 13.7867 29.6036 13.4302Z" fill="#3521B5"/>
<path d="M5.91499 15.4573C6.49512 14.3068 6.9542 13.6542 7.80461 12.7702C8.20299 12.3564 8.86494 11.9262 9.61341 11.6096C9.05608 11.225 8.08864 10.8478 7.42132 11.0708C6.77412 11.2126 6.7436 11.5852 5.70742 11.5852C4.67056 11.5852 4.64004 11.2126 3.99318 11.0708C3.18166 10.7995 1.92516 11.4162 1.50364 11.8541C1.0164 12.3608 0.755173 12.7189 0.396028 13.4305C0.216288 13.787 -0.158618 14.8275 0.0737698 15.2749C0.368195 15.8416 1.08447 16.0757 3.0539 16.3164C3.97541 16.4291 5.07229 16.4539 5.51024 16.4593C5.69501 15.9016 5.8952 15.4969 5.91499 15.4573Z" fill="#3521B5"/>
</svg>
