<svg width="15" height="21" viewBox="0 0 15 21" fill="none" xmlns="http://www.w3.org/2000/svg">
<path fill-rule="evenodd" clip-rule="evenodd" d="M10.8337 2.5V1.66667C10.8337 0.74625 10.0875 0 9.16708 0H5.83375C4.91333 0 4.16708 0.74625 4.16708 1.66667V2.5H0V3.33333H0.9375L2.08292 19.5833C2.08292 19.5833 2.345 20.8333 3.33292 20.8333C4.01917 20.8333 5.95917 20.8333 7.08292 20.8333C7.08292 20.8333 7.42125 20.8333 7.91625 20.8333C9.04 20.8333 10.98 20.8333 11.6663 20.8333C12.6546 20.8333 12.9167 19.5833 12.9167 19.5833L14.0279 3.33333H15V2.5H10.8337ZM5.00042 1.66667C5.00042 1.20625 5.37375 0.833333 5.83375 0.833333H9.16708C9.62708 0.833333 10.0004 1.20667 10.0004 1.66667V2.5H5.00042V1.66667ZM12.0837 19.1662C12.0138 19.8104 11.6667 19.9996 11.6667 19.9996H7.91667H7.08333H3.33333C3.33333 19.9996 2.98667 19.8104 2.91667 19.1662C2.84708 18.5221 1.77083 3.33292 1.77083 3.33292H13.1596C13.1596 3.33292 12.1533 18.5221 12.0837 19.1662Z" fill="#FF0000"/>
<path d="M7.91683 4.99988H7.0835V18.3332H7.91683V4.99988Z" fill="#FF0000"/>
<path fill-rule="evenodd" clip-rule="evenodd" d="M5.41692 18.3332L5.00025 4.99988H4.1665L4.58317 18.3332H5.41692Z" fill="#FF0000"/>
<path fill-rule="evenodd" clip-rule="evenodd" d="M10.834 4.99988H10.0007L9.58398 18.3332H10.4173L10.834 4.99988Z" fill="#FF0000"/>
</svg>
