<svg width="15" height="16" viewBox="0 0 15 16" fill="none" xmlns="http://www.w3.org/2000/svg">
<path d="M13.8729 0C14.1617 0 14.4506 0.109939 14.6705 0.329817C15.1098 0.769105 15.1098 1.48172 14.6705 1.92241L9.09424 7.50047L14.6705 13.0766C15.1098 13.5159 15.1098 14.2285 14.6705 14.6716C14.2308 15.1109 13.5148 15.1109 13.0755 14.6716L7.50023 9.09494L1.92443 14.6725C1.48513 15.1123 0.768746 15.1123 0.329475 14.6725C-0.109825 14.23 -0.109825 13.5173 0.329475 13.0776L5.90574 7.50047L0.329475 1.92335C-0.109825 1.48406 -0.109825 0.771447 0.329475 0.330754C0.768746 -0.108533 1.48513 -0.108533 1.92443 0.330754L7.49974 5.906L13.0755 0.329817C13.2952 0.109939 13.584 0 13.8729 0Z" fill="#212327"/>
</svg>
