<svg width="68" height="68" viewBox="0 0 68 68" fill="none" xmlns="http://www.w3.org/2000/svg">
<g filter="url(#filter0_d)">
<circle cx="34" cy="34" r="25" fill="white"/>
</g>
<path d="M33.5 34.5833C37.5208 34.5833 40.7917 31.3125 40.7917 27.2917C40.7917 23.2708 37.5208 20 33.5 20C29.4792 20 26.2083 23.2708 26.2083 27.2917C26.2083 31.3125 29.4792 34.5833 33.5 34.5833ZM38.7083 35.625H28.2917C24.2708 35.625 21 38.8958 21 42.9167V44.4792C21 44.7669 21.2331 45 21.5208 45H45.4792C45.7669 45 46 44.7669 46 44.4792V42.9167C46 38.8958 42.7292 35.625 38.7083 35.625Z" fill="#8C87AF"/>
<defs>
<filter id="filter0_d" x="0" y="0" width="68" height="68" filterUnits="userSpaceOnUse" color-interpolation-filters="sRGB">
<feFlood flood-opacity="0" result="BackgroundImageFix"/>
<feColorMatrix in="SourceAlpha" type="matrix" values="0 0 0 0 0 0 0 0 0 0 0 0 0 0 0 0 0 0 127 0" result="hardAlpha"/>
<feMorphology radius="1" operator="dilate" in="SourceAlpha" result="effect1_dropShadow"/>
<feOffset/>
<feGaussianBlur stdDeviation="4"/>
<feComposite in2="hardAlpha" operator="out"/>
<feColorMatrix type="matrix" values="0 0 0 0 0 0 0 0 0 0 0 0 0 0 0 0 0 0 0.08 0"/>
<feBlend mode="normal" in2="BackgroundImageFix" result="effect1_dropShadow"/>
<feBlend mode="normal" in="SourceGraphic" in2="effect1_dropShadow" result="shape"/>
</filter>
</defs>
</svg>
