<svg width="27" height="27" viewBox="0 0 27 27" fill="none" xmlns="http://www.w3.org/2000/svg">
<path d="M13.5135 18.5625C13.9953 18.5625 14.3944 18.7228 14.7116 19.0434C15.0289 19.3573 15.1875 19.7556 15.1875 20.2399C15.1875 20.7309 15.0314 21.1368 14.7209 21.4566C14.4036 21.7772 14.0012 21.9375 13.5135 21.9375C13.0258 21.9375 12.62 21.7738 12.2968 21.4464C11.9737 21.1056 11.8125 20.7039 11.8125 20.2399C11.8125 19.7623 11.9737 19.3641 12.2968 19.0434C12.62 18.7228 13.0258 18.5625 13.5135 18.5625ZM13.8645 4.95788C14.58 4.95788 15.2449 5.03719 15.8608 5.19413C16.4759 5.3519 17.0117 5.59996 17.4698 5.93831C17.9272 6.27665 18.2849 6.7095 18.5422 7.23599C18.7996 7.76334 18.9287 8.39532 18.9287 9.13361C18.9287 9.60273 18.8747 10.028 18.7675 10.4085C18.6595 10.789 18.5018 11.1485 18.2942 11.4868C18.0866 11.826 17.8293 12.15 17.5213 12.4622C17.2142 12.7735 16.8598 13.095 16.4607 13.4249C16.1907 13.6485 15.9545 13.8561 15.7511 14.0476C15.5469 14.24 15.3773 14.4307 15.2432 14.6188C15.1082 14.8078 15.0069 15.0078 14.9378 15.2187C14.8686 15.4305 14.834 15.671 14.834 15.9401C14.834 16.1241 14.8584 16.3131 14.909 16.5055C14.9588 16.6978 15.0255 16.859 15.1107 16.9897H12.0766C11.9998 16.7898 11.9399 16.5645 11.8977 16.3148C11.8555 16.065 11.8344 15.8288 11.8344 15.6052C11.8344 15.2516 11.869 14.9285 11.9382 14.6365C12.0074 14.3438 12.1112 14.0695 12.2496 13.8113C12.3879 13.554 12.5609 13.3076 12.7693 13.0731C12.9769 12.8385 13.219 12.6056 13.4958 12.3753C13.7877 12.1289 14.0434 11.9003 14.2627 11.6893C14.4821 11.4775 14.6678 11.2666 14.8221 11.0548C14.9757 10.843 15.0913 10.6237 15.1681 10.3967C15.2449 10.1706 15.2837 9.91829 15.2837 9.64154C15.2837 9.40359 15.2415 9.18168 15.1571 8.97834C15.0719 8.77415 14.9504 8.59949 14.7935 8.45354C14.6357 8.30757 14.4433 8.19196 14.2163 8.10675C13.9894 8.02237 13.7379 7.9802 13.4612 7.9802C12.8613 7.9802 12.2386 8.10505 11.5923 8.35482C10.946 8.60541 10.3351 8.98341 9.75796 9.49134V6.01932C10.3503 5.66578 10.9958 5.4 11.6961 5.22282C12.3955 5.04646 13.1186 4.95788 13.8645 4.95788ZM13.5 1.6875C6.98625 1.6875 1.6875 6.98625 1.6875 13.5C1.6875 20.0138 6.98625 25.3125 13.5 25.3125C20.0137 25.3125 25.3125 20.0138 25.3125 13.5C25.3125 6.98625 20.0137 1.6875 13.5 1.6875ZM13.5 0C20.9436 0 27 6.05644 27 13.5C27 20.9436 20.9436 27 13.5 27C6.05644 27 0 20.9436 0 13.5C0 6.05644 6.05644 0 13.5 0Z" fill="#8C87AF"/>
</svg>
