<svg width="142" height="64" viewBox="0 0 142 64" fill="none" xmlns="http://www.w3.org/2000/svg">
<g opacity="0.5">
<rect opacity="0.5" x="38.5664" y="20" width="6.23333" height="6.23333" fill="#22CCC2"/>
<rect x="25.1758" y="29.6333" width="6.23333" height="6.23333" transform="rotate(42.057 25.1758 29.6333)" fill="#C4C4C4"/>
<circle cx="41.3997" cy="33.5999" r="2.83333" fill="#C4C4C4"/>
<path d="M54.2898 36.1601L50.5701 42.5124L46.9288 36.1149L54.2898 36.1601Z" fill="#C4C4C4"/>
<path d="M32.8995 35.8667L34.8625 39.2667H30.9365L32.8995 35.8667Z" fill="#C4C4C4"/>
<path d="M40.8331 49.4666L42.7961 52.8666H38.8701L40.8331 49.4666Z" fill="#C4C4C4"/>
<circle cx="32.8995" cy="28.5001" r="2.26667" fill="#C4C4C4"/>
<circle cx="40.8331" cy="42.0999" r="2.26667" fill="#C4C4C4"/>
<rect x="16.5332" y="7" width="5.86667" height="5.86667" fill="#C4C4C4"/>
<rect x="3.92969" y="16.0667" width="5.86667" height="5.86667" transform="rotate(42.057 3.92969 16.0667)" fill="#C4C4C4"/>
<circle cx="19.1999" cy="19.8" r="2.66667" fill="#C4C4C4"/>
<path d="M31.3322 22.2097L27.8313 28.1883L24.4041 22.1672L31.3322 22.2097Z" fill="#C4C4C4"/>
<path d="M11.1997 21.9333L13.0473 25.1333H9.35222L11.1997 21.9333Z" fill="#C4C4C4"/>
<path d="M18.6665 34.7334L20.5141 37.9334H16.819L18.6665 34.7334Z" fill="#C4C4C4"/>
<circle cx="11.1997" cy="15" r="2.13333" fill="#C4C4C4"/>
<circle cx="18.6665" cy="27.8001" r="2.13333" fill="#C4C4C4"/>
</g>
<g opacity="0.5">
<rect x="69.5664" y="13" width="6.23333" height="6.23333" fill="#C4C4C4"/>
<rect opacity="0.5" x="56.1758" y="22.6333" width="6.23333" height="6.23333" transform="rotate(42.057 56.1758 22.6333)" fill="#EBA05B"/>
<circle cx="72.3997" cy="26.5999" r="2.83333" fill="#C4C4C4"/>
<path d="M85.2898 29.1601L81.5701 35.5124L77.9288 29.1149L85.2898 29.1601Z" fill="#C4C4C4"/>
<path d="M63.8995 28.8667L65.8625 32.2667H61.9365L63.8995 28.8667Z" fill="#C4C4C4"/>
<path d="M71.8331 42.4666L73.7961 45.8666H69.8701L71.8331 42.4666Z" fill="#C4C4C4"/>
<circle cx="63.8995" cy="21.5001" r="2.26667" fill="#C4C4C4"/>
<circle cx="71.8331" cy="35.0999" r="2.26667" fill="#C4C4C4"/>
<rect x="47.5332" width="5.86667" height="5.86667" fill="#C4C4C4"/>
<rect x="34.9297" y="9.06665" width="5.86667" height="5.86667" transform="rotate(42.057 34.9297 9.06665)" fill="#C4C4C4"/>
<circle cx="50.1999" cy="12.8" r="2.66667" fill="#C4C4C4"/>
<path d="M62.3322 15.2097L58.8313 21.1883L55.4041 15.1672L62.3322 15.2097Z" fill="#C4C4C4"/>
<path d="M42.1997 14.9333L44.0473 18.1333H40.3522L42.1997 14.9333Z" fill="#C4C4C4"/>
<path d="M49.6665 27.7334L51.5141 30.9334H47.819L49.6665 27.7334Z" fill="#C4C4C4"/>
<circle cx="42.1997" cy="8.00003" r="2.13333" fill="#C4C4C4"/>
<circle cx="49.6665" cy="20.8001" r="2.13333" fill="#C4C4C4"/>
</g>
<g opacity="0.5">
<rect x="123.566" y="30" width="6.23333" height="6.23333" fill="#C4C4C4"/>
<rect x="110.176" y="39.6333" width="6.23333" height="6.23333" transform="rotate(42.057 110.176 39.6333)" fill="#C4C4C4"/>
<circle cx="126.4" cy="43.5999" r="2.83333" fill="#C4C4C4"/>
<path d="M139.29 46.1601L135.57 52.5124L131.929 46.1149L139.29 46.1601Z" fill="#C4C4C4"/>
<path d="M117.899 45.8667L119.862 49.2667H115.936L117.899 45.8667Z" fill="#C4C4C4"/>
<path d="M125.833 59.4666L127.796 62.8666H123.87L125.833 59.4666Z" fill="#C4C4C4"/>
<circle cx="117.899" cy="38.5001" r="2.26667" fill="#C4C4C4"/>
<circle cx="125.833" cy="52.0999" r="2.26667" fill="#C4C4C4"/>
<rect x="101.533" y="17" width="5.86667" height="5.86667" fill="#C4C4C4"/>
<rect x="88.9297" y="26.0667" width="5.86667" height="5.86667" transform="rotate(42.057 88.9297 26.0667)" fill="#C4C4C4"/>
<circle cx="104.2" cy="29.8" r="2.66667" fill="#C4C4C4"/>
<path d="M116.332 32.2097L112.831 38.1883L109.404 32.1672L116.332 32.2097Z" fill="#C4C4C4"/>
<path d="M96.1997 31.9333L98.0473 35.1333H94.3522L96.1997 31.9333Z" fill="#C4C4C4"/>
<path d="M103.667 44.7334L105.514 47.9334H101.819L103.667 44.7334Z" fill="#C4C4C4"/>
<circle cx="96.1997" cy="25" r="2.13333" fill="#C4C4C4"/>
<circle cx="103.667" cy="37.8001" r="2.13333" fill="#C4C4C4"/>
</g>
</svg>
