<svg width="200" height="200" viewBox="0 0 200 200" fill="none" xmlns="http://www.w3.org/2000/svg">
<mask id="path-1-inside-1" fill="white">
<path d="M200 100C200 155.228 155.228 200 100 200C44.7715 200 0 155.228 0 100C0 44.7715 44.7715 0 100 0C155.228 0 200 44.7715 200 100ZM32.0822 100C32.0822 137.51 62.49 167.918 100 167.918C137.51 167.918 167.918 137.51 167.918 100C167.918 62.49 137.51 32.0822 100 32.0822C62.49 32.0822 32.0822 62.49 32.0822 100Z"/>
</mask>
<path d="M200 100C200 155.228 155.228 200 100 200C44.7715 200 0 155.228 0 100C0 44.7715 44.7715 0 100 0C155.228 0 200 44.7715 200 100ZM32.0822 100C32.0822 137.51 62.49 167.918 100 167.918C137.51 167.918 167.918 137.51 167.918 100C167.918 62.49 137.51 32.0822 100 32.0822C62.49 32.0822 32.0822 62.49 32.0822 100Z" stroke="url(#paint0_angular)" stroke-width="40" mask="url(#path-1-inside-1)"/>
<path d="M9.318 98.094H9.97496C10.3064 98.091 10.5683 98.0052 10.7607 97.8365C10.956 97.6679 11.0536 97.4237 11.0536 97.1041C11.0536 96.7963 10.9722 96.5581 10.8095 96.3894C10.6497 96.2178 10.4041 96.132 10.0726 96.132C9.78261 96.132 9.54439 96.2163 9.35795 96.385C9.17152 96.5507 9.0783 96.7682 9.0783 97.0375H7.99964C7.99964 96.7061 8.08694 96.4042 8.26154 96.132C8.4391 95.8597 8.68472 95.6481 8.9984 95.4972C9.31504 95.3433 9.66868 95.2664 10.0593 95.2664C10.7044 95.2664 11.2105 95.4292 11.5774 95.7547C11.9473 96.0772 12.1323 96.5271 12.1323 97.1041C12.1323 97.3941 12.0391 97.6679 11.8526 97.9253C11.6692 98.1798 11.4309 98.3722 11.138 98.5024C11.4931 98.6237 11.7624 98.8146 11.9458 99.075C12.1323 99.3354 12.2255 99.6461 12.2255 100.007C12.2255 100.587 12.0257 101.049 11.6262 101.392C11.2297 101.735 10.7074 101.907 10.0593 101.907C9.43786 101.907 8.92886 101.741 8.53232 101.41C8.13577 101.078 7.9375 100.637 7.9375 100.087H9.01616C9.01616 100.371 9.11085 100.602 9.30025 100.78C9.4926 100.957 9.75006 101.046 10.0726 101.046C10.407 101.046 10.6704 100.957 10.8627 100.78C11.0551 100.602 11.1513 100.345 11.1513 100.007C11.1513 99.6669 11.0507 99.405 10.8494 99.2215C10.6482 99.038 10.3493 98.9463 9.95277 98.9463H9.318V98.094Z" fill="white"/>
<path d="M16.296 99.1149C15.935 99.4967 15.5133 99.6876 15.0309 99.6876C14.4627 99.6876 14.0099 99.4893 13.6726 99.0928C13.3352 98.6932 13.1665 98.1695 13.1665 97.5214C13.1665 97.0952 13.2524 96.7091 13.424 96.3628C13.5956 96.0166 13.8398 95.7473 14.1564 95.5549C14.4731 95.3626 14.84 95.2664 15.2573 95.2664C15.9083 95.2664 16.4247 95.5091 16.8065 95.9944C17.1882 96.4797 17.3791 97.1293 17.3791 97.9431V98.2449C17.3791 99.4109 17.1157 100.3 16.589 100.913C16.0622 101.525 15.2765 101.836 14.2319 101.845H14.1032V100.953H14.2585C14.8948 100.944 15.383 100.791 15.7234 100.495C16.0637 100.197 16.2546 99.7364 16.296 99.1149ZM15.2573 98.8442C15.4733 98.8442 15.676 98.782 15.8654 98.6577C16.0548 98.5334 16.2013 98.3618 16.3049 98.1428V97.7211C16.3049 97.2447 16.2072 96.8615 16.0119 96.5714C15.8166 96.2814 15.5636 96.1364 15.2528 96.1364C14.9421 96.1364 14.6935 96.2652 14.5071 96.5226C14.3236 96.7771 14.2319 97.0997 14.2319 97.4903C14.2319 97.8957 14.3251 98.2227 14.5115 98.4713C14.698 98.7199 14.9466 98.8442 15.2573 98.8442Z" fill="white"/>
<path d="M18.3601 96.5981C18.3601 96.2075 18.4859 95.8879 18.7374 95.6393C18.9889 95.3877 19.3189 95.262 19.7273 95.262C20.1416 95.262 20.473 95.3877 20.7216 95.6393C20.9731 95.8879 21.0989 96.2149 21.0989 96.6203V96.9399C21.0989 97.3275 20.9731 97.6457 20.7216 97.8942C20.473 98.1428 20.1445 98.2671 19.7362 98.2671C19.3366 98.2671 19.0067 98.1458 18.7463 97.9031C18.4888 97.6575 18.3601 97.3275 18.3601 96.9132V96.5981ZM19.1147 96.9399C19.1147 97.1441 19.1709 97.3098 19.2834 97.437C19.3988 97.5613 19.5497 97.6235 19.7362 97.6235C19.9196 97.6235 20.0676 97.5613 20.18 97.437C20.2925 97.3098 20.3487 97.1381 20.3487 96.9221V96.5981C20.3487 96.3939 20.291 96.2282 20.1756 96.1009C20.0632 95.9737 19.9137 95.91 19.7273 95.91C19.5408 95.91 19.3914 95.9751 19.2789 96.1054C19.1694 96.2326 19.1147 96.4013 19.1147 96.6114V96.9399ZM21.4673 100.234C21.4673 99.837 21.5961 99.5159 21.8535 99.2703C22.111 99.0247 22.4395 98.9019 22.839 98.9019C23.2414 98.9019 23.5699 99.0247 23.8244 99.2703C24.0819 99.5159 24.2106 99.8474 24.2106 100.265V100.58C24.2106 100.964 24.0863 101.283 23.8377 101.534C23.5921 101.783 23.2621 101.907 22.8478 101.907C22.4335 101.907 22.0991 101.784 21.8446 101.539C21.5931 101.29 21.4673 100.963 21.4673 100.558V100.234ZM22.2219 100.58C22.2219 100.781 22.2797 100.947 22.3951 101.077C22.5134 101.204 22.6644 101.268 22.8478 101.268C23.0372 101.268 23.1852 101.207 23.2917 101.086C23.4012 100.962 23.456 100.788 23.456 100.566V100.234C23.456 100.026 23.3983 99.8607 23.2828 99.7364C23.1674 99.6121 23.0195 99.55 22.839 99.55C22.6555 99.55 22.506 99.6121 22.3906 99.7364C22.2782 99.8607 22.2219 100.032 22.2219 100.251V100.58ZM19.9581 101.334L19.4032 101.015L22.5593 95.9633L23.1142 96.2829L19.9581 101.334Z" fill="white"/>
<path d="M179.879 99.233V100.125H179.746C179.142 100.134 178.66 100.3 178.299 100.622C177.938 100.945 177.723 101.402 177.655 101.994C178.001 101.63 178.444 101.448 178.982 101.448C179.553 101.448 180.003 101.649 180.332 102.052C180.663 102.454 180.829 102.974 180.829 103.61C180.829 104.267 180.635 104.799 180.247 105.208C179.863 105.613 179.357 105.816 178.729 105.816C178.084 105.816 177.56 105.578 177.158 105.101C176.758 104.625 176.559 104 176.559 103.228V102.86C176.559 101.726 176.834 100.838 177.384 100.196C177.938 99.5541 178.732 99.233 179.768 99.233H179.879ZM178.72 102.318C178.484 102.318 178.266 102.385 178.068 102.518C177.873 102.651 177.729 102.829 177.637 103.051V103.379C177.637 103.858 177.738 104.24 177.939 104.524C178.14 104.805 178.401 104.946 178.72 104.946C179.04 104.946 179.293 104.826 179.479 104.586C179.666 104.347 179.759 104.032 179.759 103.641C179.759 103.25 179.664 102.932 179.475 102.687C179.286 102.441 179.034 102.318 178.72 102.318Z" fill="#FF0000"/>
<path d="M184.611 105.727H183.537V100.538L181.952 101.08V100.17L184.473 99.2419H184.611V105.727Z" fill="#FF0000"/>
<path d="M186.812 100.507C186.812 100.116 186.938 99.7968 187.19 99.5482C187.441 99.2967 187.771 99.1709 188.18 99.1709C188.594 99.1709 188.925 99.2967 189.174 99.5482C189.426 99.7968 189.551 100.124 189.551 100.529V100.849C189.551 101.236 189.426 101.555 189.174 101.803C188.925 102.052 188.597 102.176 188.189 102.176C187.789 102.176 187.459 102.055 187.199 101.812C186.941 101.566 186.812 101.236 186.812 100.822V100.507ZM187.567 100.849C187.567 101.053 187.623 101.219 187.736 101.346C187.851 101.47 188.002 101.532 188.189 101.532C188.372 101.532 188.52 101.47 188.632 101.346C188.745 101.219 188.801 101.047 188.801 100.831V100.507C188.801 100.303 188.743 100.137 188.628 100.01C188.516 99.8826 188.366 99.819 188.18 99.819C187.993 99.819 187.844 99.8841 187.731 100.014C187.622 100.142 187.567 100.31 187.567 100.52V100.849ZM189.92 104.142C189.92 103.746 190.048 103.425 190.306 103.179C190.563 102.934 190.892 102.811 191.291 102.811C191.694 102.811 192.022 102.934 192.277 103.179C192.534 103.425 192.663 103.756 192.663 104.174V104.489C192.663 104.873 192.539 105.192 192.29 105.443C192.045 105.692 191.715 105.816 191.3 105.816C190.886 105.816 190.552 105.693 190.297 105.448C190.046 105.199 189.92 104.872 189.92 104.467V104.142ZM190.674 104.489C190.674 104.69 190.732 104.856 190.847 104.986C190.966 105.113 191.117 105.177 191.3 105.177C191.49 105.177 191.638 105.116 191.744 104.995C191.854 104.87 191.908 104.697 191.908 104.475V104.142C191.908 103.935 191.851 103.77 191.735 103.645C191.62 103.521 191.472 103.459 191.291 103.459C191.108 103.459 190.958 103.521 190.843 103.645C190.731 103.77 190.674 103.941 190.674 104.16V104.489ZM188.411 105.243L187.856 104.924L191.012 99.8722L191.567 100.192L188.411 105.243Z" fill="#FF0000"/>
<defs>
<radialGradient id="paint0_angular" cx="0" cy="0" r="1" gradientUnits="userSpaceOnUse" gradientTransform="translate(100 100) rotate(90) scale(100)">
<stop offset="0.0926638" stop-color="#4B36D7" stop-opacity="0.3"/>
<stop offset="0.0933852" stop-color="#3521B5"/>
<stop offset="0.4374" stop-color="#4B36D7"/>
<stop offset="0.4375" stop-color="#CC2222"/>
<stop offset="0.438516" stop-color="#4B36D7" stop-opacity="0.3"/>
</radialGradient>
</defs>
</svg>
